<?xml version="1.0" encoding="UTF-8"?>
<svg width="86px" height="30px" viewBox="0 0 86 30" version="1.1" xmlns="http://www.w3.org/2000/svg" xmlns:xlink="http://www.w3.org/1999/xlink">
    <!-- Generator: Sketch 52.5 (67469) - http://www.bohemiancoding.com/sketch -->
    <title>android-logo</title>
    <desc>Created with Sketch.</desc>
    <g id="Page-1" stroke="none" stroke-width="1" fill="none" fill-rule="evenodd">
        <g id="android-logo" fill="#8D8BA6">
            <g id="Group" transform="translate(29.082878, 8.033162)">
                <path d="M28.33723,0.824628386 C28.6370949,0.824628386 28.9369597,0.674695952 29.1618584,0.899594603 C29.2368246,1.19945947 29.1618584,1.42435812 29.1618584,1.72422299 L29.1618584,12.2194934 C28.8619935,12.2944596 28.6370949,12.2944596 28.33723,12.2194934 C28.33723,11.6197636 28.33723,11.0950001 28.33723,10.4952704 C27.662534,11.394865 26.7629394,12.0695609 25.7134124,12.2944596 C24.4389867,12.5943244 22.9396624,12.3694258 21.8901353,11.5447974 C21.2154394,11.0200339 20.6906759,10.2703717 20.3158448,9.52070955 C19.7910813,8.24628386 19.9410137,6.67199331 20.6906759,5.47253384 C21.2904056,4.49797302 22.2649664,3.74831085 23.4644259,3.5234122 C24.6638854,3.22354733 26.0132773,3.44844598 26.9878381,4.12314193 C27.5126016,4.4230068 27.8874327,4.8728041 28.2622638,5.3226014 C28.33723,3.74831085 28.33723,2.24898651 28.33723,0.824628386 Z M23.7642908,4.27307436 C21.9651016,4.64790545 20.6906759,6.52206087 20.9155745,8.32125008 C21.065507,9.59567577 21.9651016,10.6452028 23.0895948,11.2449325 C24.0641556,11.6197636 25.1886489,11.6947298 26.0882435,11.1699663 C27.5875678,10.5702366 28.5621286,8.8460136 28.2622638,7.19675682 C28.1123313,6.07226357 27.3626692,5.09770275 26.3881084,4.57293923 C25.56348,4.19810815 24.6638854,4.12314193 23.7642908,4.27307436 Z" id="Shape" fill-rule="nonzero"></path>
                <path d="M55.9247978,0.824628386 C56.1496965,0.599729735 56.4495613,0.749662169 56.7494262,0.824628386 L56.7494262,12.2194934 C56.4495613,12.2944596 56.2246627,12.2944596 55.9247978,12.2194934 C55.9247978,11.6197636 55.9247978,11.0950001 55.9247978,10.4952704 C55.1751357,11.5447974 53.90071,12.3694258 52.5513181,12.444392 C51.6517235,12.5193582 50.7521289,12.2944596 50.0024667,11.8446623 C48.8779734,11.2449325 48.053345,10.1204393 47.7534802,8.8460136 C47.5285815,7.72152034 47.678514,6.52206087 48.3532099,5.54750005 C49.0279059,4.49797302 50.0774329,3.74831085 51.2768924,3.5234122 C52.4763518,3.29851354 53.7507775,3.5234122 54.7253384,4.19810815 C55.1751357,4.49797302 55.5499667,4.8728041 55.9247978,5.3226014 C55.9247978,3.74831085 55.8498316,2.32395272 55.9247978,0.824628386 Z M51.3518586,4.27307436 C50.3772978,4.49797302 49.4777032,5.17266897 48.9529397,6.07226357 C48.5031423,6.82192574 48.4281761,7.72152034 48.5781086,8.54614873 C48.8030072,9.7456082 49.7026018,10.7951352 50.9020613,11.2449325 C51.6517235,11.5447974 52.4763518,11.5447974 53.3009802,11.3198988 C54.0506424,11.0200339 54.8003046,10.5702366 55.2501019,9.82057442 C55.8498316,8.99594603 56.0747303,7.87145278 55.7748654,6.89689196 C55.5499667,5.7723987 54.7253384,4.8728041 53.7507775,4.34804058 C53.0011154,4.12314193 52.1015208,4.12314193 51.3518586,4.27307436 Z" id="Shape" fill-rule="nonzero"></path>
                <path d="M45.5044937,0.899594603 C45.954291,0.749662169 46.4040883,1.3493919 46.1042234,1.72422299 C45.954291,2.02408786 45.4295275,2.09905407 45.2046288,1.79918921 C44.9047639,1.49932434 45.1296626,0.97456082 45.5044937,0.899594603 Z" id="Path"></path>
                <path d="M3.9732095,3.37347976 C4.94777032,3.22354733 5.99729735,3.29851354 6.82192574,3.82327706 C7.49662169,4.12314193 8.02138521,4.64790545 8.54614873,5.24763518 C8.54614873,4.64790545 8.54614873,4.04817571 8.54614873,3.44844598 L9.2958109,3.44844598 C9.37077712,6.37212844 9.2958109,9.2958109 9.2958109,12.2194934 C9.07091225,12.2944596 8.77104738,12.2944596 8.47118251,12.2194934 C8.47118251,11.6197636 8.47118251,11.0950001 8.47118251,10.4952704 C7.72152034,11.394865 6.82192574,12.1445271 5.62246627,12.2944596 C4.64790545,12.5193582 3.59837841,12.3694258 2.62381759,11.9196285 C1.27442569,11.2449325 0.374831085,9.97050685 0.149932434,8.54614873 C0.0749662169,7.72152034 0.149932434,6.82192574 0.524763518,6.07226357 C1.19945947,4.64790545 2.54885138,3.67334463 3.9732095,3.37347976 Z M4.04817571,4.27307436 C2.77375003,4.57293923 1.64925677,5.54750005 1.27442569,6.89689196 C0.824628386,8.3962163 1.49932434,10.1204393 2.77375003,10.9450677 C3.67334463,11.5447974 4.79783788,11.6947298 5.7723987,11.4698312 C6.97185817,11.0950001 7.94641899,10.1954055 8.32125008,8.99594603 C8.8460136,7.57158791 8.24628386,5.84736492 6.97185817,4.94777032 C6.14722979,4.27307436 5.02273653,4.04817571 4.04817571,4.27307436 Z" id="Shape" fill-rule="nonzero"></path>
                <path d="M12.5193582,4.19810815 C13.9437163,2.99864868 16.1927029,2.99864868 17.617061,4.19810815 C18.5166556,4.94777032 19.1163853,6.14722979 19.1163853,7.34668926 L19.1163853,12.2194934 C18.8165204,12.2944596 18.5166556,12.2944596 18.2917569,12.2194934 C18.2917569,10.5702366 18.2917569,8.8460136 18.2917569,7.19675682 C18.2167907,5.54750005 16.7174664,4.12314193 15.0682096,4.19810815 C13.4189528,4.19810815 11.9945947,5.62246627 11.9196285,7.27172304 L11.9196285,12.2194934 C11.6197636,12.2944596 11.394865,12.2944596 11.0950001,12.2194934 C11.0950001,10.6452028 11.0950001,9.07091225 11.0950001,7.49662169 C11.0200339,6.222196 11.5447974,5.02273653 12.5193582,4.19810815 Z" id="Path"></path>
                <path d="M30.6611827,7.12179061 C30.6611827,5.02273653 32.6103044,3.14858111 34.6343922,3.29851354 C34.6343922,3.5234122 34.7093584,3.82327706 34.6343922,4.04817571 C34.4094936,4.19810815 34.1845949,4.12314193 33.9596963,4.19810815 C33.0601017,4.4230068 32.2354733,5.02273653 31.785676,5.92233114 C31.4108449,6.74695952 31.4858111,7.64655413 31.4858111,8.54614873 L31.4858111,12.2194934 C31.2609125,12.3694258 30.9610476,12.2944596 30.6611827,12.2944596 C30.6611827,10.4952704 30.6611827,8.8460136 30.6611827,7.12179061 Z" id="Path"></path>
                <path d="M38.1578044,3.44844598 C39.2073315,3.22354733 40.4067909,3.37347976 41.3063855,3.9732095 C42.4308788,4.64790545 43.3304734,5.7723987 43.555372,7.12179061 C43.7053045,7.94641899 43.6303382,8.8460136 43.2555072,9.67064198 C42.6557774,11.1699663 41.1564531,12.2944596 39.5821625,12.444392 C38.5326355,12.5193582 37.4081422,12.2944596 36.5085476,11.6197636 C35.5339868,10.9450677 34.8592909,9.89554063 34.6343922,8.77104738 C34.4094936,7.64655413 34.6343922,6.52206087 35.234122,5.54750005 C35.8338517,4.4230068 36.9583449,3.67334463 38.1578044,3.44844598 Z M38.3077368,4.27307436 C36.5085476,4.64790545 35.1591557,6.52206087 35.4590206,8.3962163 C35.608953,9.37077712 36.0587503,10.1954055 36.8833787,10.7951352 C37.7080071,11.5447974 38.9824328,11.7696961 40.1069261,11.4698312 C40.781622,11.2449325 41.456318,10.8701015 41.9061153,10.3453379 C42.5808112,9.67064198 42.8806761,8.69608116 42.8806761,7.72152034 C42.8057099,6.44709466 42.0560477,5.24763518 40.9315544,4.64790545 C40.1069261,4.19810815 39.1323652,4.12314193 38.3077368,4.27307436 Z" id="Shape" fill-rule="nonzero"></path>
                <path d="M45.2046288,3.67334463 C45.4295275,3.44844598 45.8043585,3.5234122 46.1042234,3.59837841 L46.1042234,11.8446623 C46.1042234,12.2194934 45.5794599,11.9945947 45.3545612,12.0695609 C45.279595,12.0695609 45.2046288,11.9945947 45.2046288,11.9196285 C45.2046288,9.22084468 45.1296626,6.44709466 45.2046288,3.67334463 Z" id="Path"></path>
            </g>
            <g id="Group" transform="translate(0.402162, 0.149756)">
                <path d="M7.13728518,0.2503814 L8.4349734,2.56768178 C6.024981,3.77267798 4.35652472,6.08997837 4.35652472,8.77804682 L12.142654,8.77804682 L19.9287833,8.77804682 C19.9287833,6.08997837 18.260327,3.77267798 15.8503346,2.56768178 L17.1480228,0.2503814 C17.1480228,0.2503814 17.2407149,0.157689385 17.0553308,0.0649973692 C16.9626388,-0.0276946462 16.8699468,0.157689385 16.8699468,0.157689385 L15.4795666,2.47498977 C14.4599544,2.01152969 13.2549582,1.73345365 12.049962,1.73345365 C10.8449658,1.73345365 9.6399696,2.01152969 8.62035743,2.47498977 L7.2299772,0.157689385 C7.2299772,0.157689385 7.13728518,0.0649973692 7.04459317,0.0649973692 C7.04459317,0.157689385 7.13728518,0.2503814 7.13728518,0.2503814 Z M8.4349734,4.79229015 C8.80574146,4.79229015 9.17650952,5.16305822 9.17650952,5.53382628 C9.17650952,5.90459434 8.80574146,6.2753624 8.4349734,6.2753624 C8.06420534,6.2753624 7.69343728,5.99728635 7.69343728,5.53382628 C7.69343728,5.0703662 8.06420534,4.79229015 8.4349734,4.79229015 Z M15.8503346,4.79229015 C16.2211027,4.79229015 16.5918708,5.16305822 16.5918708,5.53382628 C16.5918708,5.90459434 16.2211027,6.2753624 15.8503346,6.2753624 C15.4795666,6.2753624 15.1087985,5.99728635 15.1087985,5.53382628 C15.1087985,5.0703662 15.4795666,4.79229015 15.8503346,4.79229015 Z" id="Shape" fill-rule="nonzero"></path>
                <path d="M4.26383271,9.70496697 L4.26383271,21.5695449 C4.26383271,22.125697 5.00536883,22.9599252 5.56152092,22.9599252 L7.41536123,22.9599252 L7.41536123,27.0383738 C7.41536123,28.057986 8.15689735,28.8922142 9.08381751,28.8922142 C10.0107377,28.8922142 10.7522738,28.057986 10.7522738,27.0383738 L10.7522738,22.9599252 L13.4403422,22.9599252 L13.4403422,27.0383738 C13.4403422,28.057986 14.1818784,28.8922142 15.1087985,28.8922142 C16.0357187,28.8922142 16.7772548,28.057986 16.7772548,27.0383738 L16.7772548,22.9599252 L18.6310951,22.9599252 C19.1872472,22.9599252 19.9287833,22.218389 19.9287833,21.5695449 L19.9287833,9.70496697 L4.26383271,9.70496697 Z" id="Path"></path>
                <path d="M1.66845628,9.42689092 C2.59537643,9.42689092 3.33691255,10.2611191 3.33691255,11.2807312 L3.33691255,18.3253244 C3.33691255,19.3449366 2.59537643,20.1791647 1.66845628,20.1791647 C0.741536123,20.1791647 0,19.3449366 0,18.3253244 L0,11.2807312 C0,10.2611191 0.741536123,9.42689092 1.66845628,9.42689092 Z" id="Path"></path>
                <path d="M22.6168518,9.42689092 C23.5437719,9.42689092 24.285308,10.2611191 24.285308,11.2807312 L24.285308,18.3253244 C24.285308,19.3449366 23.5437719,20.1791647 22.6168518,20.1791647 C21.6899316,20.1791647 20.9483955,19.3449366 20.9483955,18.3253244 L20.9483955,11.2807312 C20.9483955,10.2611191 21.6899316,9.42689092 22.6168518,9.42689092 Z" id="Path"></path>
            </g>
        </g>
    </g>
</svg>