<?xml version="1.0" encoding="UTF-8"?>
<svg width="35px" height="40px" viewBox="0 0 35 40" version="1.1" xmlns="http://www.w3.org/2000/svg" xmlns:xlink="http://www.w3.org/1999/xlink">
    <!-- Generator: Sketch 52.5 (67469) - http://www.bohemiancoding.com/sketch -->
    <title>android-logo</title>
    <desc>Created with Sketch.</desc>
    <g id="Page-1" stroke="none" stroke-width="1" fill="none" fill-rule="evenodd">
        <g id="android-logo" fill="#B9B9C3">
            <path d="M2.49335968,13.0209486 L2.39106719,13.0209486 C1.07976285,13.0209486 0.0105928854,14.0935178 0.0105928854,15.4014229 L0.0105928854,25.7656126 C0.0105928854,27.0786561 1.07976285,28.147747 2.39106719,28.147747 L2.49509881,28.147747 C3.80640316,28.147747 4.87557312,27.0751779 4.87557312,25.7656126 L4.87557312,15.4013439 C4.87383399,14.0935178 3.80300395,13.0209486 2.49335968,13.0209486 Z" id="Path"></path>
            <path d="M6.01462451,29.7660079 C6.01462451,30.9698814 6.99849802,31.9503557 8.20237154,31.9503557 L10.5402372,31.9503557 L10.5402372,37.5485375 C10.5402372,38.8632411 11.6128063,39.9324111 12.9207115,39.9324111 L13.023004,39.9324111 C14.3360474,39.9324111 15.4068775,38.861581 15.4068775,37.5485375 L15.4068775,31.9503557 L18.6740711,31.9503557 L18.6740711,37.5485375 C18.6740711,38.8632411 19.7500395,39.9324111 21.0579447,39.9324111 L21.1585771,39.9324111 C22.4715415,39.9324111 23.5407115,38.861581 23.5407115,37.5485375 L23.5407115,31.9503557 L25.8802372,31.9503557 C27.0823715,31.9503557 28.0663241,30.9698814 28.0663241,29.7660079 L28.0663241,13.4011858 L6.01462451,13.4011858 L6.01462451,29.7660079 Z" id="Path"></path>
            <path d="M22.5328854,3.476917 L24.3898814,0.610513834 C24.509249,0.42972332 24.4563636,0.182529644 24.273913,0.0648221344 C24.0932016,-0.0545454545 23.8459289,-0.00505928854 23.7282213,0.180790514 L21.803083,3.14616601 C20.3588142,2.5544664 18.7456917,2.22197628 17.0421344,2.22197628 C15.336917,2.22197628 13.7271937,2.5544664 12.2795257,3.14616601 L10.3577866,0.180790514 C10.2401581,-0.00505928854 9.99114625,-0.0545454545 9.80869565,0.0648221344 C9.62624506,0.182450593 9.57335968,0.42972332 9.69272727,0.610513834 L11.5513834,3.476917 C8.20063241,5.11905138 5.94126482,8.21399209 5.94126482,11.7641897 C5.94126482,11.9824506 5.95494071,12.1973123 5.97367589,12.4104348 L28.112253,12.4104348 C28.1309881,12.1973123 28.1429249,11.9824506 28.1429249,11.7641897 C28.143004,8.21399209 25.8818972,5.11905138 22.5328854,3.476917 Z M11.9094862,8.60956522 C11.3211858,8.60956522 10.8437154,8.13549407 10.8437154,7.5455336 C10.8437154,6.95557312 11.3211858,6.48316206 11.9094862,6.48316206 C12.5011858,6.48316206 12.9752569,6.95549407 12.9752569,7.5455336 C12.9752569,8.13557312 12.4977866,8.60956522 11.9094862,8.60956522 Z M22.1731225,8.60956522 C21.5848221,8.60956522 21.1073518,8.13549407 21.1073518,7.5455336 C21.1073518,6.95557312 21.5848221,6.48316206 22.1731225,6.48316206 C22.763083,6.48316206 23.2371542,6.95549407 23.2371542,7.5455336 C23.2371542,8.13549407 22.763083,8.60956522 22.1731225,8.60956522 Z" id="Shape" fill-rule="nonzero"></path>
            <path d="M31.6898024,13.0209486 L31.5909091,13.0209486 C30.2796047,13.0209486 29.2070356,14.0935178 29.2070356,15.4014229 L29.2070356,25.7656126 C29.2070356,27.0786561 30.2813439,28.147747 31.5909091,28.147747 L31.6915415,28.147747 C33.0045059,28.147747 34.0720158,27.0751779 34.0720158,25.7656126 L34.0720158,15.4013439 C34.0720158,14.0935178 33.0011067,13.0209486 31.6898024,13.0209486 Z" id="Path"></path>
        </g>
    </g>
</svg>