<?xml version="1.0" encoding="UTF-8"?>
<svg width="34px" height="40px" viewBox="0 0 34 40" version="1.1" xmlns="http://www.w3.org/2000/svg" xmlns:xlink="http://www.w3.org/1999/xlink">
    <!-- Generator: Sketch 52.5 (67469) - http://www.bohemiancoding.com/sketch -->
    <title>apple-img</title>
    <desc>Created with Sketch.</desc>
    <g id="Page-1" stroke="none" stroke-width="1" fill="none" fill-rule="evenodd">
        <g id="apple-img" fill="#4C4C4C" fill-rule="nonzero">
            <path d="M27.7508423,21.2535733 C27.7003736,16.187875 31.8820883,13.7584243 32.068885,13.6377212 C29.7192779,10.1994433 26.0591251,9.72842813 24.7548295,9.67397506 C21.6399106,9.35858474 18.6768666,11.5078795 17.0960088,11.5078795 C15.5191353,11.5078795 13.0796845,9.72061564 10.4963276,9.76756872 C7.10117464,9.81803742 3.97063078,11.7417074 2.22242934,14.7824076 C-1.30506726,20.9034955 1.31907084,29.9714555 4.75719253,34.9357476 C6.43719091,37.3657453 8.44047023,40.0949614 11.0707021,39.9974615 C13.6035903,39.8963678 14.5614018,38.3584787 17.6236645,38.3584787 C20.6858491,38.3584787 21.5467076,39.9974615 24.2270957,39.947149 C26.952718,39.8965241 28.6795132,37.470667 30.3479491,35.0332475 C32.277166,32.2141877 33.0715403,29.4848935 33.1184152,29.3448155 C33.0578684,29.3171593 27.8034985,27.3042706 27.7508423,21.2535733 Z M22.7142846,6.38757197 C24.1102989,4.69390173 25.0525636,2.34413837 24.7955326,0 C22.7846752,0.0818749212 20.3472556,1.33945184 18.9045227,3.02929396 C17.6099926,4.52835501 16.4767906,6.92093084 16.7804622,9.21819425 C19.0253038,9.39335033 21.316786,8.0774141 22.7142846,6.38757197 Z" id="Shape"></path>
        </g>
    </g>
</svg>