<?xml version="1.0" encoding="UTF-8"?>
<svg width="33px" height="40px" viewBox="0 0 33 40" version="1.1" xmlns="http://www.w3.org/2000/svg" xmlns:xlink="http://www.w3.org/1999/xlink">
    <!-- Generator: Sketch 52.5 (67469) - http://www.bohemiancoding.com/sketch -->
    <title>apple-img-disabled</title>
    <desc>Created with Sketch.</desc>
    <g id="Page-1" stroke="none" stroke-width="1" fill="none" fill-rule="evenodd">
        <path d="M27.2031205,21.2535733 C27.1526518,16.187875 31.3343666,13.7584243 31.5211633,13.6377212 C29.1715562,10.1994433 25.5114034,9.72842813 24.2071078,9.67397506 C21.0921889,9.35858474 18.1291449,11.5078795 16.5482871,11.5078795 C14.9714136,11.5078795 12.5319628,9.72061564 9.94860591,9.76756872 C6.55345293,9.81803742 3.42290907,11.7417074 1.67470763,14.7824076 C-1.85278897,20.9034955 0.771349123,29.9714555 4.20947081,34.9357476 C5.8894692,37.3657453 7.89274852,40.0949614 10.5229804,39.9974615 C13.0558685,39.8963678 14.0136801,38.3584787 17.0759428,38.3584787 C20.1381273,38.3584787 20.9989859,39.9974615 23.6793739,39.947149 C26.4049963,39.8965241 28.1317915,37.470667 29.8002274,35.0332475 C31.7294443,32.2141877 32.5238185,29.4848935 32.5706935,29.3448155 C32.5101467,29.3171593 27.2557767,27.3042706 27.2031205,21.2535733 Z M22.1665629,6.38757197 C23.5625772,4.69390173 24.5048419,2.34413837 24.2478109,0 C22.2369535,0.0818749212 19.7995339,1.33945184 18.3568009,3.02929396 C17.0622709,4.52835501 15.9290689,6.92093084 16.2327405,9.21819425 C18.4775821,9.39335033 20.7690642,8.0774141 22.1665629,6.38757197 Z" id="apple-img-disabled" fill="#B9B9C3" fill-rule="nonzero"></path>
    </g>
</svg>