<?xml version="1.0" encoding="UTF-8"?>
<svg width="1104px" height="737px" viewBox="0 0 1104 737" version="1.1" xmlns="http://www.w3.org/2000/svg" xmlns:xlink="http://www.w3.org/1999/xlink">
    <!-- Generator: Sketch 52.5 (67469) - http://www.bohemiancoding.com/sketch -->
    <title>downloads-bubble</title>
    <desc>Created with Sketch.</desc>
    <g id="Page-1" stroke="none" stroke-width="1" fill="none" fill-rule="evenodd">
        <g id="Downloads" transform="translate(-147.000000, -304.000000)" fill="#E9E9F3" fill-rule="nonzero">
            <g id="downloads-bubble" transform="translate(692.721404, 637.264225) rotate(-8.000000) translate(-692.721404, -637.264225) translate(130.221404, 267.264225)">
                <path d="M121.915232,48.0108735 C122.060079,47.3264951 285.463631,-17.8883005 354.265827,6.1147852 C423.068023,30.1178709 602.888521,133.484901 707.47656,159.433789 C812.064598,185.382678 1095.8991,329.059602 1098.61094,385.597833 C1101.32277,442.136065 1040.38146,597.712453 988.106109,635.056233 C935.83076,672.400012 817.986365,688.439018 769.730203,701.360409 C721.474042,714.2818 239.220485,721.256116 113.250124,653.837062 C29.269883,608.891027 -7.71413436,554.358836 2.2980717,490.24049 C81.9462802,195.876998 121.818667,48.4671257 121.915232,48.0108735 Z" id="Path-8" fill-opacity="0.4"></path>
                <path d="M65.4053949,144.579263 C65.3326481,143.886951 202.996289,45.657395 276.958211,54.007305 C350.920133,62.3572151 556.857278,123.429928 666.012619,125.942815 C775.167961,128.455702 1094.16992,206.037153 1114.36666,260.065726 C1134.5634,314.094298 1124.02394,477.514844 1085.10638,524.859464 C1046.18882,572.204085 937.273124,613.10807 894.648267,635.99512 C852.023411,658.88217 388.07285,769.608421 245.359048,731.647978 C150.216514,706.341015 97.5178529,661.640371 87.2630656,597.546043 C72.7397829,296.029731 65.4538927,145.040804 65.4053949,144.579263 Z" id="Path-8" fill-opacity="0.5"></path>
                <path d="M57.2035798,91.3654367 C89.4881211,22.1929523 204.551885,3.00103783 277.321775,16.6559575 C350.091666,30.3108772 548.752453,105.927128 657.174953,116.328337 C765.597452,126.729545 1075.10906,226.94172 1089.56608,282.107596 C1104.0231,337.273471 1076.43104,498.94772 1032.72756,543.18966 C989.024091,587.431599 876.297685,620.203407 831.461763,639.866491 C786.625842,659.529575 313.087855,735.997125 174.960091,687.931808 C82.8749154,655.888263 35.0799616,607.64088 31.57523,543.18966 C27.137769,288.088501 35.6805522,137.480426 57.2035798,91.3654367 Z" id="Path-8" fill-opacity="0.6"></path>
            </g>
        </g>
    </g>
</svg>