<?xml version="1.0" encoding="UTF-8"?>
<svg width="151px" height="129px" viewBox="0 0 151 129" version="1.1" xmlns="http://www.w3.org/2000/svg" xmlns:xlink="http://www.w3.org/1999/xlink">
    <!-- Generator: Sketch 52.5 (67469) - http://www.bohemiancoding.com/sketch -->
    <title>Group 4</title>
    <desc>Created with Sketch.</desc>
    <defs>
        <linearGradient x1="98.3483333%" y1="50%" x2="1.66666667%" y2="50%" id="linearGradient-1">
            <stop stop-color="#F74E7B" offset="0%"></stop>
            <stop stop-color="#F77633" offset="100%"></stop>
        </linearGradient>
    </defs>
    <g id="Page-1" stroke="none" stroke-width="1" fill="none" fill-rule="evenodd">
        <g id="Landing-Page" transform="translate(-454.000000, -942.000000)" fill-rule="nonzero">
            <g id="features" transform="translate(0.000000, 769.000000)">
                <g id="blocker-card" transform="translate(378.000000, 120.000000)">
                    <g id="Group-4" transform="translate(55.000000, 38.000000)">
                        <path d="M38.2530168,108.680695 C19.383755,56.6806954 8.73140603,45.1806954 50.6385201,31.1806954 C92.5456342,17.1806954 143.544609,13.9034581 158.044609,50.9034581 C172.544609,87.9034581 138.609221,114.403458 133.149978,114.403458 C127.690735,114.403458 57.1222785,160.680695 38.2530168,108.680695 Z" id="Path-5" fill-opacity="0.5" fill="#E9E9F3"></path>
                        <path d="M30.9251256,109.054883 C12.0558638,57.0548832 1.40351482,45.5548832 43.3106289,31.5548832 C85.217743,17.5548832 149.989689,10.5548832 164.489689,47.5548832 C178.989689,84.5548832 139.328261,73.7776459 139.328261,101.277646 C139.328261,128.777646 49.7943873,161.054883 30.9251256,109.054883 Z" id="Path-5-Copy" fill-opacity="0.5" fill="#E9E9F3" transform="translate(91.000000, 78.500000) rotate(163.000000) translate(-91.000000, -78.500000) "></path>
                        <polygon id="blocker-icon-bg" fill="#FFFFFF" points="57.5 90.7273404 57 106 53 106 52.5 111.5 68.5 112 68.5 107 63 106.5 63 90.7273404 118.5 90.6808795 118.5 106 113.5 106.5 114 111.5 130 111.5 129.5 106.5 124.5 106.5 124.5 90.6808795 129.5 90.6808795 129.5 75 125 74.5 124 66.5 129.5 65.6808795 130 50.6808795 124.5 50.6808795 124 45.5 119 45.5 119 50.6808795 63 50.6808795 63 45.5 58 45.5 57.5 50 52 50.6808795 52.5 66.5 57.5 67 57.5 74 53 74.5 52.5 90"></polygon>
                        <g id="blocker-icon" transform="translate(51.000000, 44.000000)" fill="url(#linearGradient-1)">
                            <path d="M78.6666667,5.30769231 L74.6666667,5.30769231 L74.6666667,1.32692308 C74.6666667,0.59413495 74.0696615,0 73.3333333,0 L68,0 C67.2636718,0 66.6666667,0.59413495 66.6666667,1.32692308 L66.6666667,5.30769231 L13.3333333,5.30769231 L13.3333333,1.32692308 C13.3333333,0.59413495 12.7363282,0 12,0 L6.66666667,0 C5.9303385,0 5.33333333,0.59413495 5.33333333,1.32692308 L5.33333333,5.30769231 L1.33333333,5.30769231 C1.313151,5.30769231 1.13867183,5.3329609 1.06640633,5.34721488 C1.00390633,5.35758146 0.941406333,5.37313134 0.881510333,5.39386452 C0.861328167,5.40034372 0.748046833,5.45347239 0.712239667,5.47355769 C0.651692667,5.50400958 0.59375,5.53834886 0.5384115,5.57722356 C0.440755167,5.65562083 0.3509115,5.74503272 0.272135333,5.84221938 C0.205078167,5.95301232 0.143229167,6.06704477 0.0878906667,6.18366887 C0.0670573333,6.24586839 0.0514323333,6.31001169 0.0397135,6.37480285 C0.0253906667,6.4434814 8.32667268e-17,6.61323434 8.32667268e-17,6.63461538 L8.32667268e-17,22.5576923 C8.32667268e-17,23.2904804 0.597005167,23.8846154 1.33333333,23.8846154 L5.33333333,23.8846154 L5.33333333,29.1923077 L1.33333333,29.1923077 C1.313151,29.1923077 1.13867183,29.2175763 1.06640633,29.2305345 C1.00325517,29.2421968 0.940755167,29.2577467 0.880208333,29.2784799 C0.860026,29.2784799 0.746744833,29.3380878 0.7109375,29.3581731 C0.650390667,29.388625 0.592448,29.4229642 0.537109333,29.4618389 C0.439453167,29.5402362 0.349609333,29.6296481 0.270833333,29.7268348 C0.231770833,29.7819074 0.197265667,29.8395715 0.166666667,29.8998272 C0.146484333,29.9367581 0.093099,30.048199 0.0865885,30.0682843 C0.0657551667,30.1304838 0.0501301667,30.1946271 0.0384115,30.2594182 C0.0253906667,30.3280968 0,30.4978497 0,30.5192308 L0,46.4423077 C0,47.1750958 0.597005167,47.7692308 1.33333333,47.7692308 L5.33333333,47.7692308 L5.33333333,61.0384615 L1.33333333,61.0384615 C0.597005167,61.0384615 4.16333634e-17,61.6325965 4.16333634e-17,62.3653846 L4.16333634e-17,67.6730769 C4.16333634e-17,68.4058651 0.597005167,69 1.33333333,69 L17.3333333,69 C18.0696615,69 18.6666667,68.4058651 18.6666667,67.6730769 L18.6666667,62.3653846 C18.6666667,61.6325965 18.0696615,61.0384615 17.3333333,61.0384615 L13.3333333,61.0384615 L13.3333333,47.7692308 L66.6666667,47.7692308 L66.6666667,61.0384615 L62.6666667,61.0384615 C61.9303385,61.0384615 61.3333333,61.6325965 61.3333333,62.3653846 L61.3333333,67.6730769 C61.3333333,68.4058651 61.9303385,69 62.6666667,69 L78.6666667,69 C79.4029948,69 80,68.4058651 80,67.6730769 L80,62.3653846 C80,61.6325965 79.4029948,61.0384615 78.6666667,61.0384615 L74.6666667,61.0384615 L74.6666667,47.7692308 L78.6666667,47.7692308 C78.8242187,47.7666391 78.9804687,47.7355394 79.1269532,47.6778753 C79.1438802,47.6778753 79.2480468,47.6234507 79.2851563,47.6033654 C79.3457032,47.5729135 79.4036458,47.5385742 79.4589843,47.4996995 C79.5566407,47.4213023 79.6464843,47.3318904 79.7252603,47.2347037 C79.764323,47.1796311 79.7988282,47.121967 79.829427,47.0617112 C79.8496093,47.0247803 79.9023437,46.9133395 79.9095052,46.8932542 C79.9303385,46.8310547 79.9459635,46.7669114 79.9570313,46.7021202 C79.9707032,46.6373291 79.9960937,46.4675763 79.9960937,46.4461952 L79.9960937,30.5192308 C79.9960937,29.7864426 79.3990885,29.1923077 78.6627603,29.1923077 L74.6666667,29.1923077 L74.6666667,23.8846154 L78.6666667,23.8846154 C78.8242187,23.8820237 78.9804687,23.850924 79.1269532,23.7932599 C79.1438802,23.7932599 79.2480468,23.7388353 79.2851563,23.71875 C79.3457032,23.6882981 79.4036458,23.6539588 79.4589843,23.6150841 C79.5566407,23.5366869 79.6464843,23.447275 79.7252603,23.3500883 C79.7871093,23.2593807 79.843099,23.1660814 79.8945313,23.0701905 C79.9023437,23.0501052 79.9440103,22.882944 79.9570313,22.8175048 C79.9707032,22.7527137 80,22.5790734 80,22.5576923 L80,6.63461538 C80,5.90182726 79.4029948,5.30769231 78.6666667,5.30769231 Z M69.3333333,2.65384615 L72,2.65384615 L72,5.30769231 L69.3333333,5.30769231 L69.3333333,2.65384615 Z M77.3333333,7.96153846 L77.3333333,19.3544171 L65.8854167,7.96153846 L77.3333333,7.96153846 Z M51.4479167,7.96153846 L64.78125,21.2307692 L53.8854167,21.2307692 L40.5520833,7.96153846 L51.4479167,7.96153846 Z M13.3333333,29.1923077 L13.3333333,23.8846154 L66.6666667,23.8846154 L66.6666667,29.1923077 L13.3333333,29.1923077 Z M36.78125,7.96153846 L50.1145833,21.2307692 L43.21875,21.2307692 L29.8854167,7.96153846 L36.78125,7.96153846 Z M26.1145833,7.96153846 L39.4479167,21.2307692 L28.5520833,21.2307692 L15.21875,7.96153846 L26.1145833,7.96153846 Z M8,2.65384615 L10.6666667,2.65384615 L10.6666667,5.30769231 L8,5.30769231 L8,2.65384615 Z M11.4479167,7.96153846 L24.78125,21.2307692 L17.8854167,21.2307692 L4.55208333,7.96153846 L11.4479167,7.96153846 Z M2.66666667,9.83789062 L14.1145833,21.2307692 L2.66666667,21.2307692 L2.66666667,9.83789062 Z M8,23.8846154 L10.6666667,23.8846154 L10.6666667,29.1923077 L8,29.1923077 L8,23.8846154 Z M16,66.3461538 L2.66666667,66.3461538 L2.66666667,63.6923077 L16,63.6923077 L16,66.3461538 Z M10.6666667,61.0384615 L8,61.0384615 L8,47.7692308 L10.6666667,47.7692308 L10.6666667,61.0384615 Z M2.66666667,45.1153846 L2.66666667,33.722506 L14.1145833,45.1153846 L2.66666667,45.1153846 Z M17.8854167,45.1153846 L4.55208333,31.8461538 L11.4479167,31.8461538 L24.78125,45.1153846 L17.8854167,45.1153846 Z M28.5520833,45.1153846 L15.21875,31.8461538 L26.1145833,31.8461538 L39.4479167,45.1153846 L28.5520833,45.1153846 Z M43.21875,45.1153846 L29.8854167,31.8461538 L36.78125,31.8461538 L50.1145833,45.1153846 L43.21875,45.1153846 Z M53.8854167,45.1153846 L40.5520833,31.8461538 L51.4479167,31.8461538 L64.78125,45.1153846 L53.8854167,45.1153846 Z M77.3333333,66.3461538 L64,66.3461538 L64,63.6923077 L77.3333333,63.6923077 L77.3333333,66.3461538 Z M72,61.0384615 L69.3333333,61.0384615 L69.3333333,47.7692308 L72,47.7692308 L72,61.0384615 Z M68.5520833,45.1153846 L55.21875,31.8461538 L62.1145833,31.8461538 L75.4479167,45.1153846 L68.5520833,45.1153846 Z M77.3333333,43.2390325 L65.8854167,31.8461538 L77.3333333,31.8461538 L77.3333333,43.2390325 Z M72,29.1923077 L69.3333333,29.1923077 L69.3333333,23.8846154 L72,23.8846154 L72,29.1923077 Z M68.5520833,21.2307692 L55.21875,7.96153846 L62.1145833,7.96153846 L75.4479167,21.2307692 L68.5520833,21.2307692 Z" id="Shape"></path>
                        </g>
                    </g>
                </g>
            </g>
        </g>
    </g>
</svg>