<?xml version="1.0" encoding="UTF-8"?>
<svg width="531px" height="112px" viewBox="0 0 531 112" version="1.1" xmlns="http://www.w3.org/2000/svg" xmlns:xlink="http://www.w3.org/1999/xlink">
    <!-- Generator: Sketch 52.6 (67491) - http://www.bohemiancoding.com/sketch -->
    <title>boardme-blue</title>
    <desc>Created with Sketch.</desc>
    <g id="boardme-logo" stroke="none" stroke-width="1" fill="none" fill-rule="evenodd">
        <g id="Rasterized" transform="translate(-309.000000, -204.000000)">
            <g id="boardme-blue" transform="translate(309.000000, 204.000000)">
                <path d="M148.54701,34.4246605 C152.878323,34.4246605 156.819758,35.4208474 160.371435,37.4132512 C163.923111,39.405655 166.709547,42.2065285 168.730826,45.8159556 C170.752105,49.4253828 171.76273,53.626693 171.76273,58.4200123 C171.76273,63.2133315 170.752105,67.4146417 168.730826,71.0240689 C166.709547,74.633496 163.923111,77.4343695 160.371435,79.4267733 C156.819758,81.4191771 152.878323,82.415364 148.54701,82.415364 C142.136668,82.415364 137.256795,80.3941151 133.907247,76.3515567 L133.907247,81.7223575 L121,81.7223575 L121,17.446 L134.513628,17.446 L134.513628,40.0553387 C137.920927,36.3015344 142.598674,34.4246605 148.54701,34.4246605 Z M146.208113,71.3272592 C149.673163,71.3272592 152.517349,70.1578224 154.740756,67.8189136 C156.964164,65.4800048 158.07585,62.347069 158.07585,58.4200123 C158.07585,54.4929555 156.964164,51.3600197 154.740756,49.0211109 C152.517349,46.6822021 149.673163,45.5127653 146.208113,45.5127653 C142.743063,45.5127653 139.898877,46.6822021 137.67547,49.0211109 C135.452063,51.3600197 134.340376,54.4929555 134.340376,58.4200123 C134.340376,62.347069 135.452063,65.4800048 137.67547,67.8189136 C139.898877,70.1578224 142.743063,71.3272592 146.208113,71.3272592 Z M202.948025,82.415364 C198.039204,82.415364 193.635768,81.3903021 189.737587,79.3401475 C185.839406,77.2899928 182.793095,74.4458069 180.598563,70.8075043 C178.404032,67.1692018 177.306782,63.040079 177.306782,58.4200123 C177.306782,53.7999455 178.404032,49.6708228 180.598563,46.0325202 C182.793095,42.3942176 185.839406,39.5500317 189.737587,37.499877 C193.635768,35.4497224 198.039204,34.4246605 202.948025,34.4246605 C207.856845,34.4246605 212.245843,35.4497224 216.115149,37.499877 C219.984455,39.5500317 223.016328,42.3942176 225.21086,46.0325202 C227.405392,49.6708228 228.502641,53.7999455 228.502641,58.4200123 C228.502641,63.040079 227.405392,67.1692018 225.21086,70.8075043 C223.016328,74.4458069 219.984455,77.2899928 216.115149,79.3401475 C212.245843,81.3903021 207.856845,82.415364 202.948025,82.415364 Z M202.948025,71.3272592 C206.413075,71.3272592 209.257261,70.1578224 211.480668,67.8189136 C213.704075,65.4800048 214.815762,62.347069 214.815762,58.4200123 C214.815762,54.4929555 213.704075,51.3600197 211.480668,49.0211109 C209.257261,46.6822021 206.413075,45.5127653 202.948025,45.5127653 C199.482974,45.5127653 196.624351,46.6822021 194.372068,49.0211109 C192.119786,51.3600197 190.993662,54.4929555 190.993662,58.4200123 C190.993662,62.347069 192.119786,65.4800048 194.372068,67.8189136 C196.624351,70.1578224 199.482974,71.3272592 202.948025,71.3272592 Z M284.809423,35.117667 L284.809423,81.7223575 L271.902176,81.7223575 L271.902176,76.3515567 C268.552628,80.3941151 263.70163,82.415364 257.349039,82.415364 C252.959975,82.415364 248.989665,81.4336146 245.437989,79.4700862 C241.886312,77.5065578 239.099876,74.7056844 237.078597,71.0673818 C235.057318,67.4290792 234.046693,63.2133315 234.046693,58.4200123 C234.046693,53.626693 235.057318,49.4109453 237.078597,45.7726427 C239.099876,42.1343401 241.886312,39.3334667 245.437989,37.3699383 C248.989665,35.4064099 252.959975,34.4246605 257.349039,34.4246605 C263.297375,34.4246605 267.946247,36.3015344 271.295795,40.0553387 L271.295795,35.117667 L284.809423,35.117667 Z M259.687936,71.3272592 C263.095235,71.3272592 265.924983,70.1578224 268.177266,67.8189136 C270.429549,65.4800048 271.555673,62.347069 271.555673,58.4200123 C271.555673,54.4929555 270.429549,51.3600197 268.177266,49.0211109 C265.924983,46.6822021 263.095235,45.5127653 259.687936,45.5127653 C256.222886,45.5127653 253.364262,46.6822021 251.11198,49.0211109 C248.859697,51.3600197 247.733573,54.4929555 247.733573,58.4200123 C247.733573,62.347069 248.859697,65.4800048 251.11198,67.8189136 C253.364262,70.1578224 256.222886,71.3272592 259.687936,71.3272592 Z M310.190788,41.2681001 C311.807811,39.0158176 313.987873,37.3121935 316.731037,36.1571768 C319.474202,35.0021602 322.636013,34.4246605 326.216565,34.4246605 L326.216565,46.8987784 C324.715043,46.7832767 323.704418,46.7255267 323.184661,46.7255267 C319.315355,46.7255267 316.283482,47.8083386 314.08895,49.9739949 C311.894418,52.1396512 310.797169,55.3880869 310.797169,59.7193995 L310.797169,81.7223575 L297.283541,81.7223575 L297.283541,35.117667 L310.190788,35.117667 L310.190788,41.2681001 Z M382.090218,17.446 L382.090218,81.7223575 L369.182971,81.7223575 L369.182971,76.3515567 C365.833422,80.3941151 360.982425,82.415364 354.629833,82.415364 C350.24077,82.415364 346.270459,81.4336146 342.718783,79.4700862 C339.167107,77.5065578 336.380671,74.7056844 334.359392,71.0673818 C332.338112,67.4290792 331.327488,63.2133315 331.327488,58.4200123 C331.327488,53.626693 332.338112,49.4109453 334.359392,45.7726427 C336.380671,42.1343401 339.167107,39.3334667 342.718783,37.3699383 C346.270459,35.4064099 350.24077,34.4246605 354.629833,34.4246605 C360.578169,34.4246605 365.227041,36.3015344 368.57659,40.0553387 L368.57659,17.446 L382.090218,17.446 Z M356.96873,71.3272592 C360.376029,71.3272592 363.205778,70.1578224 365.45806,67.8189136 C367.710343,65.4800048 368.836467,62.347069 368.836467,58.4200123 C368.836467,54.4929555 367.710343,51.3600197 365.45806,49.0211109 C363.205778,46.6822021 360.376029,45.5127653 356.96873,45.5127653 C353.50368,45.5127653 350.645057,46.6822021 348.392774,49.0211109 C346.140492,51.3600197 345.014367,54.4929555 345.014367,58.4200123 C345.014367,62.347069 346.140492,65.4800048 348.392774,67.8189136 C350.645057,70.1578224 353.50368,71.3272592 356.96873,71.3272592 Z M454.249525,34.4246605 C460.082359,34.4246605 464.716794,36.142722 468.152969,39.5788967 C471.589143,43.0150713 473.307205,48.169256 473.307205,55.0416053 L473.307205,81.7223575 L459.793577,81.7223575 L459.793577,57.120625 C459.793577,53.4245716 459.02839,50.6670106 457.497993,48.8478593 C455.967596,47.028708 453.787534,46.119146 450.957744,46.119146 C447.781448,46.119146 445.269324,47.1442079 443.421297,49.1943626 C441.573271,51.2445172 440.649271,54.290828 440.649271,58.3333864 L440.649271,81.7223575 L427.135643,81.7223575 L427.135643,57.120625 C427.135643,49.786269 424.190395,46.119146 418.29981,46.119146 C415.181265,46.119146 412.698016,47.1442079 410.849989,49.1943626 C409.001963,51.2445172 408.077963,54.290828 408.077963,58.3333864 L408.077963,81.7223575 L394.564336,81.7223575 L394.564336,35.117667 L407.471583,35.117667 L407.471583,40.4884678 C409.204108,38.5249394 411.326419,37.0234402 413.83858,35.9839252 C416.350741,34.9444102 419.108302,34.4246605 422.111346,34.4246605 C425.403143,34.4246605 428.377267,35.0743476 431.033805,36.3737414 C433.690344,37.6731352 435.827092,39.5644466 437.444116,42.0477325 C439.349893,39.6221975 441.760955,37.7453235 444.677372,36.4170543 C447.593789,35.0887851 450.784475,34.4246605 454.249525,34.4246605 Z M508.910416,71.5871367 C511.335951,71.5871367 513.487138,71.2261994 515.36404,70.504314 C517.240942,69.7824285 518.987878,68.6418667 520.604902,67.0825941 L527.794845,74.8789178 C523.405781,79.9032404 516.995535,82.415364 508.563913,82.415364 C503.308587,82.415364 498.659715,81.3903021 494.617156,79.3401475 C490.574598,77.2899928 487.456099,74.4458069 485.261568,70.8075043 C483.067036,67.1692018 481.969787,63.040079 481.969787,58.4200123 C481.969787,53.8576963 483.052599,49.7430111 485.218255,46.0758331 C487.383911,42.4086551 490.358034,39.5500317 494.140714,37.499877 C497.923394,35.4497224 502.182454,34.4246605 506.918022,34.4246605 C511.364837,34.4246605 515.407334,35.3630975 519.045637,37.2399996 C522.68394,39.1169017 525.585876,41.8311502 527.751532,45.3828265 C529.917188,48.9345029 531,53.1358131 531,57.9868832 L496.522924,64.6570712 C497.504688,66.9671046 499.0495,68.6996036 501.157405,69.8546203 C503.265311,71.009637 505.849622,71.5871367 508.910416,71.5871367 Z M506.918022,44.6465071 C503.510723,44.6465071 500.738725,45.7437565 498.601944,47.9382882 C496.465163,50.1328199 495.339039,53.1646932 495.223537,57.0339992 L517.919501,52.6160824 C517.284242,50.1905473 515.984868,48.2559234 514.02134,46.8121525 C512.057811,45.3683817 509.690062,44.6465071 506.918022,44.6465071 Z" id="boardme" fill="#3457DC"></path>
                <path d="M85.5822151,101 L78.1011885,110.901098 C77.4353063,111.782389 76.1810742,111.957013 75.2997827,111.291131 C75.1525837,111.179911 75.0214817,111.048859 74.9102061,110.901702 L67.4228355,101 L4,101 C1.790861,101 2.705415e-16,99.209139 0,97 L0,4 C-2.705415e-16,1.790861 1.790861,5.72492311e-14 4,5.68434189e-14 L97,5.68434189e-14 C99.209139,5.64376066e-14 101,1.790861 101,4 L101,97 C101,99.209139 99.209139,101 97,101 L85.5822151,101 Z M34,78.7241421 C34.8585745,79.2228858 35.7562786,79.6699811 36.6931152,80.0654297 C39.5110004,81.2548888 42.5200035,81.8496094 45.7202148,81.8496094 C48.9487466,81.8496094 51.9719097,81.2690488 54.7897949,80.1079102 C57.6076801,78.9467715 60.0644426,77.3112898 62.1601562,75.201416 C64.2558699,73.0915422 65.9125916,70.5639796 67.1303711,67.6186523 C68.3481506,64.6733251 68.9570312,61.4165217 68.9570312,57.8481445 C68.9570312,54.3647287 68.3481506,51.1574854 67.1303711,48.2263184 C65.9125916,45.2951514 64.2558699,42.7534287 62.1601562,40.6010742 C60.0644426,38.4487197 57.6076801,36.770758 54.7897949,35.5671387 C51.9719097,34.3635194 48.9487466,33.7617188 45.7202148,33.7617188 C44.672358,33.7617188 43.5961969,33.8679189 42.4916992,34.0803223 C41.3872015,34.2927257 40.3181204,34.597166 39.2844238,34.9936523 C38.2507273,35.3901387 37.2878463,35.8998992 36.395752,36.5229492 C35.5036576,37.1459992 34.7460969,37.8539999 34.1230469,38.6469727 L34.1230469,17.4067383 L34,17.4067383 L34,17 L22,17 L22,82 L34,82 L34,78.7241421 Z M57.2749023,57.8481445 C57.2749023,59.6040127 56.970462,61.2324144 56.3615723,62.7333984 C55.7526825,64.2343825 54.9243216,65.5371039 53.8764648,66.6416016 C52.828608,67.7460993 51.6037668,68.6169402 50.2019043,69.2541504 C48.8000418,69.8913606 47.3061603,70.2099609 45.7202148,70.2099609 C44.1342694,70.2099609 42.6403879,69.8913606 41.2385254,69.2541504 C39.8366629,68.6169402 38.6118216,67.7460993 37.5639648,66.6416016 C36.516108,65.5371039 35.6948272,64.2343825 35.1000977,62.7333984 C34.5053681,61.2324144 34.2080078,59.6040127 34.2080078,57.8481445 C34.2080078,56.2621991 34.5053681,54.7258375 35.1000977,53.2390137 C35.6948272,51.7521898 36.516108,50.4353085 37.5639648,49.2883301 C38.6118216,48.1413517 39.8366629,47.2209507 41.2385254,46.5270996 C42.6403879,45.8332485 44.1342694,45.4863281 45.7202148,45.4863281 C47.3061603,45.4863281 48.8000418,45.7978484 50.2019043,46.4208984 C51.6037668,47.0439484 52.828608,47.9077093 53.8764648,49.012207 C54.9243216,50.1167047 55.7526825,51.4265061 56.3615723,52.9416504 C56.970462,54.4567947 57.2749023,56.0922764 57.2749023,57.8481445 Z M74,85 C77.3137085,85 80,82.3137085 80,79 C80,75.6862915 77.3137085,73 74,73 C70.6862915,73 68,75.6862915 68,79 C68,82.3137085 70.6862915,85 74,85 Z" id="Combined-Shape" fill="#3457DC" fill-rule="nonzero"></path>
                <g id="Group" transform="translate(22.000000, 17.000000)"></g>
            </g>
        </g>
    </g>
</svg>