<?xml version="1.0" encoding="UTF-8"?>
<svg width="45px" height="45px" viewBox="0 0 45 45" version="1.1" xmlns="http://www.w3.org/2000/svg" xmlns:xlink="http://www.w3.org/1999/xlink">
    <!-- Generator: Sketch 52.5 (67469) - http://www.bohemiancoding.com/sketch -->
    <title>close-icon</title>
    <desc>Created with Sketch.</desc>
    <g id="Page-1" stroke="none" stroke-width="1" fill="none" fill-rule="evenodd" opacity="0.45">
        <g id="Menu-Mobile" transform="translate(-353.000000, -1174.000000)" fill="#636185">
            <g id="close-icon" transform="translate(353.000000, 1174.000000)">
                <path d="M26.46375,22.486875 L44.14875,4.801875 C45.2475,3.7040625 45.2475,1.9228125 44.14875,0.825 C43.05,-0.27375 41.270625,-0.27375 40.171875,0.825 L22.486875,18.51 L4.8009375,0.825 C3.7021875,-0.27375 1.9228125,-0.27375 0.8240625,0.825 C-0.2746875,1.9228125 -0.2746875,3.7040625 0.8240625,4.801875 L18.51,22.486875 L0.8240625,40.171875 C-0.2746875,41.2696875 -0.2746875,43.0509375 0.8240625,44.14875 C1.3734375,44.6971875 2.0934375,44.971875 2.8125,44.971875 C3.5315625,44.971875 4.2515625,44.6971875 4.8009375,44.1478125 L22.486875,26.4628125 L40.171875,44.1478125 C40.72125,44.6971875 41.44125,44.971875 42.1603125,44.971875 C42.879375,44.971875 43.599375,44.6971875 44.14875,44.1478125 C45.2475,43.05 45.2475,41.26875 44.14875,40.1709375 L26.46375,22.486875 Z" id="Path"></path>
            </g>
        </g>
    </g>
</svg>