<?xml version="1.0" encoding="UTF-8"?>
<svg width="13px" height="14px" viewBox="0 0 13 14" version="1.1" xmlns="http://www.w3.org/2000/svg" xmlns:xlink="http://www.w3.org/1999/xlink">
    <!-- Generator: Sketch 52.5 (67469) - http://www.bohemiancoding.com/sketch -->
    <title>download-icon</title>
    <desc>Created with Sketch.</desc>
    <g id="Page-1" stroke="none" stroke-width="1" fill="none" fill-rule="evenodd">
        <g id="Downloads-1366px" transform="translate(-1017.000000, -438.000000)" fill="#7FC82F">
            <g id="download-btn-copy-2" transform="translate(1002.000000, 417.000000)">
                <path d="M27.2275497,28.760967 C27.1820052,28.6519294 27.0757255,28.5807776 26.957786,28.5807776 L23.758585,28.5807776 L23.758585,21.2915778 C23.758585,21.1306319 23.6277814,21 23.4666239,21 L18.7953826,21 C18.6342251,21 18.5034215,21.1306319 18.5034215,21.2915778 L18.5034215,28.5808049 L15.2919585,28.5808049 C15.174019,28.5808049 15.0677394,28.6519568 15.0221949,28.7604203 C14.9772251,28.8694579 15.0017491,28.9948416 15.0852565,29.0782393 L20.9096991,34.9142788 C20.9645769,34.9690846 21.038751,35 21.1164011,35 C21.1940512,35 21.2682253,34.9690846 21.3231031,34.9148528 L27.1644881,29.0788134 C27.2479955,28.9953883 27.2730942,28.8700319 27.2275497,28.760967 Z" id="download-icon"></path>
            </g>
        </g>
    </g>
</svg>