<?xml version="1.0" encoding="UTF-8"?>
<svg width="1104px" height="738px" viewBox="0 0 1104 738" version="1.1" xmlns="http://www.w3.org/2000/svg" xmlns:xlink="http://www.w3.org/1999/xlink">
    <!-- Generator: Sketch 52.5 (67469) - http://www.bohemiancoding.com/sketch -->
    <title>downloads-bubble</title>
    <desc>Created with Sketch.</desc>
    <g id="Page-1" stroke="none" stroke-width="1" fill="none" fill-rule="evenodd" fill-opacity="0.5">
        <g id="Downloads-1366px" transform="translate(-147.000000, -303.000000)" fill="#E9E9F3" fill-rule="nonzero">
            <g id="downloads-bubble" transform="translate(692.512644, 635.778823) rotate(-8.000000) translate(-692.512644, -635.778823) translate(130.012644, 264.278823)">
                <path d="M121.915232,51.0108735 C163.964884,13.2695347 285.463631,-14.8883005 354.265827,9.1147852 C423.068023,33.1178709 602.888521,136.484901 707.47656,162.433789 C812.064598,188.382678 1095.8991,332.059602 1098.61094,388.597833 C1101.32277,445.136065 1040.38146,600.712453 988.106109,638.056233 C935.83076,675.400012 817.986365,691.439018 769.730203,704.360409 C721.474042,717.2818 239.220485,724.256116 113.250124,656.837062 C29.269883,611.891027 -7.71413436,557.358836 2.2980717,493.24049 C81.9462802,198.876998 79.8655795,88.7522122 121.915232,51.0108735 Z" id="Path-8"></path>
                <path d="M65.4053949,147.579263 C84.7969418,87.9785497 202.996289,48.657395 276.958211,57.007305 C350.920133,65.3572151 556.857278,126.429928 666.012619,128.942815 C775.167961,131.455702 1094.16992,209.037153 1114.36666,263.065726 C1134.5634,317.094298 1124.02394,480.514844 1085.10638,527.859464 C1046.18882,575.204085 937.273124,616.10807 894.648267,638.99512 C852.023411,661.88217 388.07285,772.608421 245.359048,734.647978 C150.216514,709.341015 97.5178529,664.640371 87.2630656,600.546043 C72.7397829,299.029731 46.0138479,207.179976 65.4053949,147.579263 Z" id="Path-8"></path>
                <path d="M57.2035798,94.3654367 C89.4881211,25.1929523 204.551885,6.00103783 277.321775,19.6559575 C350.091666,33.3108772 548.752453,108.927128 657.174953,119.328337 C765.597452,129.729545 1075.10906,229.94172 1089.56608,285.107596 C1104.0231,340.273471 1076.43104,501.94772 1032.72756,546.18966 C989.024091,590.431599 876.297685,623.203407 831.461763,642.866491 C786.625842,662.529575 313.087855,738.997125 174.960091,690.931808 C82.8749154,658.888263 35.0799616,610.64088 31.57523,546.18966 C27.137769,291.088501 35.6805522,140.480426 57.2035798,94.3654367 Z" id="Path-8"></path>
            </g>
        </g>
    </g>
</svg>