<?xml version="1.0" encoding="UTF-8"?>
<svg width="25px" height="18px" viewBox="0 0 25 18" version="1.1" xmlns="http://www.w3.org/2000/svg" xmlns:xlink="http://www.w3.org/1999/xlink">
    <!-- Generator: Sketch 52.5 (67469) - http://www.bohemiancoding.com/sketch -->
    <title>email-icon</title>
    <desc>Created with Sketch.</desc>
    <g id="Page-1" stroke="none" stroke-width="1" fill="none" fill-rule="evenodd">
        <g id="Subscribe" transform="translate(-488.000000, -499.000000)" fill="#9B9AA9" fill-rule="nonzero">
            <g id="Group-5" transform="translate(470.000000, 337.000000)">
                <g id="Group-3">
                    <g id="Group-Copy" transform="translate(0.000000, 113.000000)">
                        <g id="email-icon" transform="translate(18.000000, 49.000000)">
                            <path d="M22.8027344,0 L2.19726562,0 C0.988183594,0 0,0.983837891 0,2.19726562 L0,15.3808594 C0,16.5947266 0.988818359,17.578125 2.19726562,17.578125 L22.8027344,17.578125 C24.0118164,17.578125 25,16.5942871 25,15.3808594 L25,2.19726562 C25,0.983544922 24.0113281,0 22.8027344,0 Z M22.465332,1.46484375 C21.7549316,2.17758789 13.4104004,10.5493164 13.0675781,10.8932617 C12.78125,11.1804688 12.2188965,11.1806641 11.9324219,10.8932617 L2.53466797,1.46484375 L22.465332,1.46484375 Z M1.46484375,15.1115723 L1.46484375,2.46655273 L7.7668457,8.7890625 L1.46484375,15.1115723 Z M2.53466797,16.1132812 L8.80097656,9.8265625 L10.8949707,11.9273926 C11.7530762,12.7882813 13.2472656,12.7879395 14.1050781,11.9273926 L16.1990723,9.82661133 L22.465332,16.1132812 L2.53466797,16.1132812 Z M23.5351562,15.1115723 L17.2331543,8.7890625 L23.5351562,2.46655273 L23.5351562,15.1115723 Z" id="Shape"></path>
                        </g>
                    </g>
                </g>
            </g>
        </g>
    </g>
</svg>