<?xml version="1.0" encoding="UTF-8"?>
<svg width="12px" height="20px" viewBox="0 0 12 20" version="1.1" xmlns="http://www.w3.org/2000/svg" xmlns:xlink="http://www.w3.org/1999/xlink">
    <!-- Generator: Sketch 52.5 (67469) - http://www.bohemiancoding.com/sketch -->
    <title>facebook-logo</title>
    <desc>Created with Sketch.</desc>
    <g id="Page-1" stroke="none" stroke-width="1" fill="none" fill-rule="evenodd">
        <g id="Landing-Page-Facebook-Hover" transform="translate(-1264.000000, -3697.000000)" fill="#5071B7">
            <g id="footer" transform="translate(0.000000, 3080.000000)">
                <g id="footer-bottom" transform="translate(0.000000, 567.000000)">
                    <g id="colored-icons" transform="translate(1112.000000, 50.000000)">
                        <g id="facebook-logo" transform="translate(152.800000, 0.000000)">
                            <path d="M10.0083665,0.00416133496 L7.51387943,0 C4.71140872,0 2.90032904,1.93189975 2.90032904,4.92202699 L2.90032904,7.191411 L0.392233832,7.191411 C0.175504628,7.191411 0,7.37409361 0,7.5994299 L0,10.8875087 C0,11.112845 0.175704747,11.2953195 0.392233832,11.2953195 L2.90032904,11.2953195 L2.90032904,19.5921892 C2.90032904,19.8175255 3.07583367,20 3.29256287,20 L6.5649137,20 C6.7816429,20 6.95714753,19.8173174 6.95714753,19.5921892 L6.95714753,11.2953195 L9.88969578,11.2953195 C10.106425,11.2953195 10.2819296,11.112845 10.2819296,10.8875087 L10.2831303,7.5994299 C10.2831303,7.49123519 10.2417056,7.38761795 10.1682618,7.31104938 C10.0948181,7.23448082 9.99475841,7.191411 9.89069638,7.191411 L6.95714753,7.191411 L6.95714753,5.26762585 C6.95714753,4.34297723 7.16907387,3.87357864 8.32756451,3.87357864 L10.0079663,3.87295444 C10.2244954,3.87295444 10.4,3.69027184 10.4,3.46514362 L10.4,0.411972161 C10.4,0.187052006 10.2246955,0.00457746845 10.0083665,0.00416133496 Z" id="Path"></path>
                        </g>
                    </g>
                </g>
            </g>
        </g>
    </g>
</svg>