<?xml version="1.0" encoding="UTF-8"?>
<svg width="11px" height="20px" viewBox="0 0 11 20" version="1.1" xmlns="http://www.w3.org/2000/svg" xmlns:xlink="http://www.w3.org/1999/xlink">
    <!-- Generator: Sketch 52.5 (67469) - http://www.bohemiancoding.com/sketch -->
    <title>facebook</title>
    <desc>Created with Sketch.</desc>
    <g id="Page-1" stroke="none" stroke-width="1" fill="none" fill-rule="evenodd" opacity="0.7">
        <g id="Landing-Page-Windows-Btn-Hover" transform="translate(-1265.000000, -3697.000000)" fill="#9B9AA9">
            <g id="footer" transform="translate(0.000000, 3080.000000)">
                <g id="footer-bottom" transform="translate(0.000000, 567.000000)">
                    <path d="M1275.00837,50.0041613 L1272.51388,50 C1269.71141,50 1267.90033,51.9318998 1267.90033,54.922027 L1267.90033,57.191411 L1265.39223,57.191411 C1265.1755,57.191411 1265,57.3740936 1265,57.5994299 L1265,60.8875087 C1265,61.112845 1265.1757,61.2953195 1265.39223,61.2953195 L1267.90033,61.2953195 L1267.90033,69.5921892 C1267.90033,69.8175255 1268.07583,70 1268.29256,70 L1271.56491,70 C1271.78164,70 1271.95715,69.8173174 1271.95715,69.5921892 L1271.95715,61.2953195 L1274.8897,61.2953195 C1275.10642,61.2953195 1275.28193,61.112845 1275.28193,60.8875087 L1275.28313,57.5994299 C1275.28313,57.4912352 1275.24171,57.3876179 1275.16826,57.3110494 C1275.09482,57.2344808 1274.99476,57.191411 1274.8907,57.191411 L1271.95715,57.191411 L1271.95715,55.2676259 C1271.95715,54.3429772 1272.16907,53.8735786 1273.32756,53.8735786 L1275.00797,53.8729544 C1275.2245,53.8729544 1275.4,53.6902718 1275.4,53.4651436 L1275.4,50.4119722 C1275.4,50.187052 1275.2247,50.0045775 1275.00837,50.0041613 Z" id="facebook"></path>
                </g>
            </g>
        </g>
    </g>
</svg>