<?xml version="1.0" encoding="UTF-8"?>
<svg width="151px" height="129px" viewBox="0 0 151 129" version="1.1" xmlns="http://www.w3.org/2000/svg" xmlns:xlink="http://www.w3.org/1999/xlink">
    <!-- Generator: Sketch 52.5 (67469) - http://www.bohemiancoding.com/sketch -->
    <title>Group 4</title>
    <desc>Created with Sketch.</desc>
    <defs>
        <linearGradient x1="8.22489536%" y1="50%" x2="96.6726075%" y2="50%" id="linearGradient-1">
            <stop stop-color="#80C93F" offset="0%"></stop>
            <stop stop-color="#1FC2B9" offset="100%"></stop>
        </linearGradient>
    </defs>
    <g id="Page-1" stroke="none" stroke-width="1" fill="none" fill-rule="evenodd">
        <g id="Landing-Page" transform="translate(-772.000000, -942.000000)" fill-rule="nonzero">
            <g id="features" transform="translate(0.000000, 769.000000)">
                <g id="integration-card" transform="translate(696.000000, 120.000000)">
                    <g id="Group-4" transform="translate(55.000000, 38.000000)">
                        <path d="M38.2530168,108.680695 C19.383755,56.6806954 8.73140603,45.1806954 50.6385201,31.1806954 C92.5456342,17.1806954 143.544609,13.9034581 158.044609,50.9034581 C172.544609,87.9034581 138.609221,114.403458 133.149978,114.403458 C127.690735,114.403458 57.1222785,160.680695 38.2530168,108.680695 Z" id="Path-5" fill-opacity="0.5" fill="#E9E9F3"></path>
                        <path d="M30.9251256,109.054883 C12.0558638,57.0548832 1.40351482,45.5548832 43.3106289,31.5548832 C85.217743,17.5548832 149.989689,10.5548832 164.489689,47.5548832 C178.989689,84.5548832 139.328261,73.7776459 139.328261,101.277646 C139.328261,128.777646 49.7943873,161.054883 30.9251256,109.054883 Z" id="Path-5-Copy" fill-opacity="0.5" fill="#E9E9F3" transform="translate(91.000000, 78.500000) rotate(163.000000) translate(-91.000000, -78.500000) "></path>
                        <path d="M65.5,87.1808795 C68.8333333,91.4518398 71.3333333,92.7851731 73,91.1808795 C74.6666667,89.5765858 74.8333333,87.0162926 73.5,83.5 L71,81 L76.5,75 L79,76.3461538 L85.5,81.5 C87.1666667,78.3516627 89,77.0183293 91,77.5 C93,77.9816707 94.5,79.1483373 95.5,81 L95,84.1808795 L91.5,87.7390325 L97.5,95 L97.5,97 L92.5,102.5 L97,106.5 L96,112 L93,113 L89.5,112 L86.5,109 L79.5,114 L72.5,108.192308 L70.5,108.192308 L68,111.5 L64,110.846154 L61,107.5 L62.5,103 L65.5,101.5 L59,94 L60,91.2273404 L65.5,87.1808795 Z" id="Path-4" fill="#FFFFFF"></path>
                        <polygon id="Path-6" fill="#FFFFFF" points="87 66.5 86 64 92 57.5 88 54.5 87.5 49 91.5 47 95.5 48.5 98 52.5 104.5 46.5 107 47.5 113 52.5 116.5 49 120.5 49.5 123 53 122.5 56.5 119.5 59.5 125.5 66 125 69 120 74.5 124.5 77.5 124.5 82.5 122 84.5 117.5 84 114 80 107.5 85.5 100 78.5 103 75.5 104 71.5 101 68.5 96.5 68.5 93 72"></polygon>
                        <g id="options" transform="translate(58.000000, 45.000000)" fill="url(#linearGradient-1)" stroke="url(#linearGradient-1)" stroke-width="0.5">
                            <path d="M41.7844162,50.2031352 C41.8450214,51.206531 41.4878123,52.1738045 40.8042989,52.8574515 L36.4179864,57.2437627 C37.2457213,57.5841145 37.9933182,58.0848759 38.642181,58.7337385 L38.7881417,58.8796991 C41.2483351,61.3398918 41.4280099,65.163231 39.1885637,67.4026766 C36.9491174,69.6419884 33.1257769,69.4623137 30.6655835,67.0022548 L30.5196228,66.8562942 C29.8708938,66.2072978 29.3699984,65.459701 29.0296465,64.6321002 L24.6485516,69.0131937 C24.0150742,69.6466709 23.1375709,70 22.2136437,70 C22.1407303,70 22.0675493,69.9977256 21.9942345,69.9933107 C21.0369946,69.9353813 20.1218974,69.5158281 19.4176471,68.811578 L14.335379,63.7291778 C14.0755663,64.5506245 13.6285868,65.2915319 13.0250775,65.895041 L12.8957063,66.0242784 C11.8452175,67.0749006 10.4456806,67.593188 9.0021281,67.593188 C7.36873305,67.5934556 5.67901403,66.9300103 4.37285989,65.6239904 C1.91266647,63.1636639 1.73299167,59.3404585 3.97230418,57.1010129 L4.10167538,56.9716417 C4.70518468,56.3682664 5.44622614,55.9211532 6.2674055,55.6613406 L1.18513741,50.5789404 C-0.31259849,49.0812049 -0.402904138,46.7348643 0.983521687,45.3483051 L5.58442723,40.7471334 C6.14820204,40.1834926 6.9675084,39.9490993 7.77597807,40.120078 C8.65522062,40.3060407 9.37405358,40.9191824 9.69902013,41.7604294 C9.90424808,42.2912926 10.2203847,42.7727888 10.638734,43.191138 L10.7846947,43.3370986 C11.4922896,44.0448271 12.3920014,44.4654506 13.3178016,44.5212394 C14.1823276,44.5743525 14.9660469,44.2952747 15.5236675,43.7376542 C16.0812882,43.1800337 16.3596972,42.3965823 16.3073868,41.5317889 C16.251598,40.6059891 15.8309743,39.7064113 15.1232456,38.9986829 L14.9772849,38.8527222 C14.5589356,38.4343731 14.0774393,38.1182365 13.5464421,37.9130086 C12.7053286,37.5880422 12.0921867,36.8692095 11.906224,35.990101 C11.7352453,35.1816316 11.9696386,34.3623255 12.5332796,33.7986846 L17.1394028,29.1924291 C18.52623,27.8060037 20.8725714,27.8964431 22.3701735,29.3940447 L27.4524416,34.476445 C27.7121205,33.6552659 28.1592338,32.9142247 28.7628769,32.3107156 L28.8921143,32.1814782 C29.9986595,31.0747996 31.510443,30.519721 33.1511963,30.6188565 C34.7301404,30.714246 36.244332,31.4112716 37.4149607,32.5817662 C39.8751542,35.0420927 40.0548289,38.8652981 37.8153827,41.1047437 L37.6861452,41.2341149 C37.0827697,41.8373564 36.3419958,42.2843358 35.5210841,42.5441484 L40.6026832,47.6266824 C41.3069335,48.3307987 41.7266206,49.2458956 41.7844162,50.2031352 Z M38.9124291,50.9654484 C39.0975891,50.7801547 39.1240787,50.5363964 39.1136434,50.3643475 C39.0955823,50.0648004 38.9486851,49.7565572 38.7108133,49.5186855 L33.3946871,44.2025609 C32.7129129,43.5207869 32.4521637,42.5476268 32.7141169,41.6628993 C32.9577415,40.8402486 33.6052664,40.2423585 34.4462462,40.0634865 C34.9741663,39.9511061 35.4277013,39.7082844 35.7942754,39.3417104 L35.9235128,39.2123393 C37.1196947,38.0164253 36.9400199,35.8905641 35.5230908,34.4735017 C34.8154959,33.7657732 33.9157841,33.3451497 32.989984,33.2893609 C32.1249228,33.2371843 31.3417387,33.5154594 30.784118,34.0729461 L30.6547468,34.2023173 C30.288039,34.5688912 30.0452171,35.0224261 29.9329705,35.5503461 C29.7539647,36.3913255 29.1560744,37.0388502 28.3335572,37.2823409 C27.4486956,37.5442941 26.475669,37.283545 25.7940286,36.601771 L20.4779023,31.2857802 C20.0313241,30.8390684 19.3688151,30.746756 19.0311389,31.0841646 L14.6448264,35.4704758 C15.4725612,35.8108276 16.2201582,36.311589 16.869021,36.9604516 L17.0149817,37.1064122 C19.4753089,39.5667387 19.6548499,43.3899441 17.4155374,45.6293897 C15.1759573,47.8687015 11.3527507,47.6891605 8.89242346,45.2289679 L8.74646277,45.0830073 C8.09773375,44.4340109 7.59683843,43.6864141 7.25648647,42.8588133 L2.87539157,47.2399068 C2.69036533,47.4252006 2.66374189,47.6689588 2.67417721,47.840874 C2.69237212,48.1404211 2.83913552,48.448798 3.07714108,48.6866697 L8.39299978,54.0029281 C9.07464019,54.6845683 9.33552317,55.6575946 9.0735699,56.5423221 C8.82994533,57.3649729 8.18255417,57.9629967 7.34157446,58.1418688 C6.81352054,58.2542491 6.35998551,58.4970709 5.99341147,58.8636448 L5.86404027,58.993016 C4.66799213,60.1891975 4.84766692,62.3149249 6.26459599,63.7318535 C7.68125748,65.1487821 9.80738691,65.3284569 11.003435,64.1322753 L11.1328062,64.0030379 C11.4993803,63.636464 11.7422021,63.1829291 11.8545825,62.6548754 C12.0334546,61.8140297 12.6313449,61.1666388 13.4538621,60.9230143 C13.6812985,60.8557199 13.9146216,60.8228085 14.1471419,60.8228085 C14.8196848,60.8228085 15.4870101,61.0969362 15.9936583,61.6035842 L17.3790138,62.9889393 L21.8188408,58.5491137 C22.3414095,58.0266789 23.1885434,58.0265451 23.7109783,58.5491137 C24.2334132,59.0716822 24.2334132,59.9188158 23.7109783,60.4412505 L19.2711513,64.8810761 L21.3099183,66.9198426 C21.5479239,67.1577142 21.8561672,67.3046114 22.1557143,67.3226725 C22.3277633,67.333643 22.5715217,67.3066182 22.7566817,67.1214582 L27.3575872,62.5204203 C27.9210945,61.9569133 28.7402671,61.7223862 29.5488705,61.8933649 C30.4281131,62.0791938 31.1470798,62.6923355 31.4720464,63.5335825 C31.6772743,64.0644458 31.9935448,64.5459419 32.411894,64.9642911 L32.5578547,65.1102517 C33.9745162,66.5271803 36.1006456,66.7068551 37.2966938,65.5106735 C38.4928757,64.314492 38.3132009,62.1887646 36.8962718,60.771836 L36.7503112,60.6258753 C36.3319619,60.2073924 35.8504655,59.8912558 35.3194683,59.686028 C34.478221,59.3609277 33.8650791,58.642095 33.6792502,57.7628527 C33.5082715,56.9543833 33.7427986,56.135211 34.3063059,55.5715702 L38.9124291,50.9654484 Z M27.9028358,55.6792537 C28.0971642,55.8735821 28.2089552,56.1431343 28.2089552,56.4179104 C28.2089552,56.6926866 28.0971642,56.9622388 27.9028358,57.1565672 C27.7085075,57.3508955 27.4389552,57.4626866 27.1641791,57.4626866 C26.8883582,57.4626866 26.6198507,57.3508955 26.4255224,57.1565672 C26.231194,56.9622388 26.119403,56.6926866 26.119403,56.4179104 C26.119403,56.1431343 26.231194,55.8735821 26.4255224,55.6792537 C26.6198507,55.4849254 26.889403,55.3731343 27.1641791,55.3731343 C27.4389552,55.3731343 27.7085075,55.4849254 27.9028358,55.6792537 Z M56.111791,17.0225373 C56.3061194,17.2168657 56.4179104,17.4864179 56.4179104,17.761194 C56.4179104,18.0359701 56.3061194,18.3055224 56.111791,18.4998507 C55.9174627,18.6941791 55.6479104,18.8059701 55.3731343,18.8059701 C55.0983582,18.8059701 54.828806,18.6941791 54.6344776,18.4998507 C54.4401493,18.3055224 54.3283582,18.0359701 54.3283582,17.761194 C54.3283582,17.4864179 54.4401493,17.2168657 54.6344776,17.0225373 C54.828806,16.828209 55.0983582,16.7164179 55.3731343,16.7164179 C55.6479104,16.7164179 55.9174627,16.828209 56.111791,17.0225373 Z M66.0350013,30.7503629 L66.1813633,30.8966015 C68.6415562,33.3569694 68.8210972,37.180581 66.5817852,39.4201861 C64.3423394,41.6596575 60.5191336,41.4801037 58.058807,39.0197358 L57.9127125,38.873631 C57.1859864,38.1468531 56.6299713,37.2672806 56.2981817,36.3220144 L51.813136,40.8073793 C51.1549083,41.4656538 50.2803485,41.7910448 49.383045,41.7910448 C48.3899507,41.7910448 47.3690289,41.3926014 46.5822327,40.6057493 L41.2710578,35.2900487 C40.5895513,34.6082262 40.3289359,33.6352643 40.5908891,32.7506076 C40.8345137,31.928032 41.4819047,31.3300993 42.3228842,31.1512146 C42.8508042,31.0388262 43.3043391,30.7959872 43.6709131,30.4293871 L43.8001505,30.3001406 C44.357771,29.7424803 44.6361799,28.9589731 44.5838695,28.0939843 C44.5279469,27.1681186 44.1074572,26.2684767 43.3997286,25.5606978 C42.6920001,24.8529189 41.7924222,24.4322654 40.8666223,24.3763389 C40.0031667,24.3237572 39.2183774,24.6024535 38.6607569,25.1601137 L38.5313857,25.2894941 C38.164678,25.6560941 37.9218562,26.1096613 37.8096096,26.6376189 C37.6306038,27.4785244 37.0327136,28.1260953 36.2101966,28.3697371 C35.3258704,28.6315752 34.3524426,28.3709413 33.6705348,27.6891188 L28.3497272,22.3719465 C26.8515903,20.873703 26.7611509,18.5271951 28.1477102,17.1405372 L32.6328897,12.6551723 C31.6874232,12.3232254 30.8080471,11.7671707 30.0813209,11.0403928 L29.9350927,10.8941542 C27.4750336,8.43405389 27.2954927,4.61044227 29.5348046,2.37083715 C31.7742504,0.13136583 35.59759,0.310919571 38.0577829,2.77128748 L38.2037435,2.91725852 C38.9306035,3.6441702 39.4866186,4.5236089 39.8184081,5.46900885 L44.3034538,0.983644018 C45.6901469,-0.403013932 48.0364878,-0.312568083 49.5342233,1.18527404 L54.5224386,6.17371045 C54.7906798,5.47101578 55.2023396,4.83214163 55.7293232,4.30498683 L55.8586943,4.17560646 C58.0982739,1.93613514 61.9216135,2.11582267 64.3816725,4.57605679 C66.8419992,7.0365585 67.0215401,10.8600363 64.7822282,13.0996414 L64.652857,13.2290218 C64.1260073,13.7560428 63.4873124,14.1675982 62.7849353,14.4358584 L67.7668626,19.418943 C68.4711127,20.1232432 68.8907997,21.0384054 68.9485953,21.9957131 C69.0092005,22.9991804 68.6519915,23.9667904 67.9684783,24.6502185 L63.4834326,29.1355834 C64.4287652,29.4673965 65.3081414,30.0234512 66.0350013,30.7503629 Z M64.6892468,37.5276469 C65.8854285,36.3316477 65.7058875,34.2055013 64.2885574,32.788338 L64.1425967,32.6423669 C63.6764859,32.1762229 63.1132464,31.8268825 62.5134832,31.6320761 C61.6424018,31.3490983 60.9682536,30.6196445 60.7541958,29.728298 C60.5544532,28.896223 60.7830936,28.0514373 61.3657322,27.4686236 L62.0373385,26.7969695 L57.6036666,22.3628484 C57.0810981,21.8403764 57.0812318,20.9931825 57.6036666,20.4707105 C58.1261014,19.9482386 58.9731013,19.9482386 59.4956698,20.4707105 L63.9293417,24.9048316 L66.0763412,22.7576793 C66.2615012,22.5725061 66.2881247,22.3285967 66.2776893,22.1566693 C66.2594944,21.8571009 66.1127311,21.5487019 65.8747256,21.3108133 L60.6823527,16.1180709 C60.0234561,15.4589937 59.7549473,14.5131923 59.981581,13.6496753 C60.1918928,12.8483732 60.7929938,12.2373286 61.5894225,12.015094 C62.0430913,11.8885234 62.4372251,11.660268 62.76072,11.3366164 L62.8900911,11.207236 C64.0862728,10.0109692 63.906598,7.88509041 62.4896693,6.46806085 C61.0728744,5.05089749 58.9467454,4.87134375 57.7508313,6.06761052 L57.6214602,6.19699089 C57.2979653,6.52050874 57.0697262,6.91467067 56.9430308,7.36850546 C56.7209458,8.16499087 56.1098109,8.76613466 55.3085658,8.97646139 C54.445244,9.20337879 53.4993762,8.93458336 52.8404796,8.27563986 L47.6423539,3.07701051 C47.195642,2.63026688 46.533267,2.53808169 46.1955908,2.87538049 L41.4852493,7.58619096 C40.902477,8.16887095 40.0577515,8.39752769 39.2257356,8.1977708 C38.3344525,7.98383159 37.6050506,7.30963539 37.322093,6.43835822 C37.1273004,5.83855239 36.7779849,5.27513898 36.3118741,4.80912878 L36.1659134,4.66315775 C34.7491185,3.24599439 32.6229895,3.06644065 31.4270754,4.26270741 C30.2308938,5.45897418 30.4105685,7.58485301 31.8274973,9.00188256 L31.9737255,9.14812119 C32.4395688,9.61399759 33.0029421,9.96333799 33.6025715,10.1581444 C34.4736528,10.4409884 35.1478011,11.1704422 35.3619926,12.0617887 C35.5617353,12.8939976 35.3332286,13.7387832 34.7504563,14.321597 L30.0398472,19.0324074 C29.854821,19.2175806 29.8281976,19.46149 29.8386329,19.6334174 C29.8568278,19.9329859 30.0035912,20.2413848 30.2415967,20.4792734 L35.3289475,25.5631061 C35.5886263,24.7418685 36.0357395,24.0007745 36.6392487,23.3970886 L36.7686199,23.2677082 C37.8751648,22.1610845 39.3872155,21.6066354 41.0277008,21.705109 C42.6067783,21.8005053 44.1209696,22.4978482 45.2914643,23.6682924 C46.461959,24.8387366 47.1589847,26.3531694 47.2543742,27.9323592 C47.3533759,29.5721585 46.7984311,31.0849857 45.6917523,32.1917432 L45.5625149,32.3211236 C44.9590058,32.9245419 44.2179645,33.3716869 43.3966515,33.631518 L48.4743697,38.7134776 C48.7119739,38.9510987 49.0202171,39.0980063 49.3197642,39.1160687 C49.4914118,39.1267723 49.7354376,39.1000132 49.9207314,38.91484 L54.6312067,34.2040296 C55.213979,33.6212158 56.0587046,33.3926928 56.8907204,33.5924497 C57.7820035,33.8065227 58.5114054,34.4807189 58.794363,35.3519961 C58.9890218,35.9518019 59.3383374,36.5152153 59.8044482,36.9812255 L59.9504088,37.1271966 C61.3672038,38.5442261 63.4931989,38.7239137 64.6892468,37.5276469 Z" id="Combined-Shape"></path>
                        </g>
                    </g>
                </g>
            </g>
        </g>
    </g>
</svg>