<?xml version="1.0" encoding="UTF-8"?>
<svg width="20px" height="20px" viewBox="0 0 20 20" version="1.1" xmlns="http://www.w3.org/2000/svg" xmlns:xlink="http://www.w3.org/1999/xlink">
    <!-- Generator: Sketch 52.5 (67469) - http://www.bohemiancoding.com/sketch -->
    <title>linked-in</title>
    <desc>Created with Sketch.</desc>
    <g id="Page-1" stroke="none" stroke-width="1" fill="none" fill-rule="evenodd" opacity="0.7">
        <g id="Landing-Page-Windows-Btn-Hover" transform="translate(-1112.000000, -3697.000000)" fill="#9B9AA9">
            <g id="footer" transform="translate(0.000000, 3080.000000)">
                <g id="footer-bottom" transform="translate(0.000000, 567.000000)">
                    <path d="M1116.69716,56.25 C1116.86445,56.25 1117,56.3966515 1117,56.5774932 L1117,69.6725068 C1117,69.853414 1116.86445,70 1116.69716,70 L1112.92784,70 C1112.76055,70 1112.625,69.853414 1112.625,69.6725068 L1112.625,56.5774932 C1112.625,56.3966515 1112.76055,56.25 1112.92784,56.25 L1116.69716,56.25 Z M1114.501,50 C1115.87898,50 1117.00006,51.1212664 1117,52.4994821 C1117,53.8782461 1115.87898,55 1114.501,55 C1113.12194,55 1112,53.8783071 1112,52.4994821 C1112,51.1212664 1113.12194,50 1114.501,50 Z M1126.87773,56.25 C1131.39141,56.25 1132,59.4919974 1132,62.6633566 L1132,69.6800808 C1132,69.8568042 1131.85589,70 1131.67803,70 L1127.67789,70 C1127.50003,70 1127.35592,69.8568042 1127.35592,69.6800808 L1127.35592,63.4605953 C1127.35592,61.719211 1127.22642,60.3871953 1125.59687,60.3871953 C1124.10062,60.3871953 1123.5176,61.2180895 1123.5176,63.350863 L1123.5176,69.6800168 C1123.5176,69.8567402 1123.37349,69.999936 1123.19563,69.999936 L1119.19697,69.999936 C1119.01911,69.999936 1118.875,69.8567402 1118.875,69.6800168 L1118.875,56.8878549 C1118.875,56.7111955 1119.01911,56.5679357 1119.19697,56.5679357 L1123.03477,56.5679357 C1123.21263,56.5679357 1123.35674,56.7111955 1123.35674,56.8878549 L1123.35674,57.7186851 C1124.0784,56.9375064 1125.26821,56.25 1126.87773,56.25 Z" id="linked-in"></path>
                </g>
            </g>
        </g>
    </g>
</svg>