<?xml version="1.0" encoding="UTF-8"?>
<svg width="150px" height="130px" viewBox="0 0 150 130" version="1.1" xmlns="http://www.w3.org/2000/svg" xmlns:xlink="http://www.w3.org/1999/xlink">
    <!-- Generator: Sketch 52.5 (67469) - http://www.bohemiancoding.com/sketch -->
    <title>Group 3</title>
    <desc>Created with Sketch.</desc>
    <defs>
        <linearGradient x1="7.91808757%" y1="50%" x2="96.6726075%" y2="50%" id="linearGradient-1">
            <stop stop-color="#62B2FF" offset="0%"></stop>
            <stop stop-color="#6E7BFF" offset="100%"></stop>
        </linearGradient>
    </defs>
    <g id="Page-1" stroke="none" stroke-width="1" fill="none" fill-rule="evenodd">
        <g id="Landing-Page-1440px" transform="translate(-172.000000, -932.000000)">
            <g id="features" transform="translate(35.000000, 769.000000)">
                <g id="logs-card" transform="translate(60.000000, 120.000000)">
                    <g id="Group-3">
                        <g transform="translate(55.000000, 28.000000)">
                            <path d="M38.5751033,108.958341 C19.7058416,56.9583413 9.05349261,45.4583413 50.9606067,31.4583413 C92.8677208,17.4583413 143.866695,14.181104 158.366695,51.181104 C172.866695,88.181104 138.931307,114.681104 133.472064,114.681104 C128.012821,114.681104 57.4443651,160.958341 38.5751033,108.958341 Z" id="Path-5" fill-opacity="0.5" fill="#E9E9F3" fill-rule="nonzero"></path>
                            <path d="M31.2472121,109.332529 C12.3779504,57.3325291 1.7256014,45.8325291 43.6327155,31.8325291 C85.5398296,17.8325291 150.311776,10.8325291 164.811776,47.8325291 C179.311776,84.8325291 139.650348,74.0552918 139.650348,101.555292 C139.650348,129.055292 50.1164739,161.332529 31.2472121,109.332529 Z" id="Path-5-Copy" fill-opacity="0.5" fill="#E9E9F3" fill-rule="nonzero" transform="translate(91.322087, 78.777646) rotate(163.000000) translate(-91.322087, -78.777646) "></path>
                            <polygon id="logs-icon-bg" fill="#FFFFFF" fill-rule="nonzero" points="52.8515587 61 52.8515587 53.5 55 51.5 65 51.5 65.5 47 112.5 47 116 49.5 117 51.5 123 51.5 131 57 131 59 122.5 63.5 117 63.8378906 117 99.1153846 103.5 112 70.5 112.5 65.5 110 65.5 100.5 65.5 63.5 55.5 63.5"></polygon>
                            <g id="logs-icon" transform="translate(51.972064, 42.680879)" fill="url(#linearGradient-1)" stroke="url(#linearGradient-1)" stroke-width="0.5">
                                <path d="M78.5440682,12.4447774 C79.4557833,13.0054892 80,13.9736547 80,15.034732 C80.0001562,16.0958093 79.4557833,17.0641291 78.5440682,17.6248409 L71.5439393,21.927953 C71.4969082,21.9568143 71.4481584,21.9821259 71.3978461,22.0040419 C71.3808149,22.0114502 71.3630025,22.0160803 71.3456588,22.0227169 C71.3123777,22.0353726 71.279409,22.0488001 71.2451904,22.0583691 C71.2089406,22.0685554 71.1720657,22.074729 71.1351908,22.0813655 C71.1190972,22.0842979 71.103316,22.0890824 71.0869098,22.0913975 C71.0328475,22.0988058 70.9784727,22.1026642 70.9240979,22.1026642 C70.9231604,22.1026642 70.9223792,22.1025099 70.9215979,22.1025099 L65.7923992,22.1025099 L65.7923992,28.1161557 C65.7923992,28.7554259 65.2677138,29.2736946 64.6205288,29.2736946 C63.9733438,29.2736946 63.4486584,28.7554259 63.4486584,28.1161557 L63.4486584,20.9570094 C63.4486584,20.9529966 63.4480334,20.9491382 63.4480334,20.9451254 C63.4480334,20.9411126 63.4486584,20.9372541 63.4486584,20.9332413 L63.4486584,9.13483362 C63.4486584,9.13082082 63.4480334,9.12696236 63.4480334,9.12294955 C63.4480334,9.11893675 63.4486584,9.11507829 63.4486584,9.11106549 L63.4486584,9.02710534 C63.4486584,7.20884331 61.9511642,5.72966299 60.1103902,5.72966299 L58.0388358,5.72966299 L58.0388358,7.98670942 C58.0388358,8.62597954 57.5141503,9.14424827 56.8669653,9.14424827 C56.2197804,9.14424827 55.6950949,8.62597954 55.6950949,7.98670942 L55.6950949,5.72966299 L46.1502885,5.72966299 L46.1502885,7.98670942 C46.1502885,8.62597954 45.625603,9.14424827 44.978418,9.14424827 C44.3312331,9.14424827 43.8065476,8.62597954 43.8065476,7.98670942 L43.8065476,5.72966299 L34.2617412,5.72966299 L34.2617412,7.98670942 C34.2617412,8.62597954 33.7370557,9.14424827 33.0898707,9.14424827 C32.4426858,9.14424827 31.9180003,8.62597954 31.9180003,7.98670942 L31.9180003,5.72966299 L22.3731938,5.72966299 L22.3731938,7.98670942 C22.3731938,8.62597954 21.8485084,9.14424827 21.2013234,9.14424827 C20.5541385,9.14424827 20.029453,8.62597954 20.029453,7.98670942 L20.029453,5.72966299 L14.6193179,5.72966299 L14.6193179,51.8424611 C14.6193179,52.4817313 14.0946324,53 13.4474475,53 C12.8002625,53 12.275577,52.4817313 12.275577,51.8424611 L12.275577,22.1026642 L9.55152519,22.1026642 C9.55058769,22.1026642 9.54965019,22.1028186 9.54855645,22.1028186 L3.13623775,22.1028186 C2.59577111,22.1028186 2.0867106,21.9670007 1.64233733,21.728239 C1.62468115,21.7188243 1.60843122,21.707249 1.59108753,21.6975256 C1.52077531,21.6578606 1.45077558,21.6175783 1.38390084,21.5729745 C0.549529103,21.0158124 0,20.0726498 0,19.0050903 L0,16.5407672 C0,15.9014971 0.52468545,15.3832284 1.17187042,15.3832284 C1.81905539,15.3832284 2.34374084,15.9014971 2.34374084,16.5407672 L2.34374084,19.0050903 C2.34374084,19.274874 2.48264655,19.5131726 2.69358323,19.6539294 C2.73342682,19.6806299 2.77623915,19.7031634 2.82077023,19.7223013 C2.82327022,19.7233817 2.82545771,19.7250794 2.8279577,19.7261598 C2.92264483,19.7658248 3.02670693,19.7877409 3.13592525,19.7877409 L6.5135683,19.7877409 C6.44731856,19.5375581 6.41216245,19.275337 6.41216245,19.0050903 L6.41216245,11.0639107 C6.41216245,10.793664 6.44747481,10.5312885 6.5135683,10.2811058 L3.13623775,10.2811058 C2.82530146,10.2811058 2.55827126,10.4606015 2.42858426,10.7186554 C2.37608447,10.823297 2.34374084,10.9398225 2.34374084,11.0645281 L2.34374084,11.9106118 C2.34374084,12.5498819 1.81905539,13.0681506 1.17187042,13.0681506 C0.52468545,13.0681506 0,12.5498819 0,11.9106118 L0,11.0639107 C0,10.5891654 0.111874563,10.1406577 0.306092554,9.73814287 C0.810309334,8.69203642 1.88749263,7.9654107 3.13592525,7.9654107 L12.275577,7.9654107 L12.275577,4.57212413 C12.275577,3.93285401 12.8002625,3.41458528 13.4474475,3.41458528 L20.029453,3.41458528 L20.029453,1.15753885 C20.029453,0.51826873 20.5541385,0 21.2013234,0 C21.8485084,0 22.3731938,0.51826873 22.3731938,1.15753885 L22.3731938,3.41458528 L31.9180003,3.41458528 L31.9180003,1.15753885 C31.9180003,0.51826873 32.4426858,0 33.0898707,0 C33.7370557,0 34.2617412,0.51826873 34.2617412,1.15753885 L34.2617412,3.41458528 L43.8065476,3.41458528 L43.8065476,1.15753885 C43.8065476,0.51826873 44.3312331,0 44.978418,0 C45.625603,0 46.1502885,0.51826873 46.1502885,1.15753885 L46.1502885,3.41458528 L55.6950949,3.41458528 L55.6950949,1.15753885 C55.6950949,0.51826873 56.2197804,0 56.8669653,0 C57.5141503,0 58.0388358,0.51826873 58.0388358,1.15753885 L58.0388358,3.41473962 L60.1107027,3.41473962 C62.8763169,3.41473962 65.1855266,5.37684515 65.6894309,7.96556504 L70.9248792,7.96556504 C70.9312854,7.96556504 70.9376916,7.96679975 70.9440978,7.96695409 C70.9637853,7.96726276 70.9831602,7.96957784 71.0028476,7.97096689 C71.036285,7.97328196 71.0695661,7.97497969 71.1025347,7.97991852 C71.1167534,7.98207926 71.1305034,7.98609206 71.1447221,7.98871582 C71.1825344,7.99581539 71.2203468,8.0030693 71.2573779,8.01387299 C71.2592529,8.01433601 71.2611279,8.01526204 71.2631591,8.01587939 C71.36144,8.04520371 71.4561271,8.08625776 71.5440955,8.14027624 L78.5440682,12.4447774 Z M9.54699395,19.7877409 L12.2754208,19.7877409 L12.2754208,10.2804884 L9.5604314,10.2804884 C9.55636892,10.2804884 9.55246268,10.2811058 9.5484002,10.2811058 C9.11137065,10.2811058 8.75590329,10.6322259 8.75590329,11.0639107 L8.75590329,19.0050903 C8.75590329,19.4361577 9.11074566,19.7869692 9.54699395,19.7877409 Z M77.6559466,15.0345777 C77.6559466,14.9117242 77.621728,14.6050536 77.3048542,14.410124 L72.0961246,11.2075999 L72.0961246,18.8615554 L77.3048542,15.6590313 C77.621728,15.4641017 77.6559466,15.1574311 77.6559466,15.0345777 Z M65.7925555,10.2804884 L65.7925555,19.7877409 L69.7523838,19.7877409 L69.7523838,10.2804884 L65.7925555,10.2804884 Z M64.8173951,32 C65.4704213,32 65.9998423,32.5247169 66,33.1719407 L66,56.8742077 C66,56.8870209 65.9985811,56.8996779 65.9981081,56.9124911 C65.9976351,56.9265544 65.9970045,56.9403051 65.9960585,56.9542122 C65.99259,57.0026524 65.9872296,57.0507801 65.9779277,57.0981265 C65.9776123,57.1000016 65.9774547,57.1018767 65.9771394,57.1037518 C65.9672068,57.1529733 65.9530174,57.2009448 65.9369361,57.2481349 C65.9326793,57.2607919 65.9281072,57.2732926 65.9233774,57.2857933 C65.9065078,57.3301708 65.8877463,57.3736107 65.865674,57.4156443 C65.8640974,57.4187695 65.8628361,57.4218947 65.8612595,57.4250198 C65.8374529,57.4695536 65.8097048,57.5117434 65.7800648,57.5529958 C65.7723395,57.5639339 65.7642989,57.5745595 65.7561006,57.5851851 C65.7248839,57.6256561 65.6919331,57.664877 65.655356,57.7012853 C65.6548831,57.7019104 65.6544101,57.7025354 65.6539371,57.7030042 L52.5841114,70.6565432 C52.5562057,70.684201 52.5270386,70.7102963 52.496768,70.7348289 C52.481475,70.7473296 52.4650784,70.7581114 52.4493124,70.7696746 C52.4338618,70.7810815 52.4188841,70.7931134 52.4029605,70.8035827 C52.3843567,70.8159272 52.3648069,70.8263965 52.3455724,70.8376471 C52.331383,70.8457726 52.3178243,70.8548356 52.3033196,70.8624923 C52.2840851,70.8726491 52.2640624,70.8810871 52.2443549,70.8901501 C52.2289043,70.8971817 52.2140843,70.9049947 52.198476,70.9114013 C52.1800298,70.9189017 52.160953,70.9248395 52.1421915,70.9314024 C52.1246912,70.9374965 52.1073487,70.9445281 52.0895332,70.9498409 C52.0714023,70.95531 52.0527985,70.9590602 52.0343523,70.9635917 C52.0154331,70.9682795 51.9966716,70.9737485 51.9775948,70.9774987 C51.9577297,70.9814052 51.9377069,70.9834366 51.9176842,70.9864055 C51.8995533,70.9890619 51.8815801,70.9926558 51.8632916,70.9943747 C51.8297101,70.9976561 51.7959709,70.9989062 51.7620741,70.999375 C51.7573443,70.999375 51.7526145,71 51.7477271,71 L17.7332925,71 C14.5719016,71 12,68.4509508 12,65.31765 L12,57.1934443 C12,56.5462205 12.529421,56.0215036 13.1824472,56.0215036 C13.8354734,56.0215036 14.3648945,56.5462205 14.3648945,57.1934443 L14.3648945,65.31765 C14.3648945,67.1585345 15.8759044,68.6561185 17.7332925,68.6561185 L50.5652798,68.6561185 L50.5652798,56.8745202 C50.5652798,56.2272964 51.0947009,55.7025795 51.7477271,55.7025795 L63.6349479,55.7025795 L63.6349479,33.1719407 C63.6349479,32.5247169 64.1643689,32 64.8173951,32 Z M52.9300166,58.0464609 L52.9300166,66.9988381 L61.9626522,58.0464609 L52.9300166,58.0464609 Z M23.6683336,22.6390478 L21.3442013,20.2020865 C20.8852662,19.721036 20.8852662,18.9408075 21.3442013,18.4595927 C21.8029797,17.9783778 22.5470843,17.9783778 23.0060194,18.4595927 L24.4992427,20.025307 L27.9939806,16.3609111 C28.452759,15.8796963 29.1968637,15.8796963 29.6557987,16.3609111 C30.1147338,16.8419617 30.1147338,17.6221901 29.6557987,18.103405 L25.3301517,22.6390478 C25.1007625,22.8797374 24.7999243,23 24.4992427,23 C24.1985611,23 23.8977228,22.8795731 23.6683336,22.6390478 Z M38.1867879,18 C37.5313645,18 37,17.5522667 37,17 C37,16.4477333 37.5313645,16 38.1867879,16 L54.8132121,16 C55.4686355,16 56,16.4477333 56,17 C56,17.5522667 55.4686355,18 54.8132121,18 L38.1867879,18 Z M38.1519853,24 C37.5157822,24 37,23.5522667 37,23 C37,22.4477333 37.5157822,22 38.1519853,22 L43.8480147,22 C44.4842178,22 45,22.4477333 45,23 C45,23.5522667 44.4842178,24 43.8480147,24 L38.1519853,24 Z M21.3443143,37.2019222 C20.8852286,36.7207074 20.8852286,35.9404789 21.3443143,35.4594284 C21.8030867,34.9782135 22.5471816,34.9780493 23.0061107,35.4594284 L24.4993145,37.025307 L27.9940068,33.3609111 C28.4527792,32.8796963 29.1968741,32.8796963 29.6558032,33.3609111 C30.1147323,33.8419617 30.1147323,34.6221901 29.6558032,35.103405 L25.3302127,39.6390478 C25.1099142,39.8702084 24.8109601,40 24.4993145,40 C24.1876689,40 23.8887148,39.8702084 23.6684163,39.6390478 L21.3443143,37.2019222 Z M38.1867879,35 C37.5313645,35 37,34.5522667 37,34 C37,33.4477333 37.5313645,33 38.1867879,33 L54.8132121,33 C55.4686355,33 56,33.4477333 56,34 C56,34.5522667 55.4686355,35 54.8132121,35 L38.1867879,35 Z M38.1519853,40 C37.5157822,40 37,39.5522667 37,39 C37,38.4477333 37.5157822,38 38.1519853,38 L43.8480147,38 C44.4842178,38 45,38.4477333 45,39 C45,39.5522667 44.4842178,40 43.8480147,40 L38.1519853,40 Z M38.1867879,51 C37.5313645,51 37,50.5522667 37,50 C37,49.4477333 37.5313645,49 38.1867879,49 L54.8132121,49 C55.4686355,49 56,49.4477333 56,50 C56,50.5522667 55.4686355,51 54.8132121,51 L38.1867879,51 Z M38.1519853,56 C37.5157822,56 37,55.5522667 37,55 C37,54.4477333 37.5157822,54 38.1519853,54 L43.8480147,54 C44.4842178,54 45,54.4477333 45,55 C45,55.5522667 44.4842178,56 43.8480147,56 L38.1519853,56 Z M25.5,58 C22.4674037,58 20,55.5327568 20,52.5 C20,49.4672432 22.4672432,47 25.5,47 C28.5327568,47 31,49.4672432 31,52.5 C31,55.5327568 28.5325963,58 25.5,58 Z M25.5,49.4064405 C23.794315,49.4064405 22.4064405,50.7941545 22.4064405,52.5 C22.4064405,54.2058455 23.7941545,55.5935595 25.5,55.5935595 C27.2058455,55.5935595 28.5935595,54.2058455 28.5935595,52.5 C28.5935595,50.7941545 27.205685,49.4064405 25.5,49.4064405 Z" id="Combined-Shape"></path>
                            </g>
                        </g>
                    </g>
                </g>
            </g>
        </g>
    </g>
</svg>