<?xml version="1.0" encoding="UTF-8"?>
<svg width="50px" height="45px" viewBox="0 0 50 45" version="1.1" xmlns="http://www.w3.org/2000/svg" xmlns:xlink="http://www.w3.org/1999/xlink">
    <!-- Generator: Sketch 52.5 (67469) - http://www.bohemiancoding.com/sketch -->
    <title>menu-icon</title>
    <desc>Created with Sketch.</desc>
    <g id="Page-1" stroke="none" stroke-width="1" fill="none" fill-rule="evenodd">
        <g id="Landing-Page-750px" transform="translate(-650.000000, -96.000000)" fill="#636185">
            <g id="navbar" transform="translate(0.000000, 65.000000)">
                <g id="menu-icon" transform="translate(650.000000, 31.000000)">
                    <path d="M4.11820692,8.23170732 C1.76494582,8.23170732 0,6.49261422 0,4.17382343 C0,1.85503263 1.76494582,0 4.11820692,0 L45.6532653,0 C48.0065264,0 49.8891353,1.85503263 49.8891353,4.17382343 C49.8891353,6.49261422 48.0065264,8.23170732 45.6532653,8.23170732 L4.11820692,8.23170732 Z" id="Path"></path>
                    <path d="M45.6532653,18.1097561 C48.0065264,18.1097561 49.8891353,19.9647887 49.8891353,22.2835795 C49.8891353,24.6023703 48.0065264,26.3414634 45.6532653,26.3414634 L4.11820692,26.3414634 C1.76494582,26.3414634 0,24.6023703 0,22.2835795 C0,19.9647887 1.76494582,18.1097561 4.11820692,18.1097561 L45.6532653,18.1097561 Z" id="Path"></path>
                    <path d="M45.6532653,36.7682927 C48.0065264,36.7682927 49.8891353,38.5073858 49.8891353,40.8261766 C49.8891353,43.1449674 48.0065264,45 45.6532653,45 L4.11820692,45 C1.76494582,45 0,43.1449674 0,40.8261766 C0,38.5073858 1.76494582,36.7682927 4.11820692,36.7682927 L45.6532653,36.7682927 Z" id="Path"></path>
                </g>
            </g>
        </g>
    </g>
</svg>