<?xml version="1.0" encoding="UTF-8"?>
<svg width="97px" height="28px" viewBox="0 0 97 28" version="1.1" xmlns="http://www.w3.org/2000/svg" xmlns:xlink="http://www.w3.org/1999/xlink">
    <!-- Generator: Sketch 52.5 (67469) - http://www.bohemiancoding.com/sketch -->
    <title>Planeeet Logo</title>
    <desc>Created with Sketch.</desc>
    <defs>
        <linearGradient x1="11.7936568%" y1="90.5966969%" x2="90.4071046%" y2="9.44992009%" id="linearGradient-1">
            <stop stop-color="#01B6EA" offset="0%"></stop>
            <stop stop-color="#5D449A" offset="100%"></stop>
        </linearGradient>
    </defs>
    <g id="Page-1" stroke="none" stroke-width="1" fill="none" fill-rule="evenodd">
        <g id="Landing-Page-Windows-Btn-Hover" transform="translate(-684.000000, -3693.000000)">
            <g id="footer" transform="translate(0.000000, 3080.000000)">
                <g id="footer-bottom" transform="translate(0.000000, 567.000000)">
                    <g id="Planeeet-Logo" transform="translate(684.000000, 46.000000)">
                        <path d="M28.9844783,18.8251748 C28.7204853,18.8280404 28.4675745,18.7223538 28.2883253,18.5342657 C28.1010311,18.3534035 27.9970636,18.1067354 28.0000632,17.8503497 L28.0000632,7.40699301 C28.0011654,7.13598802 28.1035946,6.87458188 28.2883253,6.67132867 C28.4618772,6.46203563 28.7170559,6.33189736 28.9931261,6.31188811 C29.990513,6.21864802 30.9513867,6.17202797 31.8757472,6.17202797 C33.6389505,6.17202797 34.9601518,6.51095571 35.8393512,7.18881119 C36.7185507,7.86666667 37.1591113,8.84941725 37.161033,10.1370629 C37.161033,11.562704 36.735366,12.639627 35.8840319,13.3678322 C35.0326978,14.0960373 33.7729923,14.4620047 32.1049156,14.4657343 C31.7205661,14.4657343 31.2098617,14.4428904 30.5728025,14.3972028 C30.5329189,14.3908186 30.4923096,14.4034829 30.4637265,14.4312191 C30.4351434,14.4589552 30.4220923,14.4983612 30.4286714,14.5370629 L30.4286714,17.8531469 C30.4201701,18.3903911 29.9734041,18.8239184 29.419754,18.8321678 L28.9844783,18.8251748 Z M30.4257888,8.2951049 L30.4257888,12.4153846 C30.4257888,12.4951049 30.4733521,12.5454545 30.5699199,12.5692308 C30.9999987,12.6244535 31.4332748,12.6529498 31.8670994,12.6545455 C32.8183643,12.6545455 33.543824,12.4522145 34.0434783,12.0475524 C34.5431326,11.6428904 34.7944011,11.0624709 34.7972837,10.3062937 C34.7972837,8.79114219 33.8224773,8.03356643 31.8728646,8.03356643 C31.4390148,8.0344701 31.0056927,8.06296942 30.5756851,8.11888112 C30.4854941,8.12913405 30.4202264,8.20736977 30.4286714,8.2951049 L30.4257888,8.2951049 Z M39.4829843,18.8251748 C38.9293342,18.8169254 38.4825683,18.3833981 38.4740669,17.8461538 L38.4740669,6.97902098 C38.4825683,6.44177675 38.9293342,6.00824944 39.4829843,6 L39.9413211,6 C40.4956085,6.00678534 40.9432459,6.44115827 40.9502384,6.97902098 L40.9502384,17.8503497 C40.9432459,18.3882124 40.4956085,18.8225853 39.9413211,18.8293706 L39.4829843,18.8251748 Z M45.1372456,18.9958042 C44.3967672,19.0183413 43.6795944,18.7430095 43.1554436,18.234965 C42.6336892,17.7286713 42.3723315,17.0703963 42.3713706,16.2601399 C42.3713706,15.2699301 42.7619658,14.5011655 43.5431561,13.9538462 C44.3243464,13.4065268 45.5191929,13.1328671 47.1276954,13.1328671 L47.8483507,13.1328671 C47.891646,13.1373282 47.9346991,13.1225591 47.9654856,13.0926849 C47.9962721,13.0628107 48.0114921,13.0210333 48.0068949,12.979021 L48.0068949,12.8391608 C48.0068949,12.3146853 47.8786182,11.9482517 47.6206237,11.7370629 C47.3626291,11.5258741 46.8999684,11.420979 46.2456134,11.420979 C45.4003395,11.4433056 44.5608377,11.563504 43.7449396,11.779021 C43.545738,11.8365234 43.3301319,11.795203 43.1684154,11.6685315 C42.9954343,11.5479002 42.8950829,11.3520976 42.9003316,11.1454545 C42.900821,10.8923673 42.9874658,10.6465273 43.1467957,10.4461538 C43.2987797,10.2429868 43.5261738,10.1050768 43.7809724,10.0615385 C44.6073059,9.87556898 45.4521507,9.77801719 46.3003832,9.77062937 C47.8031897,9.77062937 48.8543855,10.032634 49.4539707,10.5566434 C50.0535559,11.0806527 50.352868,11.9981352 50.3519071,13.3090909 L50.3519071,17.8559441 C50.3554034,18.1124215 50.2513598,18.3592702 50.063645,18.5398601 C49.8846102,18.7282422 49.6315578,18.833988 49.367492,18.8307692 L49.1743564,18.8307692 C48.9050098,18.8360951 48.6449601,18.7351576 48.4537012,18.551049 C48.2547691,18.3692387 48.1403493,18.1168996 48.1366128,17.8517483 L48.1366128,17.6125874 C48.1370647,17.6080158 48.1353882,17.6034874 48.1320416,17.60024 C48.128695,17.5969925 48.1240283,17.5953657 48.1193171,17.5958042 C48.0948148,17.5958042 48.0832843,17.5958042 48.0832843,17.6125874 C47.3645508,18.5347319 46.3825379,18.9958042 45.1372456,18.9958042 Z M47.1276954,14.551049 C45.4480882,14.551049 44.608765,15.0526807 44.6097259,16.0559441 C44.5956555,16.3817482 44.7124321,16.7001367 44.9354621,16.9440559 C45.1492845,17.1711081 45.454606,17.2962584 45.7714222,17.2867133 C46.3752985,17.311487 46.9626248,17.0916235 47.3928966,16.6797203 C47.8041505,16.2759907 48.0092971,15.7202797 48.0083362,15.0125874 L48.0083362,14.7048951 C48.0129334,14.6628828 47.9977134,14.6211054 47.9669269,14.5912312 C47.9361405,14.561357 47.8930873,14.5465879 47.849792,14.551049 L47.1276954,14.551049 Z M53.3527157,18.8251748 C52.7984283,18.8183895 52.3507909,18.3840166 52.3437983,17.8461538 L52.3437983,10.9104895 C52.3507909,10.3726268 52.7984283,9.93825387 53.3527157,9.93146853 L53.5804428,9.93146853 C53.847799,9.92544132 54.1058909,10.0266308 54.2938915,10.2111888 C54.4856298,10.3942168 54.596278,10.6425716 54.602332,10.9034965 L54.602332,11.0237762 C54.6018801,11.0283478 54.6035566,11.0328762 54.6069032,11.0361237 C54.6102498,11.0393711 54.6149165,11.0409979 54.6196277,11.0405594 C54.6333519,11.0394375 54.646174,11.0334653 54.6556604,11.0237762 C55.4541465,10.1846154 56.3876353,9.76270396 57.4561268,9.75804196 C58.5246184,9.75337995 59.3024457,10.0470862 59.7896086,10.6391608 C60.2767716,11.2247086 60.5208335,12.2037296 60.5217944,13.5762238 L60.5217944,17.848951 C60.513293,18.3861953 60.0665271,18.8197226 59.512877,18.827972 L59.2130844,18.827972 C58.9491639,18.8304871 58.6963933,18.724859 58.5169314,18.5370629 C58.3296372,18.3562007 58.2256697,18.1095326 58.2286693,17.8531469 L58.2286693,13.7482517 C58.2286693,12.8932401 58.1138449,12.3090909 57.8841961,11.9958042 C57.6545473,11.6825175 57.2466564,11.5258741 56.6605234,11.5258741 C56.1800866,11.5258741 55.7337607,11.7254079 55.3215459,12.1244755 C54.9093311,12.5235431 54.7037041,12.9505828 54.704665,13.4055944 L54.704665,17.8503497 C54.6976725,18.3882124 54.2500351,18.8225853 53.6957476,18.8293706 L53.3527157,18.8251748 Z M66.8203215,18.9958042 C65.2829236,18.9958042 64.0996076,18.6055944 63.2703736,17.8251748 C62.4411396,17.0447552 62.027003,15.8965035 62.0279639,14.3804196 C62.0279639,12.8773893 62.3979003,11.7324009 63.137773,10.9454545 C63.8776458,10.1585082 64.9466178,9.76503497 66.344689,9.76503497 C68.9505785,9.76503497 70.2890755,11.2009324 70.3601802,14.0727273 C70.3776939,14.3339363 70.2664502,14.5877163 70.0603876,14.7566434 C69.8595401,14.9377177 69.5951461,15.0377409 69.3209953,15.0363636 L64.5127833,15.0363636 C64.4061263,15.0363636 64.3686522,15.0867133 64.3888306,15.1888112 C64.4714657,15.9524476 64.7328234,16.5081585 65.1729035,16.8559441 C65.6125032,17.2041958 66.2567691,17.3776224 67.101377,17.3776224 C67.6963431,17.3658998 68.2871061,17.2779596 68.8583346,17.1160839 C69.0608334,17.0569229 69.2802609,17.094834 69.4492719,17.2181818 C69.6244933,17.3322219 69.7273013,17.5254109 69.7216796,17.7300699 C69.7271456,17.9827005 69.6432091,18.2295163 69.4838634,18.4293706 C69.3316204,18.6249707 69.1076197,18.7561899 68.8583346,18.7958042 C68.1881854,18.9321457 67.5050327,18.9991867 66.8203215,18.9958042 Z M66.3792805,11.3552448 C65.7806561,11.3552448 65.3199172,11.5174825 64.9970636,11.841958 C64.6742101,12.1664336 64.4719462,12.6876457 64.3902719,13.4055944 C64.3829937,13.4444285 64.3958139,13.4842563 64.4245765,13.5121665 C64.453339,13.5400767 64.494383,13.552517 64.5344029,13.5454545 L67.9863417,13.5454545 C68.0263617,13.552517 68.0674057,13.5400767 68.0961682,13.5121665 C68.1249307,13.4842563 68.1377509,13.4444285 68.1304728,13.4055944 C68.0785856,12.039627 67.4948548,11.3561772 66.3792805,11.3552448 Z M76.2796426,18.9958042 C74.7422447,18.9958042 73.5589287,18.6055944 72.7296947,17.8251748 C71.9004607,17.0447552 71.4863242,15.8965035 71.487285,14.3804196 C71.487285,12.8773893 71.8572214,11.7324009 72.5970942,10.9454545 C73.3369669,10.1585082 74.4059389,9.76503497 75.8040101,9.76503497 C78.4098996,9.76503497 79.7483967,11.2009324 79.8195013,14.0727273 C79.8370151,14.3339363 79.7257714,14.5877163 79.5197087,14.7566434 C79.3188613,14.9377177 79.0544672,15.0377409 78.7803164,15.0363636 L73.9706631,15.0363636 C73.8654474,15.0363636 73.8265321,15.0867133 73.8481517,15.1888112 C73.9307869,15.9524476 74.1921445,16.5081585 74.6322247,16.8559441 C75.0723048,17.2037296 75.7151293,17.3776224 76.5606982,17.3776224 C77.1568579,17.3680884 77.7490947,17.2820263 78.3219797,17.1216783 C78.5244785,17.0625173 78.743906,17.1004284 78.912917,17.2237762 C79.0881384,17.3378163 79.1909464,17.5310053 79.1853247,17.7356643 C79.1907906,17.9882949 79.1068542,18.2351107 78.9475084,18.434965 C78.795064,18.6303481 78.5711607,18.7615102 78.3219797,18.8013986 C77.6501981,18.9360834 76.96559,19.0012497 76.2796426,18.9958042 Z M75.8386016,11.3552448 C75.2390164,11.3552448 74.7782775,11.5174825 74.4563848,11.841958 C74.1344921,12.1664336 73.9317477,12.6876457 73.8481517,13.4055944 C73.8408735,13.4444285 73.8536937,13.4842563 73.8824563,13.5121665 C73.9112188,13.5400767 73.9522628,13.552517 73.9922828,13.5454545 L77.4442215,13.5454545 C77.4842415,13.552517 77.5252855,13.5400767 77.554048,13.5121665 C77.5828106,13.4842563 77.5956308,13.4444285 77.5883526,13.4055944 C77.5335828,12.039627 76.9503325,11.3561772 75.8386016,11.3552448 Z M85.7389637,18.9958042 C84.2015658,18.9958042 83.0182499,18.6055944 82.1890159,17.8251748 C81.3597819,17.0447552 80.9456453,15.8965035 80.9466062,14.3804196 C80.9466062,12.8773893 81.3165425,11.7324009 82.0564153,10.9454545 C82.796288,10.1585082 83.86526,9.76503497 85.2633313,9.76503497 C87.8692207,9.76503497 89.2077178,11.2009324 89.2788225,14.0727273 C89.2963362,14.3339363 89.1850925,14.5877163 88.9790299,14.7566434 C88.7781824,14.9377177 88.5137884,15.0377409 88.2396375,15.0363636 L83.4299842,15.0363636 C83.3247686,15.0363636 83.2858532,15.0867133 83.3074728,15.1888112 C83.390108,15.9524476 83.6514656,16.5081585 84.0915458,16.8559441 C84.5316259,17.2037296 85.1744504,17.3776224 86.0200193,17.3776224 C86.616179,17.3680884 87.2084158,17.2820263 87.7813008,17.1216783 C87.9837996,17.0625173 88.2032271,17.1004284 88.3722381,17.2237762 C88.5474595,17.3378163 88.6502675,17.5310053 88.6446458,17.7356643 C88.6501118,17.9882949 88.5661753,18.2351107 88.4068296,18.434965 C88.2543851,18.6303481 88.0304818,18.7615102 87.7813008,18.8013986 C87.1095192,18.9360834 86.4249111,19.0012497 85.7389637,18.9958042 Z M85.2979227,11.3552448 C84.6983375,11.3552448 84.2375986,11.5174825 83.9157059,11.841958 C83.5938132,12.1664336 83.3910689,12.6876457 83.3074728,13.4055944 C83.3001947,13.4444285 83.3130149,13.4842563 83.3417774,13.5121665 C83.37054,13.5400767 83.411584,13.552517 83.4516039,13.5454545 L86.9035427,13.5454545 C86.9435626,13.552517 86.9846066,13.5400767 87.0133692,13.5121665 C87.0421317,13.4842563 87.0549519,13.4444285 87.0476737,13.4055944 C86.9967474,12.039627 86.4134971,11.3561772 85.2979227,11.3552448 Z M90.6221239,11.9356643 C90.3951859,11.9391008 90.177353,11.8491635 90.0225387,11.6881119 C89.8616153,11.5317462 89.7727183,11.3188636 89.7760746,11.0979021 C89.7753028,10.8800644 89.8642384,10.670953 90.0231129,10.517049 C90.1819874,10.3631449 90.3976357,10.2772014 90.6221239,10.2783217 L91.4681732,10.2783217 C91.5112318,10.2823295 91.5538687,10.2673596 91.5843155,10.237544 C91.6147623,10.2077284 91.6297993,10.1662198 91.625276,10.1244755 L91.625276,8.0041958 C91.6226665,7.7482935 91.7266041,7.50220071 91.9135381,7.32167832 C92.0927873,7.13359023 92.3456981,7.02790362 92.6096911,7.03076923 L92.9613709,7.03076923 C93.515021,7.03901867 93.9617869,7.47254598 93.9702883,8.00979021 L93.9702883,10.1244755 C93.965691,10.1664878 93.9809111,10.2082653 94.0116976,10.2381394 C94.042484,10.2680136 94.0855372,10.2827827 94.1288325,10.2783217 L96.136578,10.2783217 C96.3642254,10.2753836 96.583486,10.3615982 96.7448111,10.5174825 C96.9104058,10.6673806 97.0030556,10.8781732 96.9999231,11.0979021 C96.9999231,11.5613578 96.612745,11.9370629 96.1351367,11.9370629 L94.1230672,11.9370629 C94.0178515,11.9370629 93.964523,11.9832168 93.964523,12.0769231 L93.964523,15.5300699 C93.964523,16.2759907 94.0466778,16.7547786 94.2109872,16.9664336 C94.3752966,17.1818182 94.7154458,17.2909091 95.2328763,17.2909091 C95.4448869,17.2954405 95.6569358,17.2837492 95.867053,17.2559441 C96.0853619,17.2292026 96.3059659,17.2842199 96.4839339,17.4097902 C96.6552742,17.5269068 96.7544004,17.7198102 96.7476937,17.9230769 C96.7487709,18.170632 96.6582453,18.4103395 96.4925818,18.5986014 C96.3400515,18.7882332 96.1138336,18.9086122 95.867053,18.9314685 C95.3496225,18.9762238 94.9619099,19 94.7039154,19 C93.56528,19 92.766794,18.7636364 92.3084572,18.2909091 C91.8501205,17.8181818 91.6209521,16.972028 91.6209521,15.7524476 L91.6209521,12.0727273 C91.6209521,11.9818182 91.5690649,11.9328671 91.4638492,11.9328671 L90.6221239,11.9356643 Z" id="Combined-Shape" fill="#231F20" fill-rule="nonzero"></path>
                        <path d="M19.4112371,3.89496105 C21.7671151,6.66255474 22.5812613,10.4271162 21.5797318,13.921946 C20.5782023,17.4167757 17.8941432,20.1772617 14.4306865,21.2745557 C14.3207972,21.3110078 14.2058072,21.3297084 14.090039,21.3299545 C13.5475361,21.3299428 13.0856098,20.9350728 13.0007818,20.3988214 C12.9159539,19.8625699 13.2334203,19.3442161 13.7493914,19.1765041 C17.3449511,18.0258569 19.7863651,14.6829192 19.7902075,10.9050387 C19.7896135,8.91651031 19.0998744,6.98974493 17.8385811,5.45322957 L2.25963443,20.8810822 C1.98821931,21.1925515 1.5656776,21.3261761 1.1647117,21.2273408 C0.763745801,21.1285054 0.451547429,20.8137724 0.355719162,20.4117802 C0.259890894,20.009788 0.396491116,19.5879003 0.709688209,19.3185523 L16.234699,3.93473454 C14.7212251,2.81399624 12.8884919,2.20857886 11.0057595,2.20742869 C6.150113,2.20742869 2.20569857,6.10949215 2.20569857,10.9050387 C2.2047134,11.7510148 2.32858862,12.5924976 2.57331402,13.4022456 C2.68740931,13.7798176 2.59156384,14.1896256 2.32188168,14.4772988 C2.05219953,14.764972 1.64965181,14.886806 1.26587437,14.7969072 C0.882096925,14.7070084 0.575394677,14.4190344 0.461299391,14.0414624 C0.1543348,13.0243612 -0.00110128288,11.9675213 5.87301213e-06,10.9050387 C5.87301213e-06,4.89213927 4.93371747,-8.52651283e-14 10.9986627,-8.52651283e-14 C13.4734663,0.000588180072 15.8757673,0.836350092 17.8172906,2.37220458 L19.5105927,0.696036074 C19.7835883,0.39090267 20.202972,0.262150597 20.5999779,0.361591443 C20.9969838,0.461032289 21.3063228,0.772312596 21.4035125,1.17016893 C21.5007023,1.56802526 21.3697596,1.9870285 21.0633776,2.25856604 L19.4112371,3.89496105 Z M6.96198959,10.021499 L6.96198959,10.0143966 C6.68899392,10.31953 6.26961028,10.4482821 5.87260436,10.3488412 C5.47559843,10.2494004 5.16625948,9.93812006 5.06906972,9.54026373 C4.97187995,9.14240739 5.10282263,8.72340415 5.40920464,8.45186662 L9.04987502,4.85236578 C9.32287069,4.54723237 9.74225433,4.4184803 10.1392603,4.51792114 C10.5362662,4.61736199 10.8456051,4.9286423 10.9427949,5.32649863 C11.0399847,5.72435496 10.909042,6.1433582 10.60266,6.41489574 L6.96198959,10.021499 Z M17.0749629,11.5186868 C17.2807293,11.7268107 17.3954358,12.0082282 17.3938386,12.3010071 C17.3922414,12.593786 17.2744715,12.8739333 17.0664467,13.0797963 L2.32634457,27.6809285 C1.89324343,28.1096635 1.19486057,28.1058477 0.766462796,27.6724056 C0.338065018,27.2389636 0.341877846,26.5400311 0.774978984,26.1112962 L15.5136617,11.5101639 C15.9475287,11.081955 16.6457893,11.0857667 17.0749629,11.5186868 Z" id="Combined-Shape" fill="url(#linearGradient-1)"></path>
                    </g>
                </g>
            </g>
        </g>
    </g>
</svg>