<?xml version="1.0" encoding="UTF-8"?>
<svg width="151px" height="129px" viewBox="0 0 151 129" version="1.1" xmlns="http://www.w3.org/2000/svg" xmlns:xlink="http://www.w3.org/1999/xlink">
    <!-- Generator: Sketch 52.5 (67469) - http://www.bohemiancoding.com/sketch -->
    <title>Group 4</title>
    <desc>Created with Sketch.</desc>
    <defs>
        <linearGradient x1="4.86244777%" y1="50%" x2="96.6726075%" y2="50%" id="linearGradient-1">
            <stop stop-color="#8990F7" offset="0%"></stop>
            <stop stop-color="#A079FF" offset="100%"></stop>
        </linearGradient>
    </defs>
    <g id="Page-1" stroke="none" stroke-width="1" fill="none" fill-rule="evenodd">
        <g id="Landing-Page" transform="translate(-1090.000000, -942.000000)" fill-rule="nonzero">
            <g id="features" transform="translate(0.000000, 769.000000)">
                <g id="report-card" transform="translate(1014.000000, 120.000000)">
                    <g id="Group-4" transform="translate(55.000000, 38.000000)">
                        <path d="M38.2530168,108.680695 C19.383755,56.6806954 8.73140603,45.1806954 50.6385201,31.1806954 C92.5456342,17.1806954 143.544609,13.9034581 158.044609,50.9034581 C172.544609,87.9034581 138.609221,114.403458 133.149978,114.403458 C127.690735,114.403458 57.1222785,160.680695 38.2530168,108.680695 Z" id="Path-5" fill-opacity="0.5" fill="#E9E9F3"></path>
                        <path d="M30.9251256,109.054883 C12.0558638,57.0548832 1.40351482,45.5548832 43.3106289,31.5548832 C85.217743,17.5548832 149.989689,10.5548832 164.489689,47.5548832 C178.989689,84.5548832 139.328261,73.7776459 139.328261,101.277646 C139.328261,128.777646 49.7943873,161.054883 30.9251256,109.054883 Z" id="Path-5-Copy" fill-opacity="0.5" fill="#E9E9F3" transform="translate(91.000000, 78.500000) rotate(163.000000) translate(-91.000000, -78.500000) "></path>
                        <polygon id="report-icon-bg" fill="#FFFFFF" points="65 107 120.5 107 120.5 74 113.5 74 113.5 80.5 108.5 80.5 108.5 71.5 107.5 60.5 103.5 55.6808795 96.5 49.3076923 64 49.3076923 63 52.4686203 63.5 105.5"></polygon>
                        <g id="report-icon" transform="translate(62.000000, 48.000000)" fill="url(#linearGradient-1)" stroke="url(#linearGradient-1)" stroke-width="0.5">
                            <path d="M58.828125,24.4627734 C59.4753516,24.4627734 60,24.9875391 60,25.6346484 L60,58.828125 C60,59.4752344 59.4753516,60 58.828125,60 L3.515625,60 C1.57710938,60 0,58.4228906 0,56.484375 L0,3.515625 C0,1.57710938 1.57710938,0 3.515625,0 L34.9189453,0 C35.2297266,0 35.5277344,0.123515625 35.7475781,0.343242188 L46.9975781,11.5935938 C47.2173047,11.8134375 47.3408203,12.1114453 47.3408203,12.4222266 L47.3408203,28.0078125 C47.3408203,28.6549219 46.8161719,29.1796875 46.1689453,29.1796875 C45.5217187,29.1796875 44.9970703,28.6549219 44.9970703,28.0078125 L44.9970703,13.5941016 L37.2626953,13.5941016 C35.3241797,13.5941016 33.7470703,12.0169922 33.7470703,10.0784766 L33.7470703,2.34375 L3.515625,2.34375 C2.86945313,2.34375 2.34375,2.86945313 2.34375,3.515625 L2.34375,56.484375 C2.34375,57.1305469 2.86945313,57.65625 3.515625,57.65625 L13.59375,57.65625 L13.59375,48.3251953 C13.59375,47.6780859 14.1183984,47.1533203 14.765625,47.1533203 L22.265625,47.1533203 C22.9128516,47.1533203 23.4375,47.6780859 23.4375,48.3251953 L23.4375,57.65625 L25.78125,57.65625 L25.78125,41.6015625 C25.78125,40.9544531 26.3058984,40.4296875 26.953125,40.4296875 L34.453125,40.4296875 C35.1003516,40.4296875 35.625,40.9544531 35.625,41.6015625 L35.625,57.65625 L37.96875,57.65625 L37.96875,33.3984375 C37.96875,32.7513281 38.4933984,32.2265625 39.140625,32.2265625 L46.640625,32.2265625 C47.2878516,32.2265625 47.8125,32.7513281 47.8125,33.3984375 L47.8125,57.65625 L50.15625,57.65625 L50.15625,40.3416797 C50.15625,39.6945703 50.6808984,39.1698047 51.328125,39.1698047 C51.9753516,39.1698047 52.5,39.6945703 52.5,40.3416797 L52.5,57.65625 L55.078125,57.65625 L57.65625,57.65625 L57.65625,26.8065234 L52.5,26.8065234 L52.5,31.5526172 C52.5,32.1997266 51.9753516,32.7244922 51.328125,32.7244922 C50.6808984,32.7244922 50.15625,32.1997266 50.15625,31.5526172 L50.15625,25.6346484 C50.15625,24.9875391 50.6808984,24.4627734 51.328125,24.4627734 L58.828125,24.4627734 Z M36.0908203,4.00113281 L36.0908203,10.0784766 C36.0908203,10.7246484 36.6164063,11.2503516 37.2626953,11.2503516 L43.3399219,11.2503516 L36.0908203,4.00113281 Z M21.09375,57.65625 L21.09375,49.4970703 L15.9375,49.4970703 L15.9375,57.65625 L21.09375,57.65625 Z M33.28125,57.65625 L33.28125,42.7734375 L28.125,42.7734375 L28.125,57.65625 L33.28125,57.65625 Z M45.46875,57.65625 L45.46875,34.5703125 L40.3125,34.5703125 L40.3125,57.65625 L45.46875,57.65625 Z M52.1566406,34.9007812 C52.3746094,35.11875 52.5,35.4210937 52.5,35.7292969 C52.5,36.0375 52.3746094,36.3398437 52.1566406,36.5578125 C51.9386719,36.7757812 51.6363281,36.9011719 51.328125,36.9011719 C51.0199219,36.9011719 50.7175781,36.7756641 50.4996094,36.5578125 C50.2816406,36.3398437 50.15625,36.0375 50.15625,35.7292969 C50.15625,35.4210937 50.2816406,35.11875 50.4996094,34.9007812 C50.7175781,34.6817578 51.0199219,34.5574219 51.328125,34.5574219 C51.6363281,34.5574219 51.9386719,34.6817578 52.1566406,34.9007812 Z M17.0598047,6.41355469 C24.7766016,6.41355469 31.0546875,12.6916406 31.0546875,20.4085547 C31.0546875,21.0556641 30.5300391,21.5804297 29.8828125,21.5804297 L27.7748437,21.5804297 C27.1892578,26.9748047 22.6072266,31.186875 17.0598047,31.186875 C11.1166406,31.186875 6.28148437,26.3517187 6.28148437,20.4085547 C6.28148437,14.8611328 10.4936719,10.2791016 15.8879297,9.69351562 L15.8879297,7.58542969 C15.8879297,6.93832031 16.4125781,6.41355469 17.0598047,6.41355469 Z M17.0598047,28.8430078 C21.3128906,28.8430078 24.8409375,25.6783594 25.4131641,21.5803125 L17.0598047,21.5803125 C16.4125781,21.5803125 15.8879297,21.0555469 15.8879297,20.4084375 L15.8879297,12.0550781 C11.7898828,12.6273047 8.62523437,16.1553516 8.62523437,20.4084375 C8.62523437,25.0592578 12.4089844,28.8430078 17.0598047,28.8430078 Z M18.2316797,19.2366797 L28.6524609,19.2366797 C28.1014453,13.7462109 23.7221484,9.36679687 18.2316797,8.81578125 L18.2316797,19.2365625 L18.2316797,19.2366797 Z M29.8828125,34.4824219 C30.5300391,34.4824219 31.0546875,35.0071875 31.0546875,35.6542969 C31.0546875,36.3014062 30.5300391,36.8261719 29.8828125,36.8261719 L7.5,36.8261719 C6.85277344,36.8261719 6.328125,36.3014062 6.328125,35.6542969 C6.328125,35.0071875 6.85277344,34.4824219 7.5,34.4824219 L29.8828125,34.4824219 Z M15,40.1367188 C15.6472266,40.1367188 16.171875,40.6614844 16.171875,41.3085938 C16.171875,41.9557031 15.6472266,42.4804688 15,42.4804688 L7.5,42.4804688 C6.85277344,42.4804688 6.328125,41.9557031 6.328125,41.3085938 C6.328125,40.6614844 6.85277344,40.1367188 7.5,40.1367188 L15,40.1367188 Z M21.6972656,40.4800781 C21.9152344,40.6980469 22.040625,41.0003906 22.040625,41.3085938 C22.040625,41.6167969 21.9152344,41.9191406 21.6972656,42.1369922 C21.4792969,42.3550781 21.1769531,42.4804688 20.86875,42.4804688 C20.559375,42.4804688 20.2582031,42.3549609 20.0402344,42.1369922 C19.8210938,41.9191406 19.696875,41.6167969 19.696875,41.3085938 C19.696875,41.0003906 19.8210938,40.6980469 20.0402344,40.4800781 C20.2582031,40.2619922 20.559375,40.1367188 20.86875,40.1367188 C21.1769531,40.1367188 21.4792969,40.2621094 21.6972656,40.4800781 Z" id="Combined-Shape"></path>
                        </g>
                    </g>
                </g>
            </g>
        </g>
    </g>
</svg>