<?xml version="1.0" encoding="UTF-8"?>
<svg width="160px" height="37px" viewBox="0 0 160 37" version="1.1" xmlns="http://www.w3.org/2000/svg" xmlns:xlink="http://www.w3.org/1999/xlink">
    <!-- Generator: Sketch 52.5 (67469) - http://www.bohemiancoding.com/sketch -->
    <title>scrumbs logo-colored</title>
    <desc>Created with Sketch.</desc>
    <g id="Page-1" stroke="none" stroke-width="1" fill="none" fill-rule="evenodd">
        <g id="scrumbs-logo-colored">
            <path d="M38.8209396,34.8671141 L39.9269799,32.0880537 C41.613387,33.3455487 43.6672889,34.0120668 45.7707383,33.9844295 C46.72,33.9844295 47.4502013,33.8255034 47.9677852,33.5097987 C48.4529261,33.246261 48.7510054,32.7345579 48.7409396,32.1825503 C48.7584277,31.73403 48.5585117,31.3046104 48.2040268,31.0292617 C47.8453691,30.7457718 47.2354362,30.4966443 46.3720805,30.2861745 L43.7175839,29.6869799 C40.8110963,29.0555705 39.3578523,27.5701118 39.3578523,25.230604 C39.3432442,24.305106 39.6313181,23.4001624 40.178255,22.6534228 C40.7728919,21.869827 41.5705304,21.2638001 42.4848322,20.9009396 C43.5761329,20.4615404 44.7448546,20.2467878 45.9210738,20.2695302 C47.0370755,20.2665398 48.1463779,20.4419981 49.2069799,20.7892617 C50.2222494,21.1142128 51.1687727,21.6238793 51.9989262,22.2926174 L50.8284564,24.9793289 C49.2291722,23.7995526 47.5862192,23.2096644 45.8995973,23.2096644 C44.9932886,23.2096644 44.2881432,23.377897 43.7841611,23.7143624 C43.3005361,24.009333 43.0107926,24.5397107 43.0238926,25.1060403 C43.0058974,25.5239377 43.1742426,25.9282803 43.4834899,26.2099329 C43.7884564,26.4848322 44.3096198,26.7167785 45.0469799,26.9057718 L47.7637584,27.5071141 C49.3387024,27.8636242 50.491991,28.4162863 51.2236242,29.1651007 C51.9552573,29.9139151 52.3189262,30.8882326 52.3146309,32.0880537 C52.3552661,33.4810208 51.6895826,34.80027 50.5449664,35.5951678 C49.3637584,36.4542282 47.7523043,36.8837584 45.710604,36.8837584 C42.8227292,36.8880537 40.5261745,36.2158389 38.8209396,34.8671141 Z" id="Path" fill="#0F145B"></path>
            <path d="M57.9242953,35.8786577 C56.7233632,35.2271506 55.7444227,34.2317573 55.1130201,33.0201342 C54.4601342,31.7873826 54.1336913,30.33915 54.1336913,28.6754362 C54.1007794,27.1483857 54.4538801,25.6377359 55.1602685,24.2834899 C55.8245434,23.0400621 56.8334875,22.0147123 58.0660403,21.3304698 C59.3972474,20.6049223 60.8949799,20.2399286 62.4107383,20.2716779 C63.5351822,20.268075 64.6525608,20.4494677 65.7181208,20.8085906 C66.6696713,21.1000765 67.5407633,21.6080296 68.2630872,22.2926174 L67.157047,25.0845638 C66.513807,24.5545763 65.7883904,24.1331093 65.009396,23.8367785 C64.2942404,23.5588345 63.5344928,23.4132888 62.7672483,23.4072483 C61.3354809,23.4072483 60.2187024,23.8546755 59.4169128,24.7495302 C58.6151231,25.6443849 58.214944,26.9329755 58.2163758,28.615302 C58.2163758,30.2990604 58.6115436,31.5833557 59.4018792,32.4681879 C60.1922148,33.3530201 61.3140044,33.7954362 62.7672483,33.7954362 C63.5357681,33.7899355 64.2963879,33.6398516 65.009396,33.3530201 C65.7869281,33.0470117 66.5116263,32.6208891 67.157047,32.0902013 L68.2630872,34.8692617 C67.5071392,35.5489941 66.6123505,36.0561143 65.6408054,36.3554362 C64.5502675,36.715267 63.4087639,36.8965732 62.2604027,36.892349 C60.5923937,36.8909172 59.1470245,36.5530201 57.9242953,35.8786577 Z" id="Path" fill="#0F145B"></path>
            <path d="M80.7280537,20.5551678 L80.6958389,24.1567785 C80.0338695,23.8861872 79.3256082,23.746869 78.6104698,23.7465772 C77.2646084,23.7465772 76.2380312,24.1360178 75.5307383,24.9148993 C74.8234453,25.6937808 74.4705145,26.7260849 74.4719463,28.0118121 L74.4719463,36.6367785 L70.5546309,36.6367785 L70.5546309,25.2005369 C70.5647901,23.693355 70.4801488,22.187026 70.3012081,20.6904698 L73.9973154,20.6904698 L74.3087248,23.4931544 C74.6648466,22.5197517 75.3302241,21.6899159 76.202953,21.1307383 C77.0821373,20.5782218 78.1026749,20.2925011 79.1409396,20.3081879 C79.6805638,20.2938027 80.2183182,20.3774857 80.7280537,20.5551678 Z" id="Path" fill="#0F145B"></path>
            <path d="M97.1210738,20.6818792 L97.1210738,36.6367785 L93.255302,36.6367785 L93.255302,34.1734228 C92.7856219,35.0241005 92.0850401,35.7246823 91.2343624,36.1943624 C90.3404089,36.6708978 89.339275,36.9104601 88.326443,36.8902013 C84.430604,36.8902013 82.4826846,34.6995973 82.4826846,30.3183893 L82.4826846,20.6818792 L86.4,20.6818792 L86.4,30.3463087 C86.4,31.5046084 86.6369574,32.3572259 87.1108725,32.9041611 C87.5855034,33.4539597 88.3157047,33.7267114 89.3079195,33.7267114 C90.4647875,33.7267114 91.3911409,33.347293 92.0869799,32.5884564 C92.7828188,31.8296198 93.1307383,30.8187919 93.1307383,29.5559732 L93.1307383,20.6818792 L97.1210738,20.6818792 Z" id="Path" fill="#0F145B"></path>
            <path d="M123.678926,21.9060403 C124.563758,22.9927517 125.006174,24.6392842 125.006174,26.8456376 L125.006174,36.6389262 L121.056644,36.6389262 L121.056644,26.9744966 C121.056644,25.710246 120.851186,24.7989262 120.440268,24.2405369 C120.029351,23.6821477 119.349978,23.402953 118.402148,23.402953 C117.306846,23.402953 116.447785,23.7873826 115.824966,24.5562416 C115.202148,25.3251007 114.893602,26.3824608 114.899329,27.7283221 L114.899329,36.6367785 L110.945503,36.6367785 L110.945503,26.972349 C110.945503,25.7295749 110.730738,24.8232661 110.301208,24.2534228 C109.871678,23.6835795 109.19302,23.3972259 108.265235,23.3943624 C107.169933,23.3943624 106.305861,23.7787919 105.67302,24.547651 C105.040179,25.3165101 104.724474,26.375302 104.725906,27.7240268 L104.725906,36.6324832 L100.804295,36.6324832 L100.804295,25.2005369 C100.814455,23.693355 100.729813,22.187026 100.550872,20.6904698 L104.24698,20.6904698 L104.532617,23.218255 C104.963762,22.3043819 105.663576,21.5438769 106.538523,21.0383893 C107.458426,20.5203402 108.500453,20.2585357 109.555973,20.2802685 C111.997137,20.2802685 113.587114,21.2910962 114.325906,23.3127517 C114.818474,22.3777493 115.570079,21.6045202 116.490738,21.0856376 C117.448806,20.5430537 118.533963,20.2650933 119.634899,20.2802685 C121.446085,20.2745414 122.794094,20.8164653 123.678926,21.9060403 Z" id="Path" fill="#0F145B"></path>
            <path d="M141.386309,21.298255 C142.470492,22.0065826 143.330231,23.0093633 143.864698,24.1889933 C144.48004,25.547089 144.78313,27.0258459 144.751678,28.5165101 C144.781097,30.0242599 144.47367,31.5195715 143.851812,32.8934228 C143.315612,34.0937417 142.450351,35.1176088 141.356242,35.846443 C140.269747,36.5488842 138.998838,36.9122146 137.705235,36.8902013 C136.609602,36.9104644 135.527074,36.6494452 134.561074,36.1320805 C133.67138,35.6535762 132.949048,34.9147599 132.490738,34.0144966 L132.490738,36.6367785 L128.605638,36.6367785 L128.605638,13.3841611 L132.522953,13.3841611 L132.522953,23.082953 C133.001559,22.2044353 133.726365,21.484855 134.608322,21.0126174 C135.561016,20.5068151 136.626778,20.2518304 137.705235,20.2716779 C139.006214,20.246794 140.285969,20.6036916 141.386309,21.298255 Z M139.69396,32.4037584 C140.409843,31.4759732 140.767785,30.1802238 140.767785,28.5165101 C140.767785,26.8527963 140.409843,25.5842506 139.69396,24.7108725 C138.978076,23.8160178 137.957226,23.3685906 136.631409,23.3685906 C135.305593,23.3685906 134.284027,23.8210292 133.566711,24.725906 C132.850828,25.6322148 132.492886,26.9208054 132.492886,28.5916779 C132.492886,30.2782997 132.850828,31.5668903 133.566711,32.4574497 C134.282595,33.348009 135.314184,33.7954362 136.661477,33.7997315 C137.967248,33.7954362 138.978076,33.3301118 139.69396,32.4037584 Z" id="Shape" fill="#0F145B" fill-rule="nonzero"></path>
            <path d="M146.394631,34.8671141 L147.500671,32.0880537 C149.186715,33.3446673 151.239638,34.0111124 153.342282,33.9844295 C154.290112,33.9844295 155.021745,33.8262192 155.537181,33.5097987 C156.022801,33.2464752 156.321638,32.7348927 156.312483,32.1825503 C156.329256,31.7341741 156.129485,31.305065 155.77557,31.0292617 C155.416913,30.7457718 154.804832,30.4966443 153.941477,30.2861745 L151.28698,29.6869799 C148.380492,29.0555705 146.927248,27.5701118 146.927248,25.230604 C146.913419,24.3048842 147.202239,23.3999661 147.749799,22.6534228 C148.344436,21.869827 149.142074,21.2638001 150.056376,20.9009396 C151.147594,20.4612559 152.316374,20.2464926 153.492617,20.2695302 C154.608633,20.2663554 155.717965,20.4418183 156.778523,20.7892617 C157.793987,21.1137563 158.740591,21.6234661 159.57047,22.2926174 L158.402148,24.9793289 C156.8,23.7995526 155.157047,23.2096644 153.473289,23.2096644 C152.56698,23.2096644 151.861118,23.377897 151.355705,23.7143624 C150.872571,24.0095519 150.583588,24.540038 150.597584,25.1060403 C150.578744,25.5236484 150.74633,25.928058 151.055034,26.2099329 C151.36,26.4848322 151.881163,26.7167785 152.618523,26.9057718 L155.33745,27.5071141 C156.912394,27.8636242 158.064966,28.4162863 158.795168,29.1651007 C159.525369,29.9139151 159.889038,30.8882326 159.886174,32.0880537 C159.92681,33.4810208 159.261126,34.80027 158.11651,35.5951678 C156.936734,36.4542282 155.32528,36.8837584 153.282148,36.8837584 C150.398568,36.8880537 148.102729,36.2158389 146.394631,34.8671141 Z" id="Path" fill="#0F145B"></path>
            <polygon id="Path" fill="#0085C7" points="6.91543624 15.6778523 6.91543624 36.166443 23.4759732 36.166443 26.6308725 17.870604 14.1744966 22.1465772"></polygon>
            <polygon id="Path" fill="#0F145B" points="7.08724832 36.166443 6.91543624 27.1677852 0 29.5688591"></polygon>
            <polygon id="Path" fill="#6ACFEE" points="6.91543624 15.6778523 14.1744966 22.2281879 36.3661745 14.4171812 31.175302 0"></polygon>
        </g>
    </g>
</svg>