<?xml version="1.0" encoding="UTF-8"?>
<svg width="159px" height="36px" viewBox="0 0 159 36" version="1.1" xmlns="http://www.w3.org/2000/svg" xmlns:xlink="http://www.w3.org/1999/xlink">
    <!-- Generator: Sketch 52.5 (67469) - http://www.bohemiancoding.com/sketch -->
    <title>scrumbs-logo-white</title>
    <desc>Created with Sketch.</desc>
    <g id="Page-1" stroke="none" stroke-width="1" fill="none" fill-rule="evenodd">
        <g id="Landing-Page-1024px" transform="translate(-561.000000, -3211.000000)" fill="#FFFFFF">
            <g id="footer" transform="translate(0.000000, 3080.000000)">
                <g id="text" transform="translate(377.000000, 131.000000)">
                    <g id="scrumbs-logo-white" transform="translate(184.000000, 0.000000)">
                        <path d="M39,34.0580848 L40.0654349,31.3820329 C41.6899299,32.5929178 43.6684284,33.2347307 45.694655,33.2081178 C46.6090671,33.2081178 47.312461,33.0550824 47.8110432,32.7510796 C48.2783732,32.4973102 48.5655095,32.0045738 48.5558132,31.473027 C48.5726593,31.0411314 48.3800827,30.6276287 48.0386118,30.3624861 C47.6931213,30.089504 47.1055805,29.8496106 46.2739206,29.6469421 L43.7168768,29.0699572 C40.9170932,28.4619516 39.5172014,27.0315529 39.5172014,24.7787611 C39.5031297,23.8875676 39.7806276,23.0161664 40.3074852,22.2971056 C40.8802916,21.5425545 41.6486468,20.9589905 42.5293824,20.6095798 C43.580619,20.1864673 44.7064339,19.9796748 45.8394714,20.0015742 C46.9145019,19.9986946 47.9830793,20.1676494 49.004744,20.5020414 C49.9827406,20.8149478 50.8945148,21.305723 51.6941913,21.9496738 L50.5666923,24.5367997 C49.0261217,23.4007529 47.4434854,22.8327295 45.8187834,22.8327295 C44.9457474,22.8327295 44.2664895,22.9947265 43.7810098,23.3187204 C43.3151398,23.6027576 43.0360336,24.1134764 43.0486526,24.6588144 C43.0313182,25.0612221 43.1934828,25.4505774 43.491377,25.7217902 C43.7851474,25.9865001 44.2871776,26.2098491 44.9974675,26.3918372 L47.6145066,26.9708902 C49.1316308,27.3141859 50.2425794,27.8463631 50.9473525,28.5674219 C51.6521256,29.2884807 52.0024434,30.2266844 51.9983058,31.3820329 C52.0374493,32.7233684 51.3962045,33.9937184 50.2936099,34.7591525 C49.1557668,35.586371 47.603473,35.9999803 45.6367285,35.9999803 C42.8548745,36.0041164 40.6426317,35.3568179 39,34.0580848 Z" id="Path"></path>
                        <path d="M57.7574174,35.0242101 C56.5676608,34.3971072 55.5978299,33.4389992 54.9723031,32.2727612 C54.3254927,31.0861859 54.0020875,29.6922011 54.0020875,28.0908069 C53.969482,26.6209565 54.3192966,25.1668927 55.0191117,23.8633741 C55.677205,22.6665224 56.6767603,21.6795802 57.8978434,21.0209681 C59.2166627,20.3225982 60.7004578,19.9712764 62.202111,20.0018364 C63.3160913,19.9983685 64.423072,20.1729666 65.4787162,20.5186375 C66.4214118,20.7992049 67.2843977,21.2881312 68,21.9470757 L66.9042522,24.6344413 C66.266998,24.1243061 65.5483319,23.7186264 64.7765865,23.4333956 C64.0680859,23.1658626 63.3154082,23.025769 62.5553035,23.0199547 C61.1368597,23.0199547 60.0304736,23.4506223 59.2361451,24.3119574 C58.4418166,25.1732925 58.0453615,26.4136151 58.04678,28.0329251 C58.04678,29.6536133 58.4382704,30.8898015 59.2212514,31.7414897 C60.0042324,32.5931779 61.1155831,33.0190219 62.5553035,33.0190219 C63.3166716,33.0137273 64.0702134,32.8692651 64.7765865,32.5931779 C65.5468832,32.2986318 66.2648375,31.888471 66.9042522,31.3776617 L68,34.0526241 C67.2510865,34.7068951 66.3646245,35.1950196 65.4021202,35.4831295 C64.3217304,35.8294817 63.1908493,36.0039965 62.0531744,35.9999306 C60.4006874,35.9985524 58.9687684,35.6733123 57.7574174,35.0242101 Z" id="Path"></path>
                        <path d="M80,20.2435384 L79.969104,23.7723293 C79.3342338,23.5072089 78.6549667,23.3707076 77.969104,23.3704217 C76.6783385,23.3704217 75.6937865,23.7519884 75.015448,24.5151219 C74.3371095,25.2782554 73.9986268,26.2896878 74,27.5494191 L74,36 L70.2430484,36 L70.2430484,24.7949843 C70.2527917,23.3182756 70.1716154,21.8424027 70,20.3761048 L73.5447992,20.3761048 L73.8434604,23.1221228 C74.1850036,22.1684011 74.8231424,21.3553434 75.6601442,20.8074716 C76.5033372,20.2661263 77.4820968,19.9861825 78.4778579,20.0015522 C78.9953914,19.9874577 79.5111316,20.0694488 80,20.2435384 Z" id="Path"></path>
                        <path d="M97,20 L97,35.7486819 L93.0387324,35.7486819 L93.0387324,33.3171652 C92.5574499,34.1568478 91.8395616,34.8483747 90.9678697,35.3119841 C90.0518329,35.7823602 89.025968,36.0188262 87.9881162,35.9988293 C83.9960387,35.9988293 82,33.8365388 82,29.511958 L82,20 L86.0140845,20 L86.0140845,29.5395166 C86.0140845,30.6828453 86.2568955,31.5244427 86.7425176,32.0643086 C87.2288732,32.6070011 87.9771127,32.8762275 88.993838,32.8762275 C90.179284,32.8762275 91.1285211,32.5017131 91.8415493,31.7526844 C92.5545775,31.0036557 92.9110915,30.0058929 92.9110915,28.7593961 L92.9110915,20 L97,20 Z" id="Path"></path>
                        <path d="M122.697462,21.5912291 C123.565821,22.6540335 124,24.2643432 124,26.4221581 L124,36 L120.124001,36 L120.124001,26.5481824 C120.124001,25.3117446 119.922368,24.4204732 119.519101,23.8743682 C119.115834,23.3282632 118.449109,23.0552107 117.518925,23.0552107 C116.444015,23.0552107 115.600948,23.431183 114.989725,24.1831276 C114.378502,24.9350722 114.0757,25.969171 114.081321,27.2854241 L114.081321,35.9978996 L110.201107,35.9978996 L110.201107,26.546082 C110.201107,25.3306482 109.99034,24.4442778 109.568807,23.8869706 C109.147273,23.3296634 108.481251,23.0496096 107.570739,23.046809 C106.495829,23.046809 105.647844,23.4227813 105.026785,24.1747259 C104.405726,24.9266706 104.095899,25.9621697 104.097304,27.2812233 L104.097304,35.9936988 L100.248705,35.9936988 L100.248705,24.8132487 C100.258675,23.339224 100.175609,21.8660334 100,20.4024005 L103.627294,20.4024005 L103.907614,22.8745759 C104.330732,21.9808073 105.017517,21.2370332 105.876175,20.7426659 C106.778951,20.2360137 107.801577,19.9799687 108.837446,20.0012234 C111.233161,20.0012234 112.793536,20.9898135 113.518574,22.9669937 C114.001971,22.0525607 114.739583,21.2963423 115.643102,20.7888748 C116.583332,20.2582275 117.648287,19.9863821 118.728726,20.0012234 C120.506191,19.9956223 121.829103,20.5256242 122.697462,21.5912291 Z" id="Path"></path>
                        <path d="M140.663329,20.7433576 C141.737559,21.4364039 142.589404,22.4175509 143.118964,23.5717319 C143.728656,24.9005283 144.028964,26.3473829 143.9978,27.805888 C144.026949,29.28111 143.722345,30.7441624 143.106196,32.0883745 C142.57492,33.2627981 141.717603,34.2645765 140.633538,34.977687 C139.557019,35.6649741 138.297779,36.0204661 137.016052,35.9989277 C135.930478,36.0187537 134.857889,35.7633655 133.900758,35.2571624 C133.019233,34.7889811 132.303533,34.066104 131.849431,33.1852626 L131.849431,35.7509721 L128,35.7509721 L128,13 L131.88135,13 L131.88135,22.489553 C132.355562,21.6299881 133.073713,20.9259318 133.947573,20.4638822 C134.89152,19.9689919 135.947497,19.7195082 137.016052,19.7389275 C138.305087,19.7145804 139.573092,20.0637784 140.663329,20.7433576 Z M138.986518,31.609274 C139.695829,30.7015045 140.050485,29.4337092 140.050485,27.805888 C140.050485,26.1780669 139.695829,24.9368882 138.986518,24.0823522 C138.277207,23.2068029 137.26573,22.7690283 135.952086,22.7690283 C134.638442,22.7690283 133.626255,23.211706 132.915525,24.0970614 C132.206214,24.9838177 131.851559,26.2446086 131.851559,27.8794342 C131.851559,29.5296694 132.206214,30.7904603 132.915525,31.6618069 C133.624836,32.5331535 134.646953,32.9709282 135.981877,32.9751308 C137.27566,32.9709282 138.277207,32.5156425 138.986518,31.609274 Z" id="Shape" fill-rule="nonzero"></path>
                        <path d="M146,34.0580896 L147.065604,31.3820442 C148.690009,32.5920773 150.667878,33.2338183 152.693651,33.2081246 C153.60683,33.2081246 154.311715,33.0557789 154.808307,32.7510875 C155.276173,32.4975249 155.564085,32.0049061 155.555265,31.473038 C155.571425,31.0412822 155.378957,30.6280796 155.037981,30.3624999 C154.692436,30.0895184 154.102732,29.8496256 153.27094,29.6469576 L150.713489,29.0699741 C147.91326,28.46197 146.513145,27.0315748 146.513145,24.7787885 C146.499822,23.8873836 146.778083,23.0160092 147.305624,22.297139 C147.878522,21.5425898 148.646999,20.9590272 149.527875,20.6096174 C150.579199,20.186232 151.70525,19.9794296 152.838491,20.0016132 C153.913706,19.9985561 154.982482,20.1675149 156.004267,20.5020792 C156.982606,20.8145453 157.894603,21.305361 158.694143,21.9497081 L157.568533,24.5368277 C156.024959,23.4007837 154.44207,22.8327617 152.819869,22.8327617 C151.946694,22.8327617 151.266638,22.9947583 150.779702,23.3187514 C150.314231,23.6029987 150.035812,24.1138206 150.049297,24.6588421 C150.031146,25.0609702 150.192605,25.4503891 150.490023,25.7218153 C150.78384,25.9865246 151.28595,26.2098731 151.996353,26.3918607 L154.615878,26.9709122 C156.133243,27.3142071 157.243679,27.846383 157.947185,28.5674401 C158.650691,29.2884971 159.001064,30.2266985 158.998305,31.3820442 C159.037455,32.7233764 158.396108,33.9937233 157.293338,34.7591556 C156.156694,35.5863721 154.604153,35.9999803 152.635716,35.9999803 C149.857557,36.0041164 147.645652,35.3568195 146,34.0580896 Z" id="Path"></path>
                        <polygon id="Path" points="7 17 7 35 23.1193751 35 26 19.4277497 13.4887226 23.8416481"></polygon>
                        <polygon id="Path" points="5 33 5 27 0 28.493014"></polygon>
                        <polygon id="Path" points="7 15.1004655 13.7039523 22 36 14.3217611 30.7730798 0"></polygon>
                    </g>
                </g>
            </g>
        </g>
    </g>
</svg>