<?xml version="1.0" encoding="UTF-8"?>
<svg width="745px" height="172px" viewBox="0 0 745 172" version="1.1" xmlns="http://www.w3.org/2000/svg" xmlns:xlink="http://www.w3.org/1999/xlink">
    <!-- Generator: Sketch 52.3 (67297) - http://www.bohemiancoding.com/sketch -->
    <title>scrumbs logo</title>
    <desc>Created with Sketch.</desc>
    <g id="Page-1" stroke="none" stroke-width="1" fill="none" fill-rule="evenodd">
        <g id="scrumbs-logo">
            <path d="M180.76,162.35 L185.91,149.41 C193.762333,155.265211 203.325814,158.368686 213.12,158.24 C217.54,158.24 220.94,157.5 223.35,156.03 C225.608937,154.802903 226.996869,152.420285 226.95,149.85 C227.031429,147.761577 226.10057,145.762092 224.45,144.48 C222.78,143.16 219.94,142 215.92,141.02 L203.56,138.23 C190.026667,135.29 183.26,128.373333 183.26,117.48 C183.191981,113.17065 184.533325,108.957006 187.08,105.48 C189.848778,101.831382 193.562782,99.0095691 197.82,97.32 C202.901369,95.2740475 208.343229,94.2741058 213.82,94.38 C219.016383,94.3660759 224.181572,95.1830536 229.12,96.8 C233.847349,98.3130535 238.254598,100.686188 242.12,103.8 L236.67,116.31 C229.223333,110.816667 221.573333,108.07 213.72,108.07 C209.5,108.07 206.216667,108.853333 203.87,110.42 C201.618121,111.793457 200.269003,114.263028 200.33,116.9 C200.24621,118.845835 201.030067,120.728555 202.47,122.04 C203.89,123.32 206.316667,124.4 209.75,125.28 L222.4,128.08 C229.733333,129.74 235.103333,132.313333 238.51,135.8 C241.916667,139.286667 243.61,143.823333 243.59,149.41 C243.779208,155.896003 240.679619,162.038757 235.35,165.74 C229.85,169.74 222.346667,171.74 212.84,171.74 C199.393333,171.76 188.7,168.63 180.76,162.35 Z" id="Path" fill="#0F145B"></path>
            <path d="M269.71,167.06 C264.11816,164.02642 259.559968,159.39162 256.62,153.75 C253.58,148.01 252.06,141.266667 252.06,133.52 C251.906754,126.409671 253.550879,119.375708 256.84,113.07 C259.93303,107.280289 264.630926,102.506004 270.37,99.32 C276.568433,95.9416693 283.54225,94.2421677 290.6,94.39 C295.835692,94.3732244 301.038486,95.2178339 306,96.89 C310.430657,98.2472311 314.486679,100.612388 317.85,103.8 L312.7,116.8 C309.704914,114.332246 306.327193,112.36979 302.7,110.99 C299.370057,109.695823 295.832482,109.018126 292.26,108.99 C285.593333,108.99 280.393333,111.073333 276.66,115.24 C272.926667,119.406667 271.063333,125.406667 271.07,133.24 C271.07,141.08 272.91,147.06 276.59,151.18 C280.27,155.3 285.493333,157.36 292.26,157.36 C295.83842,157.334387 299.380056,156.635559 302.7,155.3 C306.320384,153.875148 309.69476,151.891015 312.7,149.42 L317.85,162.36 C314.330117,165.525004 310.163757,167.886282 305.64,169.28 C300.562183,170.955462 295.247057,171.799669 289.9,171.78 C282.133333,171.773333 275.403333,170.2 269.71,167.06 Z" id="Path" fill="#0F145B"></path>
            <path d="M375.89,95.71 L375.74,112.48 C372.657705,111.220059 369.359863,110.571359 366.03,110.57 C359.763333,110.57 354.983333,112.383333 351.69,116.01 C348.396667,119.636667 346.753333,124.443333 346.76,130.43 L346.76,170.59 L328.52,170.59 L328.52,117.34 C328.567304,110.322184 328.173193,103.30834 327.34,96.34 L344.55,96.34 L346,109.39 C347.658192,104.857594 350.756356,100.993671 354.82,98.39 C358.913702,95.8173452 363.66558,94.4869583 368.5,94.56 C371.012625,94.4930186 373.516544,94.8826676 375.89,95.71 Z" id="Path" fill="#0F145B"></path>
            <path d="M452.22,96.3 L452.22,170.59 L434.22,170.59 L434.22,159.12 C432.033052,163.080968 428.770968,166.343052 424.81,168.53 C420.647529,170.748868 415.985999,171.86433 411.27,171.77 C393.13,171.77 384.06,161.57 384.06,141.17 L384.06,96.3 L402.3,96.3 L402.3,141.3 C402.3,146.693333 403.403333,150.663333 405.61,153.21 C407.82,155.77 411.22,157.04 415.84,157.04 C421.226667,157.04 425.54,155.273333 428.78,151.74 C432.02,148.206667 433.64,143.5 433.64,137.62 L433.64,96.3 L452.22,96.3 Z" id="Path" fill="#0F145B"></path>
            <path d="M575.88,102 C580,107.06 582.06,114.726667 582.06,125 L582.06,170.6 L563.67,170.6 L563.67,125.6 C563.67,119.713333 562.713333,115.47 560.8,112.87 C558.886667,110.27 555.723333,108.97 551.31,108.97 C546.21,108.97 542.21,110.76 539.31,114.34 C536.41,117.92 534.973333,122.843333 535,129.11 L535,170.59 L516.59,170.59 L516.59,125.59 C516.59,119.803333 515.59,115.583333 513.59,112.93 C511.59,110.276667 508.43,108.943333 504.11,108.93 C499.01,108.93 494.986667,110.72 492.04,114.3 C489.093333,117.88 487.623333,122.81 487.63,129.09 L487.63,170.57 L469.37,170.57 L469.37,117.34 C469.417304,110.322184 469.023193,103.30834 468.19,96.34 L485.4,96.34 L486.73,108.11 C488.737517,103.854778 491.996028,100.313677 496.07,97.96 C500.353297,95.547834 505.205233,94.3288067 510.12,94.43 C521.486667,94.43 528.89,99.1366667 532.33,108.55 C534.623518,104.196395 538.123181,100.596047 542.41,98.18 C546.871002,95.653594 551.923767,94.3593407 557.05,94.43 C565.483333,94.4033333 571.76,96.9266667 575.88,102 Z" id="Path" fill="#0F145B"></path>
            <path d="M658.33,99.17 C663.378229,102.46815 667.381389,107.137348 669.87,112.63 C672.735185,118.953633 674.146448,125.839095 674,132.78 C674.136983,139.80046 672.705528,146.763005 669.81,153.16 C667.313319,158.748985 663.284449,163.516366 658.19,166.91 C653.131009,170.180742 647.213341,171.872499 641.19,171.77 C636.088458,171.86435 631.047939,170.648979 626.55,168.24 C622.407361,166.011964 619.044006,162.571851 616.91,158.38 L616.91,170.59 L598.82,170.59 L598.82,62.32 L617.06,62.32 L617.06,107.48 C619.28851,103.389402 622.663385,100.038856 626.77,97.84 C631.205983,95.4848577 636.168437,94.2975855 641.19,94.39 C647.247686,94.2741345 653.206541,95.935939 658.33,99.17 Z M650.45,150.88 C653.783333,146.56 655.45,140.526667 655.45,132.78 C655.45,125.033333 653.783333,119.126667 650.45,115.06 C647.116667,110.893333 642.363333,108.81 636.19,108.81 C630.016667,108.81 625.26,110.916667 621.92,115.13 C618.586667,119.35 616.92,125.35 616.92,133.13 C616.92,140.983333 618.586667,146.983333 621.92,151.13 C625.253333,155.276667 630.056667,157.36 636.33,157.38 C642.41,157.36 647.116667,155.193333 650.45,150.88 Z" id="Shape" fill="#0F145B" fill-rule="nonzero"></path>
            <path d="M681.65,162.35 L686.8,149.41 C694.650644,155.261107 704.209564,158.364242 714,158.24 C718.413333,158.24 721.82,157.503333 724.22,156.03 C726.481168,154.8039 727.872627,152.421844 727.83,149.85 C727.908098,147.762248 726.977913,145.764209 725.33,144.48 C723.66,143.16 720.81,142 716.79,141.02 L704.43,138.23 C690.896667,135.29 684.13,128.373333 684.13,117.48 C684.065609,113.169617 685.410426,108.956092 687.96,105.48 C690.728778,101.831382 694.442782,99.0095691 698.7,97.32 C703.780985,95.2727228 709.223117,94.2727311 714.7,94.38 C719.896449,94.3652172 725.061774,95.1822163 730,96.8 C734.728252,98.3109278 739.135876,100.684264 743,103.8 L737.56,116.31 C730.1,110.816667 722.45,108.07 714.61,108.07 C710.39,108.07 707.103333,108.853333 704.75,110.42 C702.500411,111.794476 701.15483,114.264552 701.22,116.9 C701.132275,118.844488 701.912598,120.72752 703.35,122.04 C704.77,123.32 707.196667,124.4 710.63,125.28 L723.29,128.08 C730.623333,129.74 735.99,132.313333 739.39,135.8 C742.79,139.286667 744.483333,143.823333 744.47,149.41 C744.659208,155.896003 741.559619,162.038757 736.23,165.74 C730.736667,169.74 723.233333,171.74 713.72,171.74 C700.293333,171.76 689.603333,168.63 681.65,162.35 Z" id="Path" fill="#0F145B"></path>
            <polygon id="Path" fill="#0085C7" points="32.2 73 32.2 168.4 109.31 168.4 124 83.21 66 103.12"></polygon>
            <polygon id="Path" fill="#0F145B" points="33 168.4 32.2 126.5 0 137.68"></polygon>
            <polygon id="Path" fill="#6ACFEE" points="32.2 73 66 103.5 169.33 67.13 145.16 0"></polygon>
        </g>
    </g>
</svg>