<?xml version="1.0" encoding="UTF-8"?>
<svg width="25px" height="20px" viewBox="0 0 25 20" version="1.1" xmlns="http://www.w3.org/2000/svg" xmlns:xlink="http://www.w3.org/1999/xlink">
    <!-- Generator: Sketch 52.5 (67469) - http://www.bohemiancoding.com/sketch -->
    <title>twitter</title>
    <desc>Created with Sketch.</desc>
    <g id="Page-1" stroke="none" stroke-width="1" fill="none" fill-rule="evenodd" opacity="0.7">
        <g id="Landing-Page-Windows-Btn-Hover" transform="translate(-1186.000000, -3697.000000)" fill="#9B9AA9">
            <g id="footer" transform="translate(0.000000, 3080.000000)">
                <g id="footer-bottom" transform="translate(0.000000, 567.000000)">
                    <path d="M1210.67606,52.3663147 C1209.76784,52.7678685 1208.79333,53.0401976 1207.76944,53.1617782 C1208.81491,52.5370988 1209.61519,51.5462696 1209.99448,50.3692476 C1209.01381,50.9477409 1207.93132,51.3678013 1206.77792,51.5955133 C1205.8543,50.6123685 1204.54054,50 1203.08336,50 C1200.28778,50 1198.02109,52.261712 1198.02109,55.0496159 C1198.02109,55.4450142 1198.0658,55.8311994 1198.15217,56.2004872 C1193.9457,55.9896725 1190.2157,53.9787656 1187.71926,50.923119 C1187.28287,51.6678099 1187.03462,52.5355297 1187.03462,53.4617868 C1187.03462,55.2142445 1187.92897,56.7605141 1189.28591,57.6651667 C1188.45632,57.6374872 1187.67608,57.4097751 1186.99301,57.0312742 L1186.99301,57.0943577 C1186.99301,59.5406935 1188.73852,61.5823777 1191.053,62.0470551 C1190.62895,62.1609112 1190.18179,62.2239947 1189.7192,62.2239947 C1189.39232,62.2239947 1189.07621,62.1916885 1188.76626,62.1301338 C1189.41078,64.1379831 1191.27968,65.5980761 1193.49395,65.6381068 C1191.76231,66.9920683 1189.57888,67.7967448 1187.20735,67.7967448 C1186.79875,67.7967448 1186.39627,67.772123 1186,67.7275059 C1188.24048,69.1630173 1190.90038,70 1193.75918,70 C1203.0711,70 1208.16115,62.3040157 1208.16115,55.6296782 L1208.14418,54.9757905 C1209.13872,54.2679922 1209.99912,53.3787081 1210.67606,52.3663147 Z" id="twitter"></path>
                </g>
            </g>
        </g>
    </g>
</svg>