<?xml version="1.0" encoding="UTF-8"?>
<svg width="19px" height="23px" viewBox="0 0 19 23" version="1.1" xmlns="http://www.w3.org/2000/svg" xmlns:xlink="http://www.w3.org/1999/xlink">
    <!-- Generator: Sketch 52.5 (67469) - http://www.bohemiancoding.com/sketch -->
    <title>user-icon</title>
    <desc>Created with Sketch.</desc>
    <g id="Page-1" stroke="none" stroke-width="1" fill="none" fill-rule="evenodd">
        <g id="Subscribe" transform="translate(-492.000000, -384.000000)" fill="#9B9AA9">
            <g id="Group-5" transform="translate(470.000000, 337.000000)">
                <g id="Group-3">
                    <g id="Group">
                        <g id="user-icon" transform="translate(22.000000, 47.000000)">
                            <path d="M14.5578094,10.5 C14.2326683,10.8954512 13.867385,11.2605261 13.4478412,11.5900349 C15.8426226,12.9168214 17.4593726,15.4112372 17.4593726,18.2635536 C17.4593726,19.8047549 13.9631573,21.0120716 9.49994732,21.0120716 C5.03673739,21.0120716 1.54052203,19.8047549 1.54052203,18.2635536 C1.54052203,15.4112372 3.15727206,12.9168214 5.55205341,11.5900349 C5.13256236,11.2605261 4.76727905,10.8955021 4.44208524,10.5 C1.77521155,12.1266314 0,14.9984354 0,18.2635536 C0,19.2526395 0.560726208,20.6310708 3.23218306,21.5810797 C4.89855768,22.1736968 7.12449954,22.5 9.5,22.5 C11.8755005,22.5 14.1014423,22.1736968 15.7678169,21.5810797 C18.4392211,20.6310708 19,19.2526395 19,18.2635536 C18.9998946,14.9984354 17.2246831,12.1266314 14.5578094,10.5 Z" id="Path"></path>
                            <path d="M9.5,11.5 C12.0423074,11.5 14,8.97994746 14,6.00002294 C14,3.01872224 12.0413233,0.5 9.5,0.5 C6.95769258,0.5 5,3.02005254 5,5.99997706 C5,8.98127776 6.95872143,11.5 9.5,11.5 Z M9.5,1.84144999 C11.259973,1.84144999 12.6918745,3.7069476 12.6918745,5.99997706 C12.6918745,8.29300653 11.259973,10.1585041 9.5,10.1585041 C7.74002704,10.1585041 6.30812549,8.29300653 6.30812549,5.99997706 C6.30812549,3.7069476 7.74002704,1.84144999 9.5,1.84144999 Z" id="Shape" fill-rule="nonzero"></path>
                        </g>
                    </g>
                </g>
            </g>
        </g>
    </g>
</svg>