<?xml version="1.0" encoding="UTF-8"?>
<svg width="44px" height="38px" viewBox="0 0 44 38" version="1.1" xmlns="http://www.w3.org/2000/svg" xmlns:xlink="http://www.w3.org/1999/xlink">
    <!-- Generator: Sketch 52.5 (67469) - http://www.bohemiancoding.com/sketch -->
    <title>web-img</title>
    <desc>Created with Sketch.</desc>
    <defs>
        <linearGradient x1="50.001951%" y1="122.038898%" x2="50.001951%" y2="-4.73356747%" id="linearGradient-1">
            <stop stop-color="#FFFFFF" offset="0%"></stop>
            <stop stop-color="#E8EFEE" offset="100%"></stop>
        </linearGradient>
        <linearGradient x1="50.0020062%" y1="5.2457086%" x2="50.0020062%" y2="99.7066476%" id="linearGradient-2">
            <stop stop-color="#FFFFFF" offset="0%"></stop>
            <stop stop-color="#E8EFEE" offset="100%"></stop>
        </linearGradient>
        <radialGradient cx="43.8847152%" cy="41.7281132%" fx="43.8847152%" fy="41.7281132%" r="61.7142513%" id="radialGradient-3">
            <stop stop-color="#FFFFFF" stop-opacity="0" offset="0.01%"></stop>
            <stop stop-color="#FDFDFD" stop-opacity="0.482" offset="48.2%"></stop>
            <stop stop-color="#F6F7F7" stop-opacity="0.655" offset="65.6%"></stop>
            <stop stop-color="#EBEDEC" stop-opacity="0.779" offset="77.9%"></stop>
            <stop stop-color="#DADDDD" stop-opacity="0.879" offset="87.9%"></stop>
            <stop stop-color="#C4CAC9" stop-opacity="0.964" offset="96.4%"></stop>
            <stop stop-color="#B8BFBE" offset="100%"></stop>
        </radialGradient>
        <radialGradient cx="66.6350153%" cy="134.960996%" fx="66.6350153%" fy="134.960996%" r="401.300727%" gradientTransform="translate(0.666350,1.349610),scale(0.763087,1.000000),translate(-0.666350,-1.349610)" id="radialGradient-4">
            <stop stop-color="#00A6F9" offset="0%"></stop>
            <stop stop-color="#00A0F7" offset="25.3%"></stop>
            <stop stop-color="#0091F0" offset="57.5%"></stop>
            <stop stop-color="#0077E4" offset="93.2%"></stop>
            <stop stop-color="#0071E2" offset="100%"></stop>
        </radialGradient>
        <radialGradient cx="-133.632325%" cy="134.965283%" fx="-133.632325%" fy="134.965283%" r="401.334047%" gradientTransform="translate(-1.336323,1.349653),scale(0.763089,1.000000),translate(1.336323,-1.349653)" id="radialGradient-5">
            <stop stop-color="#00A6F9" offset="0%"></stop>
            <stop stop-color="#00A0F7" offset="25.3%"></stop>
            <stop stop-color="#0091F0" offset="57.5%"></stop>
            <stop stop-color="#0077E4" offset="93.2%"></stop>
            <stop stop-color="#0071E2" offset="100%"></stop>
        </radialGradient>
        <radialGradient cx="1.44263331%" cy="-122.602408%" fx="1.44263331%" fy="-122.602408%" r="330.322709%" gradientTransform="translate(0.014426,-1.226024),scale(0.539172,1.000000),translate(-0.014426,1.226024)" id="radialGradient-6">
            <stop stop-color="#00A6F9" offset="0%"></stop>
            <stop stop-color="#00A0F7" offset="25.3%"></stop>
            <stop stop-color="#0091F0" offset="57.5%"></stop>
            <stop stop-color="#0077E4" offset="93.2%"></stop>
            <stop stop-color="#0071E2" offset="100%"></stop>
        </radialGradient>
        <radialGradient cx="1.4414018%" cy="1.09831783%" fx="1.4414018%" fy="1.09831783%" r="330.322709%" gradientTransform="translate(0.014414,0.010983),scale(0.539176,1.000000),translate(-0.014414,-0.010983)" id="radialGradient-7">
            <stop stop-color="#00A6F9" offset="0%"></stop>
            <stop stop-color="#00A0F7" offset="25.3%"></stop>
            <stop stop-color="#0091F0" offset="57.5%"></stop>
            <stop stop-color="#0077E4" offset="93.2%"></stop>
            <stop stop-color="#0071E2" offset="100%"></stop>
        </radialGradient>
        <radialGradient cx="-11.0686532%" cy="-248.354836%" fx="-11.0686532%" fy="-248.354836%" r="342.566277%" gradientTransform="translate(-0.110687,-2.483548),scale(0.653860,1.000000),translate(0.110687,2.483548)" id="radialGradient-8">
            <stop stop-color="#00A6F9" offset="0%"></stop>
            <stop stop-color="#00A0F7" offset="25.3%"></stop>
            <stop stop-color="#0091F0" offset="57.5%"></stop>
            <stop stop-color="#0077E4" offset="93.2%"></stop>
            <stop stop-color="#0071E2" offset="100%"></stop>
        </radialGradient>
        <radialGradient cx="-11.0686532%" cy="118.640593%" fx="-11.0686532%" fy="118.640593%" r="342.566277%" gradientTransform="translate(-0.110687,1.186406),scale(0.653860,1.000000),translate(0.110687,-1.186406)" id="radialGradient-9">
            <stop stop-color="#00A6F9" offset="0%"></stop>
            <stop stop-color="#00A0F7" offset="25.3%"></stop>
            <stop stop-color="#0091F0" offset="57.5%"></stop>
            <stop stop-color="#0077E4" offset="93.2%"></stop>
            <stop stop-color="#0071E2" offset="100%"></stop>
        </radialGradient>
        <radialGradient cx="110.710994%" cy="25.2696224%" fx="110.710994%" fy="25.2696224%" r="261.052955%" gradientTransform="translate(1.107110,0.252696),scale(1.000000,0.956045),translate(-1.107110,-0.252696)" id="radialGradient-10">
            <stop stop-color="#00A6F9" offset="0%"></stop>
            <stop stop-color="#00A0F7" offset="25.3%"></stop>
            <stop stop-color="#0091F0" offset="57.5%"></stop>
            <stop stop-color="#0077E4" offset="93.2%"></stop>
            <stop stop-color="#0071E2" offset="100%"></stop>
        </radialGradient>
        <radialGradient cx="-133.61346%" cy="-304.060728%" fx="-133.61346%" fy="-304.060728%" r="401.300727%" gradientTransform="translate(-1.336135,-3.040607),scale(0.763087,1.000000),translate(1.336135,3.040607)" id="radialGradient-11">
            <stop stop-color="#00A6F9" offset="0%"></stop>
            <stop stop-color="#00A0F7" offset="25.3%"></stop>
            <stop stop-color="#0091F0" offset="57.5%"></stop>
            <stop stop-color="#0077E4" offset="93.2%"></stop>
            <stop stop-color="#0071E2" offset="100%"></stop>
        </radialGradient>
        <radialGradient cx="-153.049048%" cy="25.2681372%" fx="-153.049048%" fy="25.2681372%" r="261.045836%" gradientTransform="translate(-1.530490,0.252681),scale(1.000000,0.956145),translate(1.530490,-0.252681)" id="radialGradient-12">
            <stop stop-color="#00A6F9" offset="0%"></stop>
            <stop stop-color="#00A0F7" offset="25.3%"></stop>
            <stop stop-color="#0091F0" offset="57.5%"></stop>
            <stop stop-color="#0077E4" offset="93.2%"></stop>
            <stop stop-color="#0071E2" offset="100%"></stop>
        </radialGradient>
        <radialGradient cx="-153.049957%" cy="-92.6397535%" fx="-153.049957%" fy="-92.6397535%" r="261.045836%" gradientTransform="translate(-1.530500,-0.926398),scale(1.000000,0.956137),translate(1.530500,0.926398)" id="radialGradient-13">
            <stop stop-color="#00A6F9" offset="0%"></stop>
            <stop stop-color="#00A0F7" offset="25.3%"></stop>
            <stop stop-color="#0091F0" offset="57.5%"></stop>
            <stop stop-color="#0077E4" offset="93.2%"></stop>
            <stop stop-color="#0071E2" offset="100%"></stop>
        </radialGradient>
        <radialGradient cx="110.710897%" cy="-92.6290729%" fx="110.710897%" fy="-92.6290729%" r="261.050582%" gradientTransform="translate(1.107109,-0.926291),scale(1.000000,0.956054),translate(-1.107109,0.926291)" id="radialGradient-14">
            <stop stop-color="#00A6F9" offset="0%"></stop>
            <stop stop-color="#00A0F7" offset="25.3%"></stop>
            <stop stop-color="#0091F0" offset="57.5%"></stop>
            <stop stop-color="#0077E4" offset="93.2%"></stop>
            <stop stop-color="#0071E2" offset="100%"></stop>
        </radialGradient>
        <radialGradient cx="66.6382145%" cy="-304.05652%" fx="66.6382145%" fy="-304.05652%" r="401.295174%" gradientTransform="translate(0.666382,-3.040565),scale(0.763098,1.000000),translate(-0.666382,3.040565)" id="radialGradient-15">
            <stop stop-color="#00A6F9" offset="0%"></stop>
            <stop stop-color="#00A0F7" offset="25.3%"></stop>
            <stop stop-color="#0091F0" offset="57.5%"></stop>
            <stop stop-color="#0077E4" offset="93.2%"></stop>
            <stop stop-color="#0071E2" offset="100%"></stop>
        </radialGradient>
        <linearGradient x1="127.508077%" y1="103.752832%" x2="-55.4765622%" y2="-90.3015383%" id="linearGradient-16">
            <stop stop-color="#008BF2" stop-opacity="0" offset="0.01%"></stop>
            <stop stop-color="#0046E2" offset="100%"></stop>
        </linearGradient>
        <linearGradient x1="96.0802949%" y1="65.3538396%" x2="-4.1390206%" y2="-44.7408708%" id="linearGradient-17">
            <stop stop-color="#008BF2" stop-opacity="0" offset="0.01%"></stop>
            <stop stop-color="#0046E2" offset="100%"></stop>
        </linearGradient>
        <linearGradient x1="98.8892009%" y1="112.280047%" x2="-17.5995877%" y2="8.08696852%" id="linearGradient-18">
            <stop stop-color="#008BF2" stop-opacity="0" offset="0.01%"></stop>
            <stop stop-color="#0046E2" offset="100%"></stop>
        </linearGradient>
        <linearGradient x1="101.589417%" y1="61.7538912%" x2="15.1974713%" y2="6.03885457%" id="linearGradient-19">
            <stop stop-color="#C2CECE" stop-opacity="0" offset="0%"></stop>
            <stop stop-color="#AFBCBC" stop-opacity="0.179" offset="17.9%"></stop>
            <stop stop-color="#5B6A6A" offset="100%"></stop>
        </linearGradient>
        <linearGradient x1="142.240939%" y1="111.66062%" x2="10.8254335%" y2="-47.4649792%" id="linearGradient-20">
            <stop stop-color="#008BF2" stop-opacity="0" offset="0.01%"></stop>
            <stop stop-color="#0046E2" offset="100%"></stop>
        </linearGradient>
        <linearGradient x1="129.617662%" y1="169.313423%" x2="40.3948046%" y2="47.2112774%" id="linearGradient-21">
            <stop stop-color="#008BF2" stop-opacity="0" offset="0.01%"></stop>
            <stop stop-color="#0046E2" offset="100%"></stop>
        </linearGradient>
        <linearGradient x1="50.0098821%" y1="15.6452608%" x2="50.0098821%" y2="78.1670304%" id="linearGradient-22">
            <stop stop-color="#FFCF95" offset="0%"></stop>
            <stop stop-color="#FFC954" offset="42.7%"></stop>
            <stop stop-color="#FFC200" offset="100%"></stop>
        </linearGradient>
        <linearGradient x1="69.0874467%" y1="83.6584458%" x2="33.9903812%" y2="26.7190414%" id="linearGradient-23">
            <stop stop-color="#C2CECE" stop-opacity="0" offset="0%"></stop>
            <stop stop-color="#AFBCBC" stop-opacity="0.179" offset="17.9%"></stop>
            <stop stop-color="#5B6A6A" offset="100%"></stop>
        </linearGradient>
        <linearGradient x1="134.453976%" y1="197.523759%" x2="29.8483104%" y2="9.4814019%" id="linearGradient-24">
            <stop stop-color="#008BF2" stop-opacity="0" offset="0.01%"></stop>
            <stop stop-color="#0046E2" offset="100%"></stop>
        </linearGradient>
        <linearGradient x1="122.328978%" y1="133.530996%" x2="-6.44654315%" y2="-61.4705894%" id="linearGradient-25">
            <stop stop-color="#008BF2" stop-opacity="0" offset="0.01%"></stop>
            <stop stop-color="#0046E2" offset="100%"></stop>
        </linearGradient>
        <linearGradient x1="80.0061488%" y1="102.759271%" x2="-96.0311439%" y2="-125.662362%" id="linearGradient-26">
            <stop stop-color="#008BF2" stop-opacity="0" offset="0.01%"></stop>
            <stop stop-color="#0046E2" offset="100%"></stop>
        </linearGradient>
        <linearGradient x1="98.6936711%" y1="109.50535%" x2="-80.1935476%" y2="-32.5658665%" id="linearGradient-27">
            <stop stop-color="#008BF2" stop-opacity="0" offset="0.01%"></stop>
            <stop stop-color="#0046E2" offset="100%"></stop>
        </linearGradient>
        <linearGradient x1="189.366174%" y1="220.674262%" x2="13.3288808%" y2="-7.74722355%" id="linearGradient-28">
            <stop stop-color="#008BF2" stop-opacity="0" offset="0.01%"></stop>
            <stop stop-color="#0046E2" offset="100%"></stop>
        </linearGradient>
        <linearGradient x1="256.123616%" y1="331.886846%" x2="70.1130786%" y2="65.5001621%" id="linearGradient-29">
            <stop stop-color="#008BF2" stop-opacity="0" offset="0.01%"></stop>
            <stop stop-color="#0046E2" offset="100%"></stop>
        </linearGradient>
        <linearGradient x1="129.587903%" y1="143.691931%" x2="-84.4751745%" y2="-39.0075561%" id="linearGradient-30">
            <stop stop-color="#C2CECE" stop-opacity="0" offset="0%"></stop>
            <stop stop-color="#AFBCBC" stop-opacity="0.179" offset="17.9%"></stop>
            <stop stop-color="#5B6A6A" offset="100%"></stop>
        </linearGradient>
        <linearGradient x1="133.754304%" y1="141.969277%" x2="-80.3145683%" y2="-43.1383553%" id="linearGradient-31">
            <stop stop-color="#008BF2" stop-opacity="0" offset="0.01%"></stop>
            <stop stop-color="#0046E2" offset="100%"></stop>
        </linearGradient>
        <linearGradient x1="43.5839334%" y1="12.4177673%" x2="55.8587207%" y2="82.3576341%" id="linearGradient-32">
            <stop stop-color="#FFCF95" offset="0%"></stop>
            <stop stop-color="#FFC954" offset="42.7%"></stop>
            <stop stop-color="#FFC200" offset="100%"></stop>
        </linearGradient>
        <linearGradient x1="35.5184522%" y1="33.7999625%" x2="73.1961215%" y2="60.5363444%" id="linearGradient-33">
            <stop stop-color="#FFC200" stop-opacity="0" offset="0%"></stop>
            <stop stop-color="#FFBB00" stop-opacity="0.203" offset="20.3%"></stop>
            <stop stop-color="#FFA700" stop-opacity="0.499" offset="49.9%"></stop>
            <stop stop-color="#FF8800" stop-opacity="0.852" offset="85.2%"></stop>
            <stop stop-color="#FF7800" offset="100%"></stop>
        </linearGradient>
    </defs>
    <g id="Page-1" stroke="none" stroke-width="1" fill="none" fill-rule="evenodd">
        <g id="Downloads-1366px" transform="translate(-219.000000, -834.000000)">
            <g id="web-img" transform="translate(219.000000, 834.000000)">
                <circle id="Oval" fill="url(#linearGradient-1)" cx="22.8" cy="19" r="19"></circle>
                <circle id="Oval" fill="url(#linearGradient-2)" cx="23.18" cy="19.38" r="18.62"></circle>
                <path d="M29.0763455,1.52 C29.833651,3.53686421 30.2489449,5.72114614 30.2489449,8.00260294 C30.2489449,18.190262 21.990262,26.4489449 11.8026029,26.4489449 C9.52114614,26.4489449 7.33686421,26.033651 5.32,25.2763455 C7.94422832,32.2655073 14.6875402,37.24 22.5936581,37.24 C32.7813172,37.24 41.04,28.9813172 41.04,18.7936581 C41.0399156,10.8876247 36.0655917,4.14431275 29.0763455,1.52 Z" id="Path" fill="url(#radialGradient-3)"></path>
                <g id="Group" transform="translate(6.080000, 2.280000)">
                    <path d="M9.89173167,6.37513333 C10.1591057,5.51591111 10.4613621,4.70186667 10.7973067,3.94254222 C11.4670638,2.42845333 12.2436853,1.197 13.097406,0.272333333 C10.0246085,1.00387556 7.27530374,2.55723111 5.09989377,4.68506222 C6.51650723,5.39312889 8.13465337,5.96169333 9.89173167,6.37513333 Z" id="Path" fill="url(#radialGradient-4)"></path>
                    <path d="M29.112217,4.68497778 C28.340798,5.07055111 27.5096783,5.41559111 26.6283247,5.71452444 C25.8922998,5.96633778 25.1207955,6.18690667 24.3204643,6.37504889 C24.0530903,5.51616444 23.7511751,4.70161333 23.414804,3.94245778 C22.7448763,2.42862222 21.9687666,1.19708444 21.115387,0.272755556 C21.122807,0.274613333 21.1303122,0.276471111 21.1377322,0.278244444 C24.2011481,1.01156 26.9422653,2.56229778 29.112217,4.68497778 Z" id="Path" fill="url(#radialGradient-5)"></path>
                    <path d="M23.98162,17.5986444 L10.2306613,17.5986444 C10.2888269,20.2364356 10.6087377,22.7593822 11.1614813,25.0127822 C13.0519481,24.6804089 15.0542259,24.5068756 17.1060554,24.5068756 C19.1579701,24.5068756 21.1601626,24.6804089 23.0506294,25.0127822 C23.6035436,22.7592978 23.9234544,20.2364356 23.98162,17.5986444 Z" id="Path" fill="url(#radialGradient-6)"></path>
                    <path d="M23.0508,8.42730222 C21.1603332,8.75967556 19.1580554,8.93320889 17.1062259,8.93320889 C15.0543112,8.93320889 13.0521187,8.75967556 11.1616519,8.42730222 C10.6089082,10.6807867 10.2889122,13.2036489 10.2308319,15.84144 L23.9817052,15.84144 C23.9234544,13.2036489 23.6035436,10.6807867 23.0508,8.42730222 Z" id="Path" fill="url(#radialGradient-7)"></path>
                    <path d="M11.6392579,26.7121422 C11.8736259,27.4453733 12.1348594,28.1414489 12.4228728,28.7926 C13.7217905,31.7289867 15.4288055,33.4131467 17.1061406,33.4131467 C18.7834758,33.4131467 20.4904908,31.7290711 21.7894085,28.7926 C22.0774219,28.1414489 22.3387406,27.4453733 22.5730234,26.7121422 C20.8360728,26.4174311 18.995584,26.2639956 17.1061406,26.2639956 C15.2166973,26.2639956 13.3761232,26.4174311 11.6392579,26.7121422 Z" id="Path" fill="url(#radialGradient-8)"></path>
                    <path d="M22.5730234,6.72794222 C22.3386554,5.99471111 22.0774219,5.29863556 21.7894085,4.64748444 C20.4904908,1.71109778 18.7834758,0.0269377778 17.1061406,0.0269377778 C15.4288055,0.0269377778 13.7217905,1.71101333 12.4228728,4.64748444 C12.1348594,5.29863556 11.8735406,5.99471111 11.6392579,6.72794222 C13.3762085,7.02265333 15.2166973,7.17608889 17.1061406,7.17608889 C18.995584,7.17608889 20.8360728,7.02265333 22.5730234,6.72794222 Z" id="Path" fill="url(#radialGradient-9)"></path>
                    <path d="M9.42418953,8.06968 C9.1643207,9.14347556 8.95178603,10.2725822 8.79434663,11.4423911 C8.60236608,12.85844 8.48774065,14.3335156 8.4551611,15.8418622 L0.0427286783,15.8418622 C0.228142145,12.2625156 1.53618554,8.97838667 3.62613815,6.32522667 C3.70434613,6.22558222 3.78451571,6.12686667 3.86468529,6.02908 C3.95978005,6.07983111 4.05291322,6.13058222 4.15073716,6.18040444 C5.70756209,6.97553333 7.49184688,7.61021778 9.42418953,8.06968 Z" id="Path" fill="url(#radialGradient-10)"></path>
                    <path d="M24.3204643,27.0649511 C24.0530903,27.9241733 23.7508339,28.7382178 23.4148893,29.4975422 C22.7451322,31.0116311 21.9685107,32.2430844 21.11479,33.1677511 C24.1875875,32.4362089 26.9368923,30.8828533 29.1123022,28.7550222 C27.6957741,28.0469556 26.0776279,27.4783911 24.3204643,27.0649511 Z" id="Path" fill="url(#radialGradient-11)"></path>
                    <path d="M30.0619706,6.18023556 C28.5046339,6.97578667 26.7208608,7.61055556 24.7876653,8.06951111 C25.3650569,10.4456089 25.6981017,13.0891422 25.7566085,15.84144 L34.169382,15.84144 C33.9774868,12.1281644 32.5757985,8.73164 30.3476813,6.02941778 C30.2530983,6.07991556 30.1590269,6.13066667 30.0619706,6.18023556 Z" id="Path" fill="url(#radialGradient-12)"></path>
                    <path d="M25.7566938,17.5986444 C25.6982723,20.3508578 25.3652274,22.99456 24.7877506,25.3705733 C26.7209461,25.8296133 28.5047192,26.4643822 30.0620559,27.2598489 C30.1590269,27.3094178 30.2530983,27.3601689 30.3477666,27.4107511 C32.5758838,24.7084444 33.9775721,21.31192 34.1694673,17.5986444 L25.7566938,17.5987289 L25.7566938,17.5986444 Z" id="Path" fill="url(#radialGradient-13)"></path>
                    <path d="M9.42418953,25.3704044 C8.5977606,25.5668222 7.79922045,25.7947378 7.03343042,26.0539822 C6.007601,26.4017244 5.04241047,26.8039333 4.15065187,27.25968 C4.05282793,27.3095022 3.95969476,27.3601689 3.8646,27.4110044 C1.98257656,25.1287244 0.690311222,22.3520222 0.218760599,19.3067867 C0.131171072,18.7459067 0.0724937656,18.1758222 0.0426433915,17.5982222 L8.45507581,17.5982222 C8.51392369,20.3510267 8.84739501,22.9949822 9.42418953,25.3704044 Z" id="Path" fill="url(#radialGradient-14)"></path>
                    <path d="M10.7972214,29.4975422 C10.4613621,28.7382178 10.1590204,27.9242578 9.89164638,27.0649511 C8.13456808,27.4783911 6.51642195,28.0468711 5.09963791,28.7551067 C7.27513317,30.8829378 10.0243526,32.4361244 13.0971501,33.1678356 C12.2436,32.2431689 11.4669786,31.0116311 10.7972214,29.4975422 Z" id="Path" fill="url(#radialGradient-15)"></path>
                </g>
                <path d="M15.2,10.3654255 C14.9274942,11.4207116 14.7046244,12.5303555 14.539529,13.68 L9.12,8.65104188 C9.20201109,8.55311505 9.28607917,8.45610108 9.37014724,8.36 C9.46986629,8.4098763 9.56752835,8.45975259 9.67010929,8.50871601 C11.3026398,9.29013899 13.1736911,9.91388316 15.2,10.3654255 Z" id="Path" fill="url(#linearGradient-16)"></path>
                <path d="M15.2,27.4441704 C14.3966036,27.6383618 13.6203187,27.863694 12.8758712,28.12 L6.25120883,21.4491984 C6.16606042,20.8946758 6.10901845,20.3310531 6.08,19.76 L14.2579783,19.76 C14.3151032,22.4816857 14.6392807,25.0956728 15.2,27.4441704 Z" id="Path" fill="url(#linearGradient-17)"></path>
                <path d="M31.92,7.70188863 C31.2097339,7.95278202 30.4652302,8.17254511 29.6929084,8.36 C29.4348917,7.50425329 29.1435427,6.69267796 28.8189437,5.9362958 C28.1724616,4.4279907 27.4235136,3.20095206 26.6,2.28 C26.6071603,2.28185099 26.6144028,2.28370198 26.6215631,2.28546884 L31.92,7.70188863 Z" id="Path" fill="url(#linearGradient-18)"></path>
                <path d="M41.04,19.3329428 C41.04,16.4945606 40.3974581,13.8054461 39.249377,11.4 C38.4865298,12.0878893 37.403696,12.9437367 35.8820261,13.9762078 C34.4736401,14.9321335 33.4467205,15.9625657 31.6814429,16.9650473 C31.1825825,17.2482908 31.0122712,17.8812135 31.2995484,18.3751481 C31.3694197,18.495276 31.4600982,18.5956941 31.5642201,18.6754678 L39.5512963,26.6 C40.5094577,24.3681191 41.04,21.9121241 41.04,19.3329428 Z" id="Path" fill="url(#linearGradient-19)"></path>
                <path d="M33.44,19.76 L39.52,19.76 C39.4303083,21.6269519 39.0625968,23.4146904 38.4606036,25.08 L33.44,19.76 Z" id="Path" fill="url(#linearGradient-20)"></path>
                <path d="M39.52,18.24 L31.3484605,18.24 C31.3306988,18.2160576 31.3150063,18.1920294 31.3002623,18.1660274 C31.0113316,17.6668409 31.1830001,17.0269177 31.6845548,16.7413251 C33.4625434,15.7283636 34.497124,14.6882845 35.9147899,13.7221781 C36.7576984,13.1479893 37.4666176,12.6289795 38.0624132,12.16 C38.9000622,14.0338586 39.4089458,16.0847537 39.52,18.24 Z" id="Path" fill="url(#linearGradient-21)"></path>
                <path d="M43.1526144,8.13323204 C42.5320268,6.78194698 40.6164466,6.82928922 39.9868756,6.84437904 C39.38137,6.85946886 38.683724,6.93093822 37.8991298,7.05887004 C38.3695566,7.64994326 38.8038856,8.27011826 39.1992321,8.91657609 C39.8878124,8.84510672 40.3892274,8.84311685 40.7385861,8.87528636 C41.0448416,8.90239829 41.2010187,9.25485336 41.0238257,9.5076493 C40.8346824,9.77652999 40.5383992,10.1279072 40.095087,10.5618639 C39.3564806,11.2867556 38.2094236,12.2433839 36.4649377,13.443522 C35.1093699,14.3764377 34.1209625,15.3820664 32.4218874,16.3604173 C31.9417356,16.6368429 31.7778114,17.2545306 32.0543149,17.7365757 C32.3304888,18.2181233 32.9416811,18.3822044 33.4212561,18.1059446 C35.4034279,16.9645076 36.627708,15.7972022 38.1554415,14.7142175 C39.2443957,13.9429784 40.1672004,13.2180038 40.9148726,12.5474189 C41.3662615,12.1426469 41.7546027,11.7580223 42.0768467,11.39454 C42.4171397,11.0119882 43.32,9.99500073 43.32,8.90447107 C43.3198352,8.64869033 43.270798,8.3899248 43.1526144,8.13323204 Z" id="Path" fill="url(#linearGradient-22)"></path>
                <path d="M39.52,26.9202277 C36.4852058,33.0348389 30.1581444,37.24 22.8444154,37.24 C16.2301857,37.24 10.4230052,33.8010924 7.12980209,28.6216391 C6.74333742,28.0168359 6.39303468,27.3893314 6.08,26.7391256 C6.65969701,26.6229085 7.3095907,26.4747571 8.03708364,26.2865397 C8.1249784,26.2639231 8.21278807,26.2413065 8.30263983,26.2175887 C8.40704145,26.1908215 8.51237902,26.1620214 8.61984377,26.1332212 C12.6890394,25.0294977 17.7677909,23.1171676 22.9209085,20.7459833 C23.677331,20.3972473 24.4254149,20.0443607 25.1611613,19.687493 L24.0885559,17.5642441 C23.8705633,17.1352065 24.2405211,16.643571 24.7158165,16.7299714 L30.2130254,17.7318779 C30.2305533,17.7349273 30.2491873,17.7390779 30.2657793,17.744245 C30.2833072,17.7483956 30.2998991,17.7545792 30.316406,17.7606781 C30.3318918,17.7658451 30.3463566,17.771944 30.3609064,17.7792287 C30.373244,17.7854123 30.3856667,17.7915959 30.3980894,17.7987112 C30.4073639,17.8038783 30.4167234,17.8099771 30.4259128,17.8162454 C30.4362934,17.822429 30.4465889,17.829629 30.4558634,17.8368291 C30.4755185,17.8502127 30.4940674,17.8656292 30.5116804,17.8841799 C30.5199338,17.8913799 30.5281873,17.9006129 30.5364407,17.9088294 C30.5633282,17.9376296 30.5870674,17.9684627 30.6076584,18.0024299 C30.6252714,18.0312301 30.6397362,18.0610467 30.6521589,18.0919645 L39.52,26.9202277 Z" id="Path" fill="url(#linearGradient-23)"></path>
                <path d="M22.6521165,26.8417041 C24.737568,26.8417041 26.7724825,27.0193462 28.6936672,27.36 C29.2557284,25.0502198 29.5811413,22.4639344 29.64,19.76 L24.9743896,19.76 L25.0122706,19.8346235 C24.262798,20.1994305 23.5005827,20.560082 22.7299591,20.9164051 C20.4318709,21.9772366 18.1486058,22.9475157 15.96,23.799107 C16.1179388,25.0397448 16.3358632,26.2329422 16.6105659,27.36 C18.5318372,27.0193462 20.5666651,26.8417041 22.6521165,26.8417041 Z" id="Path" fill="url(#linearGradient-24)"></path>
                <path d="M28.12,29.3087877 C26.4296382,29.0261611 24.6385154,28.88 22.8,28.88 C20.9614846,28.88 19.1703618,29.0261611 17.48,29.3087877 C17.7078328,30.0093752 17.9618104,30.6756242 18.2420157,31.298647 C19.5060106,34.1088345 21.1680696,35.72 22.8,35.72 C24.4319304,35.72 26.0939894,34.1089153 27.3579843,31.298647 C27.6381896,30.675705 27.8921672,30.0093752 28.12,29.3087877 Z" id="Path" fill="url(#linearGradient-25)"></path>
                <path d="M28.7859006,32.0633853 C28.1501157,33.5713761 27.411892,34.79838 26.6,35.72 C29.5201531,34.9905279 32.1332331,33.4437542 34.2,31.3237337 C32.8536272,30.6178174 31.3163164,30.0517214 29.6460945,29.64 C29.3921857,30.4951591 29.1048061,31.3063193 28.7859006,32.0633853 Z" id="Path" fill="url(#linearGradient-26)"></path>
                <path d="M32.0191888,19.76 L31.3351452,19.76 C31.2790611,22.5314881 30.9570517,25.1924397 30.4,27.585043 C32.2662549,28.0476804 33.9884702,28.686836 35.4927733,29.48814 C35.5858349,29.5377113 35.6768376,29.588303 35.7687461,29.64 C36.6578546,28.5155045 37.4100062,27.2712046 38,25.9350744 L32.0191888,19.76 Z" id="Path" fill="url(#linearGradient-27)"></path>
                <path d="M15.9539055,29.64 C14.2836836,30.0517214 12.7463728,30.6177333 11.4,31.3237337 C13.4668479,33.4436701 16.0798469,34.9904437 19,35.72 C18.1880269,34.7984641 17.4498843,33.5714602 16.8140994,32.0633853 C16.4951129,31.3063193 16.2078143,30.4951591 15.9539055,29.64 Z" id="Path" fill="url(#linearGradient-28)"></path>
                <path d="M15.2,27.5654309 C15.1094841,27.1869332 15.0242775,26.8022546 14.9472918,26.411395 C14.8089917,25.7316616 14.6914151,25.0341579 14.5926782,24.32 C12.4471848,25.1123642 10.4214087,25.7732972 8.5973025,26.2716367 C8.24894027,26.3664972 7.91719118,26.4530306 7.6,26.5312369 C7.92652537,27.1797221 8.29364162,27.8052863 8.6982659,28.4025212 C8.98634125,28.8289213 9.29308499,29.2417576 9.61755513,29.64 C9.71320916,29.5889213 9.80680796,29.5368124 9.90563049,29.486678 C10.8,29.0227629 11.7692143,28.6141331 12.7998287,28.2606167 C13.5682295,27.9970677 14.3700278,27.7655394 15.2,27.5654309 Z" id="Path" fill="url(#linearGradient-29)"></path>
                <path d="M5.04937693,24.1297721 C5.38525567,25.2561712 5.82765826,26.3366838 6.36546988,27.36 C7.75328186,27.1019695 9.12,26.5806575 9.12,26.5806575 L4.56,22.04 C4.68234423,22.7517246 4.84638935,23.4489885 5.04937693,24.1297721 Z" id="Path" fill="url(#linearGradient-30)"></path>
                <path d="M8.43152899,27.36 C8.84782702,27.1867163 9.12,27.0515403 9.12,27.0515403 L7.6,25.08 C7.83781345,25.8678041 8.11589086,26.6292189 8.43152899,27.36 Z" id="Path" fill="url(#linearGradient-31)"></path>
                <path d="M29.9272705,18.4676905 L24.5138925,17.4897702 C24.045929,17.4052442 23.6816967,17.8853548 23.8956947,18.3047589 L24.9528648,20.3772155 C24.2274167,20.7256575 23.4914949,21.0707913 22.7463563,21.41088 C17.6718224,23.7260798 12.6705203,25.5932592 8.66337878,26.6709234 C7.4697996,26.991328 6.46851696,27.2133119 5.63514816,27.3609428 C4.15056859,27.6260995 3.19503493,27.6602572 2.62828382,27.6110469 C2.31893357,27.5840019 2.15101972,27.236387 2.33016134,26.9862829 C2.67101638,26.5071648 3.35884309,25.7689276 4.62783269,24.7575112 C4.41517533,24.0554167 4.24424508,23.3352922 4.11705285,22.6010249 C2.8949853,23.5150131 1.93844616,24.3516709 1.26385817,25.0969382 C0.836448732,25.5680338 -0.460945446,27.0023279 0.169988302,28.3502766 C0.71947881,29.5254517 2.27117364,29.64 3.08426542,29.64 C3.20333008,29.64 3.30706128,29.6379323 3.38850452,29.6359474 C4.2849667,29.6148573 5.37883656,29.4732639 6.65586993,29.2140621 C7.24197638,29.0954612 7.86670972,28.9518829 8.52822657,28.7841543 C12.7562368,27.71046 18.1084486,25.7397322 23.6001697,23.2338114 C24.3670098,22.8838807 25.1233761,22.5292357 25.8681796,22.1713652 L26.8812766,24.1574763 C27.0952745,24.5768804 27.7028311,24.5740684 27.9127234,24.1525967 L30.3406033,19.2776341 C30.5090199,18.9392823 30.3030657,18.5355097 29.9272705,18.4676905 Z" id="Path" fill="url(#linearGradient-32)"></path>
                <path d="M2.53449079,27.36 L2.5351981,27.359651 C2.34642407,27.2454438 2.2687768,26.9642445 2.40489529,26.7504877 C2.72460085,26.2450619 3.36974908,25.4662891 4.56,24.3993372 C4.41893031,23.8755022 4.2984513,23.3415464 4.19714833,22.8 C3.40189253,23.5692628 1.66488851,25.3033104 1.53639328,25.8943262 C1.36931019,26.6624548 2.53449079,27.36 2.53449079,27.36 Z" id="Path" fill="url(#linearGradient-33)"></path>
            </g>
        </g>
    </g>
</svg>