<?xml version="1.0" encoding="UTF-8"?>
<svg width="10px" height="7px" viewBox="0 0 10 7" version="1.1" xmlns="http://www.w3.org/2000/svg" xmlns:xlink="http://www.w3.org/1999/xlink">
    <!-- Generator: sketchtool 52.6 (67491) - http://www.bohemiancoding.com/sketch -->
    <title>2271BD59-1F87-4451-B5B5-3F524C094044</title>
    <desc>Created with sketchtool.</desc>
    <g id="Scrum" stroke="none" stroke-width="1" fill="none" fill-rule="evenodd">
        <g transform="translate(-170.000000, -197.000000)" fill="#FFFFFF" id="Group">
            <g transform="translate(0.000000, -44.000000)">
                <g id="scrum-page" transform="translate(150.000000, 139.000000)">
                    <g id="teams-sidebar">
                        <g id="arrow-white">
                            <g transform="translate(20.000000, 102.000000)">
                                <path d="M4.79949143,3.08015125 L7.84498284,-0.0412509094 C7.99972673,-0.199687557 8.07692308,-0.393464822 8.07692308,-0.62256021 C8.07692308,-0.851633102 7.99970478,-1.04532038 7.84498284,-1.20373454 L7.37506626,-1.68550072 C7.22056382,-1.84386988 7.03146898,-1.92307696 6.8080232,-1.92307696 C6.58457741,-1.92307696 6.39557037,-1.84386988 6.24082649,-1.68550072 L2.15499521,2.49562508 C2.00038302,2.65406173 1.92307692,2.8478165 1.92307692,3.07693438 C1.92307692,3.30605226 2.00036107,3.49964956 2.15499521,3.6581537 L6.24080454,7.8392795 C6.39554842,7.99771615 6.58453351,8.07692322 6.80800125,8.07692322 C7.03146898,8.07692322 7.22054187,7.99771615 7.37504431,7.8392795 L7.84496089,7.3576033 C7.99970478,7.19925663 8.07690113,7.00658165 8.07690113,6.77953336 C8.07690113,6.55266504 7.99968283,6.35783048 7.84496089,6.19514216 L4.79949143,3.08015125 Z" transform="translate(5.000000, 3.076923) rotate(-90.000000) translate(-5.000000, -3.076923) "></path>
                            </g>
                        </g>
                    </g>
                </g>
            </g>
        </g>
    </g>
</svg>