<?xml version="1.0" encoding="UTF-8"?>
<svg width="20px" height="17px" viewBox="0 0 20 17" version="1.1" xmlns="http://www.w3.org/2000/svg" xmlns:xlink="http://www.w3.org/1999/xlink">
    <!-- Generator: sketchtool 52.6 (67491) - http://www.bohemiancoding.com/sketch -->
    <title>0323CBD4-3D11-4273-8CCB-E0B7FADC8588</title>
    <desc>Created with sketchtool.</desc>
    <g id="Authentication" stroke="none" stroke-width="1" fill="none" fill-rule="evenodd">
        <g id="Sign-Up-Filled---Show-Password" transform="translate(-848.000000, -499.000000)">
            <g id="Group-6" transform="translate(553.000000, 274.000000)">
                <g id="Group-3">
                    <g id="Group-Copy-2" transform="translate(0.000000, 186.000000)">
                        <g id="eye-icon-lined" transform="translate(295.000000, 39.000000)">
                            <g>
                                <path d="M19.8728516,8.07218902 C19.6941797,7.82419817 15.4370312,2 9.99988281,2 C4.56273438,2 0.305390625,7.82419817 0.126914062,8.07195122 C-0.0423046875,8.30721951 -0.0423046875,8.62631402 0.126914062,8.86158232 C0.305390625,9.10957317 4.56273437,14.9337713 9.99988281,14.9337713 C15.4370312,14.9337713 19.6941797,9.10953354 19.8728516,8.86178049 C20.0423047,8.62655183 20.0423047,8.30721951 19.8728516,8.07218902 Z M9.99988281,13.5958018 C5.99484375,13.5958018 2.52605469,9.73016463 1.49921875,8.46642988 C2.52472656,7.20158537 5.98625,3.33796951 9.99988281,3.33796951 C14.0047266,3.33796951 17.4732812,7.20293293 18.5005469,8.46734146 C17.4750391,9.73214634 14.0135156,13.5958018 9.99988281,13.5958018 Z" id="Shape" fill="#9B9AA9" fill-rule="nonzero"></path>
                                <path d="M9.99988281,4.48605183 C7.81855469,4.48605183 6.04382812,6.28675 6.04382812,8.5 C6.04382812,10.71325 7.81855469,12.5139482 9.99988281,12.5139482 C12.1812109,12.5139482 13.9559375,10.71325 13.9559375,8.5 C13.9559375,6.28675 12.1812109,4.48605183 9.99988281,4.48605183 Z M9.99988281,11.175939 C8.54558594,11.175939 7.36253906,9.97553963 7.36253906,8.5 C7.36253906,7.02446037 8.545625,5.82406098 9.99988281,5.82406098 C11.4541406,5.82406098 12.6372266,7.02446037 12.6372266,8.5 C12.6372266,9.97553963 11.4541797,11.175939 9.99988281,11.175939 Z" id="Shape" fill="#9B9AA9" fill-rule="nonzero"></path>
                                <path d="M18.263456,0 L2,16.263456" id="Path-2" stroke="#9B9AA9" fill-rule="nonzero"></path>
                            </g>
                        </g>
                    </g>
                </g>
            </g>
        </g>
    </g>
</svg>