<?xml version="1.0" encoding="UTF-8"?>
<svg width="23px" height="36px" viewBox="0 0 23 36" version="1.1" xmlns="http://www.w3.org/2000/svg" xmlns:xlink="http://www.w3.org/1999/xlink">
    <!-- Generator: sketchtool 52.6 (67491) - http://www.bohemiancoding.com/sketch -->
    <title>819C44F3-FCA0-468D-A455-DCA42CF0D28D</title>
    <desc>Created with sketchtool.</desc>
    <g id="Scrum" stroke="none" stroke-width="1" fill="none" fill-rule="evenodd" opacity="0.5">
        <g id="Scrum---Create-Group-filled" transform="translate(-1231.000000, -140.000000)" fill="#9B9AA9">
            <g id="close" transform="translate(1231.000000, 140.000000)">
                <g id="close-icon">
                    <g>
                        <path d="M13.768777,10.0002085 L21.6335286,2.13512894 C22.1221571,1.64689695 22.1221571,0.854718672 21.6335286,0.366486689 C21.1449,-0.12216223 20.3535886,-0.12216223 19.8649601,0.366486689 L12.0002085,8.23156622 L4.13503992,0.366486689 C3.64641137,-0.12216223 2.85509996,-0.12216223 2.36647141,0.366486689 C1.87784286,0.854718672 1.87784286,1.64689695 2.36647141,2.13512894 L10.2316399,10.0002085 L2.36647141,17.865288 C1.87784286,18.35352 1.87784286,19.1456983 2.36647141,19.6339302 C2.61078568,19.8778378 2.93097913,20 3.25075566,20 C3.5705322,20 3.89072565,19.8778378 4.13503992,19.6335133 L12.0002085,11.7684338 L19.8649601,19.6335133 C20.1092744,19.8778378 20.4294678,20 20.7492443,20 C21.0690209,20 21.3892143,19.8778378 21.6335286,19.6335133 C22.1221571,19.1452813 22.1221571,18.353103 21.6335286,17.8648711 L13.768777,10.0002085 Z" id="Path"></path>
                        <text id="ESC" font-family="Muli-Bold, Muli" font-size="12" font-weight="bold">
                            <tspan x="0" y="35">ESC</tspan>
                        </text>
                    </g>
                </g>
            </g>
        </g>
    </g>
</svg>