<?xml version="1.0" encoding="UTF-8"?>
<svg width="20px" height="13px" viewBox="0 0 20 13" version="1.1" xmlns="http://www.w3.org/2000/svg" xmlns:xlink="http://www.w3.org/1999/xlink">
    <!-- Generator: sketchtool 52.6 (67491) - http://www.bohemiancoding.com/sketch -->
    <title>C33DDE1E-AB92-42ED-A92A-C3DDCA4AD57D</title>
    <desc>Created with sketchtool.</desc>
    <g id="Authentication" stroke="none" stroke-width="1" fill="none" fill-rule="evenodd">
        <g id="Sign-Up" transform="translate(-848.000000, -501.000000)" fill="#9B9AA9">
            <g id="Group-6" transform="translate(553.000000, 274.000000)">
                <g id="Group-3">
                    <g id="Group-Copy-2" transform="translate(0.000000, 186.000000)">
                        <g id="eye-icon" transform="translate(295.000000, 41.000000)">
                            <g id="Shape">
                                <path d="M19.8728516,6.10528354 C19.6941797,5.85729268 15.4370312,0.0330945122 9.99988281,0.0330945122 C4.56273438,0.0330945122 0.305390625,5.85729268 0.126914062,6.10504573 C-0.0423046875,6.34031402 -0.0423046875,6.65940854 0.126914062,6.89467683 C0.305390625,7.14266768 4.56273437,12.9668659 9.99988281,12.9668659 C15.4370312,12.9668659 19.6941797,7.14262805 19.8728516,6.894875 C20.0423047,6.65964634 20.0423047,6.34031402 19.8728516,6.10528354 Z M9.99988281,11.6288963 C5.99484375,11.6288963 2.52605469,7.76325915 1.49921875,6.49952439 C2.52472656,5.23467988 5.98625,1.37106402 9.99988281,1.37106402 C14.0047266,1.37106402 17.4732812,5.23602744 18.5005469,6.50043598 C17.4750391,7.76524085 14.0135156,11.6288963 9.99988281,11.6288963 Z" fill-rule="nonzero"></path>
                                <path d="M9.99988281,2.48605183 C7.81855469,2.48605183 6.04382812,4.28675 6.04382812,6.5 C6.04382812,8.71325 7.81855469,10.5139482 9.99988281,10.5139482 C12.1812109,10.5139482 13.9559375,8.71325 13.9559375,6.5 C13.9559375,4.28675 12.1812109,2.48605183 9.99988281,2.48605183 Z M9.99988281,9.17593902 C8.54558594,9.17593902 7.36253906,7.97553963 7.36253906,6.5 C7.36253906,5.02446037 8.545625,3.82406098 9.99988281,3.82406098 C11.4541406,3.82406098 12.6372266,5.02446037 12.6372266,6.5 C12.6372266,7.97553963 11.4541797,9.17593902 9.99988281,9.17593902 Z" fill-rule="nonzero"></path>
                            </g>
                        </g>
                    </g>
                </g>
            </g>
        </g>
    </g>
</svg>