<?xml version="1.0" encoding="UTF-8"?>
<svg width="15px" height="15px" viewBox="0 0 15 15" version="1.1" xmlns="http://www.w3.org/2000/svg" xmlns:xlink="http://www.w3.org/1999/xlink">
    <!-- Generator: sketchtool 52.6 (67491) - http://www.bohemiancoding.com/sketch -->
    <title>A7C0757F-E7B0-4ECC-87F1-809F2560467C</title>
    <desc>Created with sketchtool.</desc>
    <g id="Scrum" stroke="none" stroke-width="1" fill="none" fill-rule="evenodd">
        <g id="Scrum---Hover-Blocker-Dropdown-Copy-2" transform="translate(-1048.000000, -622.000000)" fill="#9B9AA9">
            <g id="Group-3" transform="translate(1028.000000, 564.000000)">
                <g id="Group-6" transform="translate(0.000000, 43.000000)">
                    <g id="edit-icon" transform="translate(20.000000, 15.000000)">
                        <g id="edit-draw-pencil">
                            <path d="M8.99771375,3.1414684 C8.60509294,2.74840149 7.96845725,2.74840149 7.57589219,3.1414684 L7.22046468,3.49728625 L2.24408922,8.47890335 L2.24537175,8.48018587 L2.08856877,8.63743494 C2.08856877,8.63743494 1.58849442,9.14107807 0.459423792,12.7860781 C0.451505576,12.8115613 0.443643123,12.8368773 0.435669145,12.8626952 C0.415539033,12.9279926 0.395185874,12.9943494 0.374665428,13.0615985 C0.356486989,13.1210409 0.338085502,13.18171 0.319628253,13.2427695 C0.304070632,13.2942379 0.288624535,13.3451487 0.272843866,13.3977323 C0.23704461,13.5170632 0.200799257,13.638513 0.163828996,13.7639219 C0.0826951673,14.0392193 -0.115483271,14.6600186 0.108624535,14.8847398 C0.324423792,15.1012082 0.951747212,14.9107807 1.22626394,14.829368 C1.35072491,14.7924535 1.47133829,14.7562639 1.58977695,14.7205204 C1.64447955,14.7040149 1.69750929,14.6878439 1.75098513,14.6715613 C1.80847584,14.654052 1.86568773,14.6366543 1.92172862,14.6194238 C1.99249071,14.5976766 2.06224907,14.5762082 2.13083643,14.5549071 C2.15130112,14.5485502 2.17137546,14.5422491 2.19167286,14.535948 C5.65962825,13.4561152 6.2822119,12.9493494 6.33395911,12.9030112 C6.33434944,12.9027323 6.33434944,12.9027323 6.33462825,12.9024535 C6.33680297,12.9004461 6.33830855,12.8991078 6.33830855,12.8991078 L6.49884758,12.7381784 L6.50960967,12.7489405 L11.4860967,7.76732342 L11.4860409,7.76726766 L11.8414684,7.41144981 C12.2340892,7.01843866 12.2340892,6.38118959 11.8414684,5.98812268 L8.99771375,3.1414684 Z M5.76574349,12.2555019 C5.76139405,12.2584572 5.75548327,12.2623048 5.74923792,12.2662639 C5.74578067,12.2684944 5.74159851,12.2711152 5.73747212,12.2736803 C5.73328996,12.2763011 5.72871747,12.279145 5.72386617,12.2821004 C5.71957249,12.2847212 5.71511152,12.2873978 5.71031599,12.2902974 C5.54475836,12.3893866 5.05890335,12.6450558 3.87975836,13.0719145 C3.74197026,13.1217658 3.5919145,13.1746283 3.43472119,13.2291078 L1.75851301,11.551171 C1.81315985,11.3928067 1.86607807,11.2416357 1.91609665,11.1027881 C2.34200743,9.9186803 2.59745353,9.43137546 2.69598513,9.26604089 C2.6983829,9.26208178 2.70055762,9.25845725 2.70273234,9.25488848 C2.70618959,9.24920074 2.70942379,9.24390335 2.71243494,9.23905204 C2.71483271,9.23520446 2.71734201,9.23118959 2.71946097,9.22789963 C2.72342007,9.22171004 2.72726766,9.21579926 2.73022305,9.21139405 L2.85289963,9.0883829 L5.89109665,12.1297584 L5.76574349,12.2555019 Z M14.685,3.1414684 L11.8413011,0.294814126 C11.4486803,-0.098197026 10.8121561,-0.098197026 10.4194796,0.294814126 L9.70862454,1.00650558 C9.31600372,1.39951673 9.31600372,2.0367658 9.70862454,2.42977695 L12.5522677,5.27643123 C12.9448327,5.66944238 13.5814684,5.66944238 13.9740892,5.27643123 L14.685,4.56479554 C15.0776208,4.17172862 15.0776208,3.53447955 14.685,3.1414684 Z" id="Shape" fill-rule="nonzero"></path>
                        </g>
                    </g>
                </g>
            </g>
        </g>
    </g>
</svg>