<?xml version="1.0" encoding="UTF-8"?>
<svg width="16px" height="8px" viewBox="0 0 16 8" version="1.1" xmlns="http://www.w3.org/2000/svg" xmlns:xlink="http://www.w3.org/1999/xlink">
    <!-- Generator: sketchtool 52.6 (67491) - http://www.bohemiancoding.com/sketch -->
    <title>EE1B8873-1158-458A-8BF4-8331255CBEFC</title>
    <desc>Created with sketchtool.</desc>
    <g id="Scrum" stroke="none" stroke-width="1" fill="none" fill-rule="evenodd">
        <g id="Scrum-Click-More" transform="translate(-1070.000000, -214.000000)">
            <g id="Group-3-Copy" transform="translate(1050.000000, 153.000000)">
                <g id="Group-6" transform="translate(0.000000, 43.000000)">
                    <g id="blocker-icon-grey" transform="translate(20.000000, 18.000000)">
                        <g id="Path">
                            <path d="M3,0 L13,0 C14.6568542,-3.04359188e-16 16,1.34314575 16,3 L16,5 C16,6.65685425 14.6568542,8 13,8 L3,8 C1.34314575,8 2.02906125e-16,6.65685425 0,5 L0,3 C-2.02906125e-16,1.34314575 1.34314575,3.04359188e-16 3,0 Z" fill="#9B9AA9"></path>
                            <polygon fill="#FFFFFF" points="7 0 4.7021824 8 2 8 4.29763511 0"></polygon>
                            <polygon fill="#FFFFFF" points="14 0 11.7023649 8 9 8 11.2978176 0"></polygon>
                        </g>
                    </g>
                </g>
            </g>
        </g>
    </g>
</svg>