<?xml version="1.0" encoding="UTF-8"?>
<svg width="226px" height="226px" viewBox="0 0 226 226" version="1.1" xmlns="http://www.w3.org/2000/svg" xmlns:xlink="http://www.w3.org/1999/xlink">
    <!-- Generator: Sketch 52.6 (67491) - http://www.bohemiancoding.com/sketch -->
    <title>impediments-empty state</title>
    <desc>Created with Sketch.</desc>
    <defs>
        <path d="M84.8210103,119.9325 L6.28205128,119.9325 C2.8126,119.9325 2.13162821e-14,117.13425 2.13162821e-14,113.6825 L2.13162821e-14,6.25 C2.13162821e-14,2.79825 2.8126,-5.68434189e-14 6.28205128,-5.68434189e-14 L84.8210103,-5.68434189e-14 C88.2904615,-5.68434189e-14 91.1030615,2.79825 91.1030615,6.25 L91.1030615,113.6825 C91.1030615,117.13425 88.2904615,119.9325 84.8210103,119.9325 Z" id="path-1"></path>
        <filter x="-16.5%" y="-5.8%" width="122.0%" height="116.7%" filterUnits="objectBoundingBox" id="filter-2">
            <feOffset dx="-5" dy="3" in="SourceAlpha" result="shadowOffsetOuter1"></feOffset>
            <feGaussianBlur stdDeviation="2.5" in="shadowOffsetOuter1" result="shadowBlurOuter1"></feGaussianBlur>
            <feColorMatrix values="0 0 0 0 0.376470588   0 0 0 0 0.368627451   0 0 0 0 0.466666667  0 0 0 0.069604846 0" type="matrix" in="shadowBlurOuter1"></feColorMatrix>
        </filter>
    </defs>
    <g id="Impediment" stroke="none" stroke-width="1" fill="none" fill-rule="evenodd">
        <g id="Impediments---empty-state" transform="translate(-607.000000, -230.000000)">
            <g id="Group" transform="translate(0.000000, -44.000000)">
                <g id="blockers-page" transform="translate(150.000000, 139.000000)">
                    <g id="Group-10">
                        <g id="impediments-empty-state" transform="translate(457.000000, 135.000000)">
                            <circle id="Oval" fill-opacity="0.5" fill="#E9E9F3" fill-rule="nonzero" cx="113" cy="113" r="113"></circle>
                            <g id="Group-4" transform="translate(67.000000, 53.000000)">
                                <g id="Path">
                                    <use fill="black" fill-opacity="1" filter="url(#filter-2)" xlink:href="#path-1"></use>
                                    <use fill="#FFFFFF" fill-rule="evenodd" xlink:href="#path-1"></use>
                                </g>
                                <path d="M76.9705846,65.7705 L13.3974821,65.7705 C12.0732256,65.7705 11,64.7025 11,63.38525 C11,62.068 12.0734769,61 13.3974821,61 L76.9705846,61 C78.294841,61 79.3680667,62.068 79.3680667,63.38525 C79.3680667,64.7025 78.294841,65.7705 76.9705846,65.7705 Z" id="Path" fill="#D7D9E0"></path>
                                <path d="M76.9705846,78.7705 L13.3974821,78.7705 C12.0732256,78.7705 11,77.7025 11,76.38525 C11,75.068 12.0734769,74 13.3974821,74 L76.9705846,74 C78.294841,74 79.3680667,75.068 79.3680667,76.38525 C79.3680667,77.7025 78.294841,78.7705 76.9705846,78.7705 Z" id="Path" fill="#D7D9E0"></path>
                                <path d="M76.9705846,91.7705 L13.3974821,91.7705 C12.0732256,91.7705 11,90.7025 11,89.38525 C11,88.068 12.0734769,87 13.3974821,87 L76.9705846,87 C78.294841,87 79.3680667,88.068 79.3680667,89.38525 C79.3680667,90.7025 78.294841,91.7705 76.9705846,91.7705 Z" id="Path" fill="#D7D9E0"></path>
                                <path d="M64.8438872,104.541 L26.3974821,104.541 C25.0732256,104.541 24,103.473 24,102.15575 C24,100.8385 25.0734769,99.7705 26.3974821,99.7705 L64.8438872,99.7705 C66.1681436,99.7705 67.2413692,100.8385 67.2413692,102.15575 C67.2413692,103.473 66.1681436,104.541 64.8438872,104.541 Z" id="Path" fill="#D7D9E0"></path>
                                <path d="M64.8438872,52.7705 L26.3974821,52.7705 C25.0732256,52.7705 24,51.7025 24,50.38525 C24,49.068 25.0734769,48 26.3974821,48 L64.8438872,48 C66.1681436,48 67.2413692,49.068 67.2413692,50.38525 C67.2413692,51.7025 66.1681436,52.7705 64.8438872,52.7705 Z" id="Path" fill="#D7D9E0"></path>
                                <g id="icon/impediment" transform="translate(30.000000, 18.000000)">
                                    <g id="blocker-icon">
                                        <path d="M0.803571429,0 L28.6607143,0 C29.1045145,1.88934422e-15 29.4642857,0.359771183 29.4642857,0.803571429 L29.4642857,13.9285714 C29.4642857,14.3723717 29.1045145,14.7321429 28.6607143,14.7321429 L0.803571429,14.7321429 C0.359771183,14.7321429 2.7639446e-16,14.3723717 2.22044605e-16,13.9285714 L0,0.803571429 C-5.4349855e-17,0.359771183 0.359771183,3.03569387e-16 0.803571429,2.22044605e-16 Z" id="Path" fill="#FF5357"></path>
                                        <polygon id="Path" fill="#F5F5F8" points="14.7321429 0 9.19276115 14.7321429 2.67857143 14.7321429 8.21751321 0"></polygon>
                                        <polygon id="Path" fill="#F5F5F8" points="26.7857143 0 21.2467725 14.7321429 14.7321429 14.7321429 20.2715246 0"></polygon>
                                    </g>
                                </g>
                            </g>
                        </g>
                    </g>
                </g>
            </g>
        </g>
    </g>
</svg>