<?xml version="1.0" encoding="UTF-8"?>
<svg width="226px" height="226px" viewBox="0 0 226 226" version="1.1" xmlns="http://www.w3.org/2000/svg" xmlns:xlink="http://www.w3.org/1999/xlink">
    <!-- Generator: sketchtool 52.6 (67491) - http://www.bohemiancoding.com/sketch -->
    <title>56B8029A-A835-4207-A831-1CB8FB45FC3E</title>
    <desc>Created with sketchtool.</desc>
    <defs>
        <linearGradient x1="100%" y1="50%" x2="-2.22044605e-14%" y2="50%" id="linearGradient-1">
            <stop stop-color="#F4F4F9" offset="0%"></stop>
            <stop stop-color="#FFFFFF" offset="100%"></stop>
        </linearGradient>
        <path d="M84.8210103,119.9325 L6.28205128,119.9325 C2.8126,119.9325 0,117.13425 0,113.6825 L0,6.25 C0,2.79825 2.8126,0 6.28205128,0 L84.8210103,0 C88.2904615,0 91.1030615,2.79825 91.1030615,6.25 L91.1030615,113.6825 C91.1030615,117.13425 88.2904615,119.9325 84.8210103,119.9325 Z" id="path-2"></path>
        <filter x="-13.2%" y="-5.0%" width="119.8%" height="115.0%" filterUnits="objectBoundingBox" id="filter-3">
            <feOffset dx="-3" dy="3" in="SourceAlpha" result="shadowOffsetOuter1"></feOffset>
            <feGaussianBlur stdDeviation="2.5" in="shadowOffsetOuter1" result="shadowBlurOuter1"></feGaussianBlur>
            <feColorMatrix values="0 0 0 0 0.376470588   0 0 0 0 0.368627451   0 0 0 0 0.466666667  0 0 0 0.0520550272 0" type="matrix" in="shadowBlurOuter1"></feColorMatrix>
        </filter>
        <path d="M85.0260564,119.96625 L6.48709744,119.96625 C3.01764615,119.96625 0.205046154,117.168 0.205046154,113.71625 L0.205046154,6.28375 C0.205046154,2.832 3.01764615,0.03375 6.48709744,0.03375 L85.0260564,0.03375 C88.4955077,0.03375 91.3081077,2.832 91.3081077,6.28375 L91.3081077,113.71625 C91.3081077,117.168 88.4955077,119.96625 85.0260564,119.96625 Z" id="path-4"></path>
        <filter x="-16.5%" y="-5.8%" width="122.0%" height="116.7%" filterUnits="objectBoundingBox" id="filter-5">
            <feOffset dx="-5" dy="3" in="SourceAlpha" result="shadowOffsetOuter1"></feOffset>
            <feGaussianBlur stdDeviation="2.5" in="shadowOffsetOuter1" result="shadowBlurOuter1"></feGaussianBlur>
            <feColorMatrix values="0 0 0 0 0.376470588   0 0 0 0 0.368627451   0 0 0 0 0.466666667  0 0 0 0.069604846 0" type="matrix" in="shadowBlurOuter1"></feColorMatrix>
        </filter>
        <ellipse id="path-6" cx="16.4666667" cy="16.4042708" rx="16.4666667" ry="16.25"></ellipse>
    </defs>
    <g id="Reports" stroke="none" stroke-width="1" fill="none" fill-rule="evenodd">
        <g id="Reports-Notes-Coming-Soon" transform="translate(-614.000000, -230.000000)">
            <g id="Group">
                <g id="scrum-page" transform="translate(165.000000, 95.000000)">
                    <g id="Group-10">
                        <g id="Group-7">
                            <g id="reports-illustration" transform="translate(449.000000, 135.000000)">
                                <circle id="Oval" fill-opacity="0.5" fill="#E9E9F3" fill-rule="nonzero" cx="113" cy="113" r="113"></circle>
                                <g id="Group-3" transform="translate(37.000000, 43.000000)">
                                    <g id="Group-2" transform="translate(51.054301, 70.447513) rotate(-5.000000) translate(-51.054301, -70.447513) translate(5.054301, 10.447513)">
                                        <g id="Path">
                                            <use fill="black" fill-opacity="1" filter="url(#filter-3)" xlink:href="#path-2"></use>
                                            <use fill="url(#linearGradient-1)" fill-rule="evenodd" xlink:href="#path-2"></use>
                                        </g>
                                        <rect id="Rectangle" fill="#FDB88C" fill-rule="nonzero" x="9" y="33" width="12" height="27"></rect>
                                        <rect id="Rectangle-Copy-2" fill="#AA80FF" fill-rule="nonzero" x="25" y="42" width="12" height="18"></rect>
                                        <rect id="Rectangle-Copy-3" fill="#FB79C7" fill-rule="nonzero" x="41" y="22" width="12" height="38"></rect>
                                        <rect id="Rectangle-Copy-4" fill="#FFA971" fill-rule="nonzero" x="57" y="49" width="12" height="11"></rect>
                                        <rect id="Rectangle" fill="#D7D9E0" transform="translate(46.110090, 75.193304) rotate(-270.000000) translate(-46.110090, -75.193304) " x="43.6100902" y="38.6933038" width="5" height="73" rx="2.5"></rect>
                                        <rect id="Rectangle-Copy" fill="#D7D9E0" transform="translate(46.110090, 88.193304) rotate(-270.000000) translate(-46.110090, -88.193304) " x="43.6100902" y="51.6933038" width="5" height="73" rx="2.5"></rect>
                                    </g>
                                    <g id="pencil" transform="translate(91.961731, 70.527892) rotate(15.000000) translate(-91.961731, -70.527892) translate(45.961731, 10.527892)">
                                        <g id="Path">
                                            <use fill="black" fill-opacity="1" filter="url(#filter-5)" xlink:href="#path-4"></use>
                                            <use fill="#FFFFFF" fill-rule="evenodd" xlink:href="#path-4"></use>
                                        </g>
                                        <g id="Path-2" transform="translate(45.000000, 67.000000)">
                                            <g id="Group-5" transform="translate(19.165226, 18.666613) rotate(8.000000) translate(-19.165226, -18.666613) translate(2.665226, 2.166613)">
                                                <mask id="mask-7" fill="white">
                                                    <use xlink:href="#path-6"></use>
                                                </mask>
                                                <use id="Mask" fill="#AA80FF" fill-rule="nonzero" xlink:href="#path-6"></use>
                                                <polygon id="Path-2" fill="#FB79C7" fill-rule="nonzero" mask="url(#mask-7)" points="16.4568319 16.9830768 10.6537448 -4.38937316 33.0384696 -1.63654613 32.2306448 5.0475379"></polygon>
                                                <polygon id="Path-3" fill="#FDB88C" fill-rule="nonzero" mask="url(#mask-7)" points="31.3779834 1.90723304 16.4021923 16.7818422 28.1475989 35.8913816 36.4925317 20.7438326"></polygon>
                                                <polyline id="Path-4" stroke="#FFFFFF" stroke-width="2.5" fill-rule="nonzero" mask="url(#mask-7)" points="11.4789903 -2.02856272 16.6233548 16.9178481 28.3397111 33.5055825"></polyline>
                                                <path d="M15.3384055,14.49726 C15.3384055,14.49726 21.2315037,10.6724342 33.0177001,3.02278262" id="Path-5" stroke="#FFFFFF" stroke-width="2.5" fill-rule="nonzero" mask="url(#mask-7)" transform="translate(24.178053, 8.760021) rotate(-15.000000) translate(-24.178053, -8.760021) "></path>
                                            </g>
                                        </g>
                                        <path d="M16.1888462,113.34025 L16.1888462,6.65975 C16.1888462,3.00025 19.170559,0.03375 22.8488256,0.03375 L6.86502564,0.03375 C3.18675897,0.03375 0.205046154,3.00025 0.205046154,6.65975 L0.205046154,113.3405 C0.205046154,117 3.18675897,119.9665 6.86502564,119.9665 L22.8488256,119.9665 C19.170559,119.96625 16.1888462,116.99975 16.1888462,113.34025 Z" id="Path"></path>
                                        <path d="M76.9705846,46.7705 L13.3974821,46.7705 C12.0732256,46.7705 11,45.7025 11,44.38525 C11,43.068 12.0734769,42 13.3974821,42 L76.9705846,42 C78.294841,42 79.3680667,43.068 79.3680667,44.38525 C79.3680667,45.7025 78.294841,46.7705 76.9705846,46.7705 Z" id="Path" fill="#D7D9E0"></path>
                                        <path d="M76.9705846,59.7705 L13.3974821,59.7705 C12.0732256,59.7705 11,58.7025 11,57.38525 C11,56.068 12.0734769,55 13.3974821,55 L76.9705846,55 C78.294841,55 79.3680667,56.068 79.3680667,57.38525 C79.3680667,58.7025 78.294841,59.7705 76.9705846,59.7705 Z" id="Path" fill="#D7D9E0"></path>
                                        <path d="M36.6150383,92.7705 L11.9308936,92.7705 C11.4167117,92.7705 11,91.7025 11,90.38525 C11,89.068 11.4168093,88 11.9308936,88 L36.6150383,88 C37.1292202,88 37.5459319,89.068 37.5459319,90.38525 C37.5459319,91.7025 37.1292202,92.7705 36.6150383,92.7705 Z" id="Path" fill="#D7D9E0"></path>
                                        <g id="Group-6" transform="translate(11.000000, 76.000000)">
                                            <path d="M16.858852,5.7705 L1.93089359,5.7705 C1.41671172,5.7705 1,4.7025 1,3.38525 C1,2.068 1.41680929,1 1.93089359,1 L16.858852,1 C17.3730338,1 17.7897456,2.068 17.7897456,3.38525 C17.7897456,4.7025 17.3730338,5.7705 16.858852,5.7705 Z" id="Path" fill="#D7D9E0"></path>
                                            <path d="M2.97002564,0.85775 C1.64576923,0.85775 0.57254359,1.92575 0.57254359,3.243 C0.57254359,4.56025 1.64602051,5.62825 2.97002564,5.62825 L5.18884615,5.62825 L5.18884615,0.8575 L2.97002564,0.8575 L2.97002564,0.85775 Z" id="Path" fill="#9B9AA9" opacity="0"></path>
                                        </g>
                                        <path d="M51.8438872,33.7705 L13.3974821,33.7705 C12.0732256,33.7705 11,32.7025 11,31.38525 C11,30.068 12.0734769,29 13.3974821,29 L51.8438872,29 C53.1681436,29 54.2413692,30.068 54.2413692,31.38525 C54.2413692,32.7025 53.1681436,33.7705 51.8438872,33.7705 Z" id="Path" fill="#D7D9E0"></path>
                                        <path d="M78.5072124,33.7705 L66.7341568,33.7705 C66.3286431,33.7705 66,32.7025 66,31.38525 C66,30.068 66.32872,29 66.7341568,29 L78.5072124,29 C78.9127261,29 79.2413692,30.068 79.2413692,31.38525 C79.2413692,32.7025 78.9127261,33.7705 78.5072124,33.7705 Z" id="Path-Copy" fill="#D7D9E0"></path>
                                        <path d="M13.3974821,77.00025 C12.0732256,77.00025 11,78.06825 11,79.3855 C11,80.70275 12.0734769,81.77075 13.3974821,81.77075 L15.6163026,81.77075 L15.6163026,77 L13.3974821,77 L13.3974821,77.00025 Z" id="Path" fill="#D7D9E0"></path>
                                        <path d="M13.9700256,63.606 C12.6457692,63.606 11.5725436,64.674 11.5725436,65.99125 C11.5725436,67.3085 12.6460205,68.3765 13.9700256,68.3765 L16.1888462,68.3765 L16.1888462,63.60575 L13.9700256,63.60575 L13.9700256,63.606 Z" id="Path" fill="#9B9AA9" opacity="0"></path>
                                        <path d="M13.9700256,50.354 C12.6457692,50.354 11.5725436,51.422 11.5725436,52.73925 C11.5725436,54.0565 12.6460205,55.1245 13.9700256,55.1245 L16.1888462,55.1245 L16.1888462,50.35375 L13.9700256,50.35375 L13.9700256,50.354 Z" id="Path" fill="#9B9AA9" opacity="0"></path>
                                        <path d="M13.9700256,37.10225 C12.6457692,37.10225 11.5725436,38.17025 11.5725436,39.4875 C11.5725436,40.80475 12.6460205,41.87275 13.9700256,41.87275 L16.1888462,41.87275 L16.1888462,37.102 L13.9700256,37.102 L13.9700256,37.10225 Z" id="Path" fill="#9B9AA9" opacity="0"></path>
                                        <path d="M13.9700256,23.8505 C12.6457692,23.8505 11.5725436,24.9185 11.5725436,26.23575 C11.5725436,27.553 12.6460205,28.621 13.9700256,28.621 L16.1888462,28.621 L16.1888462,23.85025 L13.9700256,23.85025 L13.9700256,23.8505 Z" id="Path" fill="#9B9AA9" opacity="0"></path>
                                    </g>
                                </g>
                            </g>
                        </g>
                    </g>
                </g>
            </g>
        </g>
    </g>
</svg>