<?xml version="1.0" encoding="UTF-8"?>
<svg width="15px" height="15px" viewBox="0 0 15 15" version="1.1" xmlns="http://www.w3.org/2000/svg" xmlns:xlink="http://www.w3.org/1999/xlink">
    <!-- Generator: Sketch 52.6 (67491) - http://www.bohemiancoding.com/sketch -->
    <title>add-dark-icon</title>
    <desc>Created with Sketch.</desc>
    <g id="Impediment" stroke="none" stroke-width="1" fill="none" fill-rule="evenodd">
        <g id="Impediments---empty-state" transform="translate(-739.000000, -535.000000)" fill="#242E4C">
            <path d="M752.660714,541.160714 L748.107143,541.160714 C747.95922,541.160714 747.839286,541.04078 747.839286,540.892857 L747.839286,536.339286 C747.839286,535.59967 747.239615,535 746.5,535 C745.760385,535 745.160714,535.59967 745.160714,536.339286 L745.160714,540.892857 C745.160714,541.04078 745.04078,541.160714 744.892857,541.160714 L740.339286,541.160714 C739.59967,541.160714 739,541.760385 739,542.5 C739,543.239615 739.59967,543.839286 740.339286,543.839286 L744.892857,543.839286 C745.04078,543.839286 745.160714,543.95922 745.160714,544.107143 L745.160714,548.660714 C745.160714,549.40033 745.760385,550 746.5,550 C747.239615,550 747.839286,549.40033 747.839286,548.660714 L747.839286,544.107143 C747.839286,543.95922 747.95922,543.839286 748.107143,543.839286 L752.660714,543.839286 C753.40033,543.839286 754,543.239615 754,542.5 C754,541.760385 753.40033,541.160714 752.660714,541.160714 Z" id="add-dark-icon"></path>
        </g>
    </g>
</svg>