<?xml version="1.0" encoding="UTF-8"?>
<svg width="18px" height="20px" viewBox="0 0 18 20" version="1.1" xmlns="http://www.w3.org/2000/svg" xmlns:xlink="http://www.w3.org/1999/xlink">
    <!-- Generator: sketchtool 52.6 (67491) - http://www.bohemiancoding.com/sketch -->
    <title>33314F1B-D887-495D-A10C-64638311970F</title>
    <desc>Created with sketchtool.</desc>
    <g id="Bug/Feature" stroke="none" stroke-width="1" fill="none" fill-rule="evenodd">
        <g id="Report-bug/feature" transform="translate(-1230.000000, -25.000000)" fill="#9B9AA9">
            <g id="Navbar">
                <g id="Group-10">
                    <g transform="translate(1219.000000, 15.000000)">
                        <g id="bug-icon" transform="translate(11.000000, 10.000000)">
                            <path d="M6.1335,3.28503906 L4.09275,0.985195313 C3.87972458,0.74515625 3.89623729,0.37296875 4.12958898,0.153867188 C4.36286441,-0.065234375 4.72465678,-0.04828125 4.93772034,0.191757813 L6.96733475,2.4790625 C8.13855508,1.65789063 9.63068644,1.65894531 10.8003814,2.4790625 L12.8299958,0.191757813 C13.0429831,-0.04828125 13.4048136,-0.065234375 13.638089,0.153867188 C13.8714407,0.37296875 13.8879534,0.74515625 13.674928,0.985195313 L11.634178,3.28503906 C12.5832203,4.53160156 12.486089,5.78488281 12.486089,6.52921875 L5.28155085,6.52921875 C5.28155085,5.74710938 5.19544068,4.51710938 6.1335,3.28503906 Z M16.6683051,16.6266016 L17.8314025,17.8230859 C18.1928136,18.1948047 17.9320042,18.8276172 17.4269364,18.8276172 C17.280572,18.8276172 17.1341695,18.7701953 17.0224703,18.6552734 L16.0269025,17.6311328 L13.3735424,17.6311328 C12.5191525,18.9329688 11.1303305,19.8342578 9.53359322,20 C9.53359322,19.9442969 9.53370763,7.74375 9.53332627,7.70609375 L13.5959873,7.70609375 C13.8138178,7.91511719 13.9892034,8.17035156 14.1067754,8.45675781 L16.0268644,8.45675781 L17.0224322,7.43261719 C17.2458305,7.2028125 17.6080424,7.2028125 17.8314025,7.43261719 C18.0548008,7.66242188 18.0548008,8.035 17.8314025,8.26480469 L16.6682669,9.46132813 C16.5610297,9.57167969 16.4155424,9.63367188 16.2638008,9.63367188 L14.273161,9.63367188 L14.273161,12.4555469 L17.4078686,12.4555469 C17.7237839,12.4555469 17.9799025,12.7189844 17.9799025,13.0439844 C17.9799025,13.3689453 17.7237839,13.6324219 17.4078686,13.6324219 L14.273161,13.6324219 C14.273161,14.7025 14.3235381,15.4185547 13.9570551,16.4542578 L16.263839,16.4542578 C16.4155424,16.4542578 16.5610297,16.51625 16.6683051,16.6266016 Z M4.40584322,7.70609375 L4.40584322,7.70617188 L8.38979237,7.70617188 C8.38941102,7.74382813 8.38952542,19.9355859 8.38952542,19.9907422 C6.82550847,19.8042969 5.46772881,18.9118359 4.62725847,17.6311719 L1.97248729,17.6311719 L0.976919492,18.6553125 C0.753521186,18.8851563 0.391309322,18.8851172 0.167949153,18.6553125 C-0.0554491525,18.4255078 -0.0554491525,18.0529297 0.167949153,17.823125 L1.33108475,16.6266016 C1.43832203,16.51625 1.58380932,16.4542578 1.73555085,16.4542578 L4.04370763,16.4542578 C3.67524153,15.4130078 3.72760169,14.6869141 3.72760169,13.6324219 L0.591483051,13.6324219 C0.275567797,13.6324219 0.0194491525,13.3689844 0.0194491525,13.0439844 C0.0194491525,12.7190234 0.275567797,12.4555469 0.591483051,12.4555469 L3.72760169,12.4555469 L3.72760169,9.63367188 L1.73555085,9.63367188 C1.58384746,9.63367188 1.43836017,9.57167969 1.33108475,9.46132813 L0.167949153,8.26480469 C-0.0554491525,8.035 -0.0554491525,7.66242188 0.167949153,7.43261719 C0.391347458,7.2028125 0.753559322,7.2028125 0.976919492,7.43261719 L1.97248729,8.45675781 L3.89398729,8.45675781 C4.01163559,8.17007813 4.18766949,7.91511719 4.40584322,7.70609375 Z" id="Combined-Shape"></path>
                        </g>
                    </g>
                </g>
            </g>
        </g>
    </g>
</svg>