<?xml version="1.0" encoding="UTF-8"?>
<svg width="16px" height="16px" viewBox="0 0 16 16" version="1.1" xmlns="http://www.w3.org/2000/svg" xmlns:xlink="http://www.w3.org/1999/xlink">
    <!-- Generator: Sketch 52.6 (67491) - http://www.bohemiancoding.com/sketch -->
    <title>checkbox-checked-grey</title>
    <desc>Created with Sketch.</desc>
    <g id="Symbols" stroke="none" stroke-width="1" fill="none" fill-rule="evenodd">
        <g id="checkbox-checked-grey">
            <g id="Checked">
                <rect id="Rectangle" stroke="#9B9AA9" stroke-width="1.33333333" fill="#FFFFFF" fill-rule="nonzero" x="0.666666667" y="0.666666667" width="14.6666667" height="14.6666667" rx="7.33333333"></rect>
                <g id="icon/checkmark-green" transform="translate(4.000000, 5.333333)" fill="#9B9AA9">
                    <path d="M7.8554864,0.82825537 L7.15356362,0.141394784 C7.05731769,0.0471433878 6.94026427,0 6.80267453,0 C6.66495825,0 6.54790484,0.0471433878 6.45165891,0.141394784 L3.06580523,3.45959938 L1.54837717,1.96967374 C1.45202277,1.87538696 1.33504167,1.82829665 1.19745193,1.82829665 C1.0597718,1.82829665 0.942790698,1.87538696 0.846436302,1.96967374 L0.144513515,2.65655202 C0.0481591198,2.7508211 0,2.86532735 0,3.00003538 C0,3.13463727 0.0481591198,3.24924966 0.144513515,3.34350105 L2.01286682,5.17172694 L2.71484384,5.85858753 C2.811144,5.95290968 2.92816126,6 3.06580523,6 C3.20339497,6 3.32041223,5.95278585 3.41676662,5.85858753 L4.11872557,5.17172694 L7.8554864,1.51516903 C7.95175041,1.42088225 7.99999992,1.30639369 7.99999992,1.17168566 C8.00007223,1.03704839 7.95175041,0.922542146 7.8554864,0.82825537 Z"></path>
                </g>
            </g>
        </g>
    </g>
</svg>