<?xml version="1.0" encoding="UTF-8"?>
<svg width="45px" height="12px" viewBox="0 0 45 12" version="1.1" xmlns="http://www.w3.org/2000/svg" xmlns:xlink="http://www.w3.org/1999/xlink">
    <!-- Generator: Sketch 52.5 (67469) - http://www.bohemiancoding.com/sketch -->
    <title>github-logo</title>
    <desc>Created with Sketch.</desc>
    <g id="Page-1" stroke="none" stroke-width="1" fill="none" fill-rule="evenodd">
        <g id="Subscribe" transform="translate(-745.000000, -738.000000)" fill="#7985FF">
            <g id="Group-4" transform="translate(169.000000, 143.000000)">
                <g id="Group-7" transform="translate(287.000000, 560.000000)">
                    <path d="M297.536552,40.1302003 C297.632656,40.1302003 297.710549,40.2080928 297.710549,40.3043202 L297.710549,45.9835827 C297.710549,46.0161917 297.705011,46.0873163 297.654067,46.1154954 C297.654067,46.1154954 296.418124,46.986095 294.380736,46.986095 C291.920046,46.986095 289,46.228335 289,41.143049 C289,36.0577631 291.550518,35 294.036803,35 C296.195152,35 297.049508,35.4780607 297.189543,35.5779797 C297.240733,35.6146495 297.255991,35.6689158 297.255991,35.7139532 L296.840564,37.4732411 C296.840564,37.5694685 296.740399,37.6772629 296.63199,37.6441617 C296.287072,37.5373517 295.74527,37.3159795 294.4873,37.3159795 C293.034168,37.3159795 291.486285,37.7461725 291.486285,41.0155662 C291.486285,44.2843446 292.972764,44.6730688 294.036803,44.6730688 C294.938781,44.6730688 295.264995,44.561829 295.264995,44.561829 L295.264995,42.2995006 L293.812108,42.2995006 C293.716004,42.2995006 293.638112,42.2212389 293.638112,42.1252576 L293.638112,40.3043202 C293.638112,40.2080928 293.716004,40.1302003 293.812108,40.1302003 L297.536552,40.1302003 Z M316.720629,35.5441401 L316.720629,46.5177555 C316.720383,46.6145982 316.643598,46.6933521 316.547493,46.6933521 L314.445503,46.6933521 C314.349522,46.6933521 314.271752,46.6145982 314.271752,46.5177555 C314.271752,46.5173864 314.277536,41.824024 314.277536,41.824024 L311.008634,41.824024 L311.008634,46.5177555 C311.008634,46.6145982 310.931603,46.6933521 310.835622,46.6933521 L308.738677,46.6933521 C308.643311,46.6933521 308.565418,46.6145982 308.565418,46.5177555 L308.565418,35.5441401 C308.565418,35.4472974 308.643311,35.3691588 308.738677,35.3691588 L310.835622,35.3691588 C310.931603,35.3691588 311.008634,35.4472974 311.008634,35.5441401 L311.008634,39.5968888 L314.277536,39.5968888 C314.277536,39.5968888 314.27692,35.5446323 314.27692,35.5441401 C314.27692,35.4472974 314.354813,35.3691588 314.450548,35.3691588 L316.547616,35.3691588 C316.643844,35.3691588 316.720629,35.4472974 316.720629,35.5441401 Z M301.425517,36.9806602 C301.425517,37.7349747 300.82022,38.346794 300.073288,38.346794 C299.327095,38.346794 298.721183,37.7349747 298.721183,36.9806602 C298.721183,36.2254843 299.327095,35.6152647 300.073288,35.6152647 C300.82022,35.6152647 301.425517,36.2254843 301.425517,36.9806602 Z M301.289913,44.1780268 C301.289913,44.4737231 301.289913,45.9976107 301.289913,46.3865811 C301.289913,46.565254 301.239215,46.6667726 301.032486,46.6667726 C300.041418,46.6667726 299.149038,46.6667726 299.149038,46.6667726 C298.977133,46.6667726 298.844235,46.6032773 298.844235,46.3900266 C298.844235,45.2281607 298.844235,39.1328562 298.844235,39.1328562 C298.844235,39.0366288 298.930003,38.9376942 299.025862,38.9376942 L301.116408,38.9376942 C301.212266,38.9376942 301.289913,39.016325 301.289913,39.1125524 C301.289913,39.1125524 301.289913,43.8967278 301.289913,44.1780268 Z M324.612506,39.0607471 C324.708488,39.0607471 324.786134,39.139378 324.786134,39.2360976 L324.786872,46.602539 C324.786872,46.6988894 324.708734,46.7776433 324.613491,46.7776433 L323.269876,46.7836729 C323.202689,46.7836729 323.140547,46.7359284 323.116798,46.6886761 C323.092925,46.6413007 323.040259,46.2416247 323.040259,46.2416247 C323.040259,46.2416247 321.933521,47 320.560742,47 C318.887591,47 317.671336,46.4660733 317.671336,44.2837293 C317.671336,42.1015084 317.671336,39.2360976 317.671336,39.2360976 C317.671336,39.139378 317.749474,39.0607471 317.844717,39.0607471 L319.956798,39.0607471 C320.05241,39.0607471 320.129934,39.139378 320.129934,39.2360976 C320.129934,39.2360976 320.129934,43.192865 320.129934,43.9284755 C320.129934,44.6631015 320.329033,45.003589 321.079287,45.003589 C321.829664,45.003589 322.358422,44.6168336 322.358422,44.6168336 L322.358422,39.2360976 C322.358422,39.139378 322.436192,39.0607471 322.531558,39.0607471 L324.612506,39.0607471 Z M329.530317,44.9154831 C330.54009,44.9460003 330.865934,44.5738882 330.865934,42.6888401 C330.865934,40.901127 330.143859,40.6748326 329.394467,40.7418965 C328.801844,40.7948092 328.318861,41.0908746 328.318861,41.0908746 L328.318861,44.5660128 C328.318861,44.5660128 328.808489,44.8935797 329.530317,44.9154831 Z M330.35108,38.732688 C331.533865,38.732688 333.284416,39.1746942 333.284416,42.5572965 C333.284416,45.9396528 332.188384,46.9090639 330.277125,46.9090639 C328.649258,46.9090639 327.789364,46.0942073 327.789364,46.0942073 C327.789364,46.0942073 327.737067,46.5412586 327.700766,46.600201 C327.663973,46.6595125 327.61426,46.6933521 327.54855,46.6933521 C327.548057,46.6933521 326.089634,46.6933521 326.089388,46.6933521 C325.993529,46.6933521 325.915883,46.6145982 325.915883,46.5177555 L325.915883,35.5441401 C325.915883,35.4472974 325.993529,35.3691588 326.089142,35.3691588 L328.192239,35.3691588 C328.287729,35.3691588 328.365252,35.4472974 328.365252,35.5441401 L328.365252,39.2600929 C328.365252,39.2600929 329.169157,38.732688 330.35108,38.732688 Z M307.294773,39.04192 C307.390632,39.04192 307.468278,39.1199356 307.468278,39.2167783 L307.468278,40.9071566 C307.468278,41.0042453 307.390632,41.082507 307.294773,41.082507 L305.721541,41.082507 C305.721541,41.082507 305.721664,43.7031655 305.721664,44.1678135 C305.721664,44.6328305 305.983398,44.9921451 306.756171,44.9921451 C306.9976,44.9921451 307.232016,44.9548601 307.323814,44.9548601 C307.415857,44.9548601 307.497688,45.0332448 307.497688,45.1300875 L307.495842,46.6145982 C307.495842,46.6844923 307.459664,46.749095 307.397399,46.7719829 C307.294404,46.8100063 306.670526,46.9774813 306.148904,46.9774813 C305.007588,46.9774813 303.316103,46.7406044 303.316103,44.3291359 C303.316103,42.4940473 303.316103,41.082507 303.316103,41.082507 L302.216994,41.082507 C302.121135,41.082507 302.043612,41.0042453 302.043612,40.9071566 L302.043612,39.5576349 C302.043612,39.4780197 302.096894,39.411325 302.169126,39.390406 C302.24185,39.369487 303.316103,39.1100914 303.316103,39.1100914 L303.316103,36.9625714 C303.316103,36.8824639 303.360771,36.8457942 303.444201,36.8457942 L305.587783,36.8457942 C305.678719,36.8457942 305.719326,36.885048 305.719326,36.9638019 C305.719326,36.9641711 305.721664,39.04192 305.721664,39.04192 L307.294773,39.04192 Z" id="github-logo"></path>
                </g>
            </g>
        </g>
    </g>
</svg>