<?xml version="1.0" encoding="UTF-8"?>
<svg width="13px" height="15px" viewBox="0 0 13 15" version="1.1" xmlns="http://www.w3.org/2000/svg" xmlns:xlink="http://www.w3.org/1999/xlink">
    <!-- Generator: sketchtool 52.6 (67491) - http://www.bohemiancoding.com/sketch -->
    <title>2FD15F08-9B10-4D2D-823C-53CCDCD7CE02</title>
    <desc>Created with sketchtool.</desc>
    <g id="Scrum" stroke="none" stroke-width="1" fill="none" fill-rule="evenodd">
        <g id="Scrum-Click-More" transform="translate(-1071.000000, -168.000000)">
            <g id="Group-3-Copy" transform="translate(1050.000000, 153.000000)">
                <g id="Group-8">
                    <g id="notes-icon" transform="translate(21.000000, 15.000000)">
                        <g id="document-with-folded-corner">
                            <path d="M0.866666667,0.882352941 L7.8,0.882352941 C9.44047619,0.787815126 10.5960317,1.08193277 11.2666667,1.76470588 C11.9373016,2.44747899 12.2261905,3.62394958 12.1333333,5.29411765 L12.1333333,14.1176471 L0.866666667,14.1176471 L0.866666667,0.882352941 Z" id="Rectangle" fill="#9B9AA9" fill-rule="nonzero"></path>
                            <path d="M3.32231745,5.29411765 L6.21128796,5.29411765 C6.61004812,5.29411765 6.93333333,4.89517078 6.93333333,4.41166577 C6.93333333,3.92816076 6.61004812,3.52941176 6.21128796,3.52941176 L3.32231745,3.52941176 C2.9235845,3.52941176 2.6,3.92819374 2.6,4.41166577 C2.59997279,4.8951378 2.9235573,5.29411765 3.32231745,5.29411765 Z" id="Path" fill="#FFFFFF"></path>
                            <path d="M3.35011193,8.82352941 L9.64985981,8.82352941 C10.0642466,8.82352941 10.4,8.42455702 10.4,7.94109402 C10.4,7.45756507 10.0642466,7.05882353 9.64985981,7.05882353 L3.35011193,7.05882353 C2.93603591,7.05882353 2.6,7.45759805 2.6,7.94109402 C2.59997175,8.42459 2.93600765,8.82352941 3.35011193,8.82352941 Z" id="Path" fill="#FFFFFF"></path>
                            <path d="M9.67762662,10.5882353 L3.32231896,10.5882353 C2.92358518,10.5882353 2.6,10.9818735 2.6,11.4704716 C2.6,11.9591363 2.92358518,12.3529412 3.32231896,12.3529412 L9.67765383,12.3529412 C10.0763876,12.3529412 10.4,11.9591696 10.4,11.4704716 C10.3999728,10.9818735 10.0763876,10.5882353 9.67762662,10.5882353 Z" id="Path" fill="#FFFFFF"></path>
                            <path d="M9.82192861,0 L1.7743238,0 C0.792328228,0 0,0.81778423 0,1.8263858 L0,13.1677788 C0,14.1765647 0.792328228,15 1.7743238,15 L11.2257061,15 C12.2077017,15 13,14.1765339 13,13.1677788 L13,3.34549211 L9.82192861,0 Z M11.2257061,13.6888794 L1.7743238,13.6888794 C1.49261772,13.6888794 1.25894875,13.4573986 1.25894875,13.1678095 L1.25894875,1.8263858 C1.25894875,1.53682747 1.49261772,1.29349159 1.7743238,1.29349159 L9.20548733,1.29349159 L9.20548733,2.76161499 C9.20548733,3.40707086 9.71452518,3.9322255 10.3425946,3.9388287 L11.7410512,3.95350932 L11.7410512,13.1678095 C11.7410512,13.4573986 11.5074122,13.6888794 11.2257061,13.6888794 Z" id="Shape" fill="#9B9AA9" fill-rule="nonzero"></path>
                        </g>
                    </g>
                </g>
            </g>
        </g>
    </g>
</svg>