<?xml version="1.0" encoding="UTF-8"?>
<svg width="24px" height="24px" viewBox="0 0 24 24" version="1.1" xmlns="http://www.w3.org/2000/svg" xmlns:xlink="http://www.w3.org/1999/xlink">
    <!-- Generator: sketchtool 52.6 (67491) - http://www.bohemiancoding.com/sketch -->
    <title>5D707E86-F049-4A45-B334-6EE9A349CD2D</title>
    <desc>Created with sketchtool.</desc>
    <g id="Scrum" stroke="none" stroke-width="1" fill="none" fill-rule="evenodd">
        <g id="Scrum---Create-Group-filled" transform="translate(-950.000000, -459.000000)">
            <g id="Group-8" transform="translate(438.000000, 222.000000)">
                <g id="Group-4" transform="translate(1.000000, 168.000000)">
                    <g id="Group-6">
                        <g id="Group-6-Copy-6" transform="translate(0.000000, 56.000000)">
                            <g id="Checked" transform="translate(511.000000, 13.000000)">
                                <g>
                                    <rect id="Rectangle" stroke="#87C549" stroke-width="2" fill="#FFFFFF" fill-rule="nonzero" x="1" y="1" width="22" height="22" rx="11"></rect>
                                    <g id="Path-2" transform="translate(6.000000, 8.000000)" fill="#87C549">
                                        <path d="M11.7832296,1.24238306 L10.7303454,0.212092176 C10.5859765,0.0707150818 10.4103964,0 10.2040118,0 C9.99743738,0 9.82185725,0.0707150818 9.67748836,0.212092176 L4.59870785,5.18939908 L2.32256575,2.95451061 C2.17803416,2.81308045 2.0025625,2.74244497 1.79617789,2.74244497 C1.5896577,2.74244497 1.41418605,2.81308045 1.26965445,2.95451061 L0.216770273,3.98482803 C0.0722386798,4.12623165 0,4.29799103 0,4.50005307 C0,4.70195591 0.0722386798,4.87387448 0.216770273,5.01525158 L3.01930022,7.75759041 L4.07226576,8.78788129 C4.216716,8.92936452 4.39224189,9 4.59870785,9 C4.80509245,9 4.98061834,8.92917878 5.12514994,8.78788129 L6.17808835,7.75759041 L11.7832296,2.27275354 C11.9276256,2.13132338 11.9999999,1.95959054 11.9999999,1.7575285 C12.0001083,1.55557259 11.9276256,1.38381322 11.7832296,1.24238306 Z" id="Path"></path>
                                    </g>
                                </g>
                            </g>
                        </g>
                    </g>
                </g>
            </g>
        </g>
    </g>
</svg>