<?xml version="1.0" encoding="UTF-8"?>
<svg width="13px" height="8px" viewBox="0 0 13 8" version="1.1" xmlns="http://www.w3.org/2000/svg" xmlns:xlink="http://www.w3.org/1999/xlink">
    <!-- Generator: sketchtool 52.6 (67491) - http://www.bohemiancoding.com/sketch -->
    <title>F2810702-CDC2-40F7-A449-24263CB85958</title>
    <desc>Created with sketchtool.</desc>
    <g id="Scrum" stroke="none" stroke-width="1" fill="none" fill-rule="evenodd" opacity="0.6">
        <g id="Scrum---Create-Group-filled" transform="translate(-1402.000000, -31.000000)" fill="#242E4C">
            <g id="Group" transform="translate(0.000000, -44.000000)">
                <g id="Navbar" transform="translate(0.000000, 44.000000)">
                    <g id="arrow" transform="translate(1408.500000, 35.000000) rotate(-90.000000) translate(-1408.500000, -35.000000) translate(1404.500000, 28.500000)">
                        <path d="M3.73933886,6.50419656 L7.69847769,2.44637382 C7.89964475,2.24040618 8,1.98849574 8,1.69067174 C8,1.39287699 7.89961621,1.14108352 7.69847769,0.93514513 L7.08758614,0.308849102 C6.88673296,0.102969197 6.64090967,0 6.35043016,0 C6.05995064,0 5.81424149,0.102969197 5.61307443,0.308849102 L0.301493772,5.74431255 C0.100497924,5.95028018 0,6.20216138 0,6.50001462 C0,6.79786787 0.10046939,7.04954435 0.301493772,7.25559972 L5.6130459,12.6910632 C5.81421295,12.8970308 6.05989357,13 6.35040162,13 C6.64090967,13 6.88670443,12.8970308 7.0875576,12.6910632 L7.69844916,12.0648841 C7.89961621,11.8590335 7.99997147,11.608556 7.99997147,11.3133932 C7.99997147,11.0184644 7.89958768,10.7651795 7.69844916,10.5536847 L3.73933886,6.50419656 Z" id="Path"></path>
                    </g>
                </g>
            </g>
        </g>
    </g>
</svg>