<?xml version="1.0" encoding="UTF-8"?>
<svg width="10px" height="10px" viewBox="0 0 10 10" version="1.1" xmlns="http://www.w3.org/2000/svg" xmlns:xlink="http://www.w3.org/1999/xlink">
    <!-- Generator: Sketch 52.6 (67491) - http://www.bohemiancoding.com/sketch -->
    <title>icon/close/white</title>
    <desc>Created with Sketch.</desc>
    <g id="Scrum" stroke="none" stroke-width="1" fill="none" fill-rule="evenodd" opacity="0.5">
        <g id="Scrum---Members-Deleted" transform="translate(-898.000000, -30.000000)" fill="#242E4C">
            <g id="Group-8" transform="translate(518.000000, 16.000000)">
                <g id="icon/close/white" transform="translate(380.000000, 14.000000)">
                    <g id="close-icon">
                        <path d="M5.88438848,5.00010423 L9.8167643,1.06756447 C10.0610786,0.823448477 10.0610786,0.427359336 9.8167643,0.183243345 C9.57245002,-0.0610811149 9.17679431,-0.0610811149 8.93248004,0.183243345 L5.00010423,4.11578311 L1.06751996,0.183243345 C0.823205687,-0.0610811149 0.427549978,-0.0610811149 0.183235705,0.183243345 C-0.0610785683,0.427359336 -0.0610785683,0.823448477 0.183235705,1.06756447 L4.11581997,5.00010423 L0.183235705,8.932644 C-0.0610785683,9.17675999 -0.0610785683,9.57284913 0.183235705,9.81696512 C0.305392842,9.93891889 0.465489567,10 0.625377832,10 C0.785266098,10 0.945362823,9.93891889 1.06751996,9.81675666 L5.00010423,5.88421689 L8.93248004,9.81675666 C9.05463718,9.93891889 9.2147339,10 9.37462217,10 C9.53451043,10 9.69460716,9.93891889 9.8167643,9.81675666 C10.0610786,9.57264066 10.0610786,9.17655152 9.8167643,8.93243553 L5.88438848,5.00010423 Z"></path>
                    </g>
                </g>
            </g>
        </g>
    </g>
</svg>