<?xml version="1.0" encoding="UTF-8"?>
<svg width="12px" height="12px" viewBox="0 0 12 12" version="1.1" xmlns="http://www.w3.org/2000/svg" xmlns:xlink="http://www.w3.org/1999/xlink">
    <!-- Generator: sketchtool 52.6 (67491) - http://www.bohemiancoding.com/sketch -->
    <title>BE8BB08A-FD4C-4692-B6A8-982881CC91AC</title>
    <desc>Created with sketchtool.</desc>
    <g id="Scrum" stroke="none" stroke-width="1" fill="none" fill-rule="evenodd">
        <g id="Scrum---Create-Group-filled" transform="translate(-859.000000, -340.000000)" fill="#6390F6">
            <g id="Group-8" transform="translate(438.000000, 222.000000)">
                <g id="Group-13" transform="translate(0.000000, 100.000000)">
                    <g id="Group-12-Copy" transform="translate(401.000000, 3.000000)">
                        <g id="Group-11" transform="translate(20.000000, 12.000000)">
                            <g id="add-icon" transform="translate(0.000000, 3.000000)">
                                <path d="M10.9285714,4.92857143 L7.28571429,4.92857143 C7.16737583,4.92857143 7.07142857,4.83262417 7.07142857,4.71428571 L7.07142857,1.07142857 C7.07142857,0.479736321 6.59169225,0 6,0 C5.40830775,0 4.92857143,0.479736321 4.92857143,1.07142857 L4.92857143,4.71428571 C4.92857143,4.83262417 4.83262417,4.92857143 4.71428571,4.92857143 L1.07142857,4.92857143 C0.479736321,4.92857143 0,5.40830775 0,6 C0,6.59169225 0.479736321,7.07142857 1.07142857,7.07142857 L4.71428571,7.07142857 C4.83262417,7.07142857 4.92857143,7.16737583 4.92857143,7.28571429 L4.92857143,10.9285714 C4.92857143,11.5202637 5.40830775,12 6,12 C6.59169225,12 7.07142857,11.5202637 7.07142857,10.9285714 L7.07142857,7.28571429 C7.07142857,7.16737583 7.16737583,7.07142857 7.28571429,7.07142857 L10.9285714,7.07142857 C11.5202637,7.07142857 12,6.59169225 12,6 C12,5.40830775 11.5202637,4.92857143 10.9285714,4.92857143 Z"></path>
                            </g>
                        </g>
                    </g>
                </g>
            </g>
        </g>
    </g>
</svg>