<?xml version="1.0" encoding="UTF-8"?>
<svg width="20px" height="20px" viewBox="0 0 20 20" version="1.1" xmlns="http://www.w3.org/2000/svg" xmlns:xlink="http://www.w3.org/1999/xlink">
    <!-- Generator: sketchtool 52.6 (67491) - http://www.bohemiancoding.com/sketch -->
    <title>4F0BED35-A07D-4260-BEAB-3CCAE274BB32</title>
    <desc>Created with sketchtool.</desc>
    <g id="Scrum" stroke="none" stroke-width="1" fill="none" fill-rule="evenodd">
        <g transform="translate(-175.000000, -861.000000)" fill="#FFFFFF" fill-rule="nonzero" id="Group">
            <g transform="translate(0.000000, -44.000000)">
                <g id="scrum-page" transform="translate(150.000000, 139.000000)">
                    <g id="teams-sidebar">
                        <g id="team-settings">
                            <g transform="translate(0.000000, 746.000000)">
                                <g id="Group-3">
                                    <g transform="translate(25.000000, 20.000000)">
                                        <g id="settings-icon" transform="translate(10.000000, 10.000000) scale(-1, 1) translate(-10.000000, -10.000000) ">
                                            <path d="M18.5483164,7.44583129 L17.5729726,7.28042602 C17.4861499,7.0387268 17.3880357,6.80160523 17.2795455,6.57104492 L17.8538875,5.76751711 C18.3536138,5.0654602 18.2733524,4.11727906 17.6649833,3.51486207 L16.4929533,2.34268188 C16.1616843,2.01141359 15.7225355,1.82891844 15.2565311,1.82891844 C14.8895565,1.82891844 14.5386037,1.94198609 14.2441085,2.15393066 L13.4375272,2.72842406 C13.1880455,2.61047363 12.9349017,2.50625609 12.6800794,2.41622926 L12.5187937,1.46057129 C12.3768866,0.61416625 11.650872,0 10.7924108,0 L9.13652362,0 C8.278215,0 7.55220037,0.61416625 7.41059852,1.45889281 L7.24107302,2.4519348 C7.00166215,2.53936766 6.76560819,2.63870238 6.53443706,2.74963379 L5.74250428,2.17926023 C5.44556767,1.96548461 5.09324152,1.85256957 4.72352031,1.85256957 C4.2529383,1.85256957 3.81363686,2.03536988 3.48603003,2.36740113 L2.31125347,3.53836059 C1.70456279,4.14505004 1.62506431,5.09246828 2.12234926,5.79101562 L2.70599915,6.61102297 C2.59842444,6.84249879 2.50168354,7.08068848 2.41623415,7.32376098 L1.46042167,7.48504641 C0.614167494,7.6271057 0,8.35311891 0,9.21142578 L0,10.8673096 C0,11.7256164 0.614167494,12.4516296 1.45889577,12.5933838 L2.45193977,12.7627563 C2.5393728,13.0023193 2.63886034,13.2385254 2.74963936,13.4695434 L2.1814009,14.2599487 C1.68167454,14.9620056 1.76193595,15.9103394 2.37030511,16.5126038 L3.54233506,17.6847839 C3.87360402,18.0160523 4.31275287,18.1985473 4.77875725,18.1985473 C5.14573186,18.1985473 5.49668472,18.0854797 5.79102735,17.8736877 L6.61103636,17.2900391 C6.82649085,17.3901367 7.04987998,17.481842 7.27922005,17.5643921 L7.44172647,18.5395813 C7.5837861,19.3858337 8.30980077,20 9.16810938,20 L10.8278112,20 C11.6861198,20 12.4122871,19.3858337 12.5540415,18.5406494 L12.7194472,17.565155 C12.9611469,17.4783325 13.1982689,17.3802185 13.4288297,17.2717285 L14.2297651,17.8442383 C14.5267018,18.0580139 14.8790279,18.1710816 15.2487492,18.1710816 C15.7146009,18.1710816 16.1537497,17.9885864 16.4850187,17.6573181 L17.6570487,16.4851379 C18.263892,15.8784485 18.3432378,14.9310303 17.8459529,14.2324829 L17.2710006,13.4251404 C17.3823899,13.1892395 17.4808093,12.9522705 17.5654958,12.7166748 L18.5394663,12.5543213 C19.3857204,12.412262 19.9998879,11.6862488 19.9998879,10.8279419 L19.9998879,9.17541504 C20.009501,8.31619262 19.3997585,7.58926391 18.5483164,7.44583129 Z M18.8280105,10.8279419 C18.8280105,11.1116028 18.6250682,11.3516235 18.346137,11.398468 L17.0543253,11.6137695 C16.8159825,11.6534424 16.6237214,11.8215942 16.5521575,12.0527649 C16.4374112,12.4246216 16.2797876,12.804718 16.0840169,13.1819153 C15.9732379,13.3946228 15.9909382,13.6480713 16.1300986,13.8430786 L16.8913611,14.9121094 C17.055546,15.1428223 17.0291482,15.4559326 16.8284948,15.6565857 L15.6564648,16.8286133 C15.5449228,16.940155 15.4039313,16.9992066 15.2487492,16.9992066 C15.1263734,16.9992066 15.0108641,16.9625855 14.9129025,16.8920898 L13.8484472,16.1312866 C13.6526766,15.9907532 13.3981595,15.973053 13.1843834,16.0848999 C12.8264115,16.2722778 12.4460091,16.4299011 12.0537048,16.5530395 C11.8248225,16.6247559 11.6577384,16.8164062 11.6179129,17.0523071 L11.3984911,18.3454895 C11.3516465,18.6251831 11.1116253,18.828125 10.8278112,18.828125 L9.16810938,18.828125 C8.88429533,18.828125 8.64442668,18.6251831 8.5975821,18.3462524 L8.38228018,17.0544434 C8.3429124,16.817627 8.17628609,16.6256714 7.94740379,16.5533447 C7.56074531,16.4312744 7.19254995,16.2799072 6.85273606,16.103363 C6.76011502,16.0552979 6.65986458,16.0316467 6.56007188,16.0316467 C6.43098224,16.0316467 6.302503,16.0713196 6.19248691,16.1495972 L5.10895808,16.9207764 C5.01130163,16.9911194 4.90021742,17.0266723 4.77875725,17.0266723 C4.62357503,17.0266723 4.48258353,16.9677734 4.37104159,16.8560791 L3.19687538,15.6820679 C2.99652708,15.4837036 2.97104484,15.1715088 3.13446682,14.941864 L3.89115167,13.8893127 C4.03351645,13.6917114 4.05091152,13.4353638 3.9361652,13.2197571 C3.74375149,12.8588867 3.58429679,12.4804688 3.46207365,12.0948791 C3.38974686,11.8675232 3.19885902,11.701355 2.96387319,11.6612244 L1.65436124,11.4379883 C1.37481966,11.3909912 1.17187737,11.1509705 1.17187737,10.8673096 L1.17187737,9.21142578 C1.17187737,8.92776488 1.37481966,8.68774414 1.65481901,8.64074707 L2.93076156,8.42544555 C3.16925689,8.38531492 3.36136544,8.21670531 3.43231898,7.98477172 C3.55271106,7.5907898 3.70758805,7.20977781 3.89267757,6.85272219 C4.00284623,6.64047242 3.985146,6.3876343 3.84644334,6.19247438 L3.07709365,5.11154176 C2.91275613,4.88082887 2.93915392,4.56771852 3.13919702,4.36767578 L4.31519428,3.1956482 L4.31946675,3.19122313 C4.42521037,3.08364867 4.56864327,3.02444457 4.72352031,3.02444457 C4.84589606,3.02444457 4.9615579,3.06106566 5.05768844,3.13034059 L6.11481949,3.89129641 C6.31272642,4.03381348 6.56937975,4.05090332 6.78422393,3.93615723 C7.14509501,3.74374391 7.52351375,3.58428953 7.9086464,3.46221922 C8.1360028,3.39004516 8.30217134,3.19946289 8.34260721,2.96386719 L8.56599633,1.65435789 C8.61284092,1.37481688 8.85286214,1.171875 9.13667623,1.171875 L10.7925633,1.171875 C11.0762248,1.171875 11.316246,1.37481688 11.3632432,1.65481566 L11.5785452,2.93121336 C11.6188284,3.16986086 11.7877436,3.36181641 12.0198302,3.43261719 C12.4154915,3.55285645 12.8100845,3.71520996 13.1929283,3.91540527 C13.4056363,4.02648926 13.6590853,4.00909422 13.8550085,3.86978148 L14.9264829,3.10668945 C15.0239867,3.03634645 15.1350709,3.00079344 15.2566837,3.00079344 C15.4117133,3.00079344 15.5527049,3.05969238 15.6643994,3.17138672 L16.838413,4.34539797 C17.0387613,4.54376219 17.0643961,4.85595703 16.8999061,5.0868225 L16.1383383,6.15234375 C15.9985676,6.3482666 15.9811725,6.60247805 16.0927145,6.8154907 C16.2802454,7.17346191 16.4377164,7.55386352 16.5610077,7.94631957 C16.6328767,8.17520141 16.8243749,8.34213258 17.0602763,8.38195801 L18.3523931,8.6012268 L18.3534612,8.60137938 C18.6322399,8.64822387 18.8319778,8.88473512 18.8280105,9.16381836 L18.8280105,10.8279419 Z" id="Shape"></path>
                                            <path d="M9.73684211,6.31578947 C7.5602442,6.31578947 5.78947368,8.08655999 5.78947368,10.2631579 C5.78947368,12.4397558 7.5602442,14.2105263 9.73684211,14.2105263 C11.91344,14.2105263 13.6842105,12.4397558 13.6842105,10.2631579 C13.6842105,8.08655999 11.91344,6.31578947 9.73684211,6.31578947 Z M9.73684211,13.0209254 C8.21622856,13.0209254 6.97907459,11.7837714 6.97907459,10.2631579 C6.97907459,8.74254435 8.21622856,7.50539038 9.73684211,7.50539038 C11.2574556,7.50539038 12.4946096,8.74254435 12.4946096,10.2631579 C12.4946096,11.7837714 11.2574556,13.0209254 9.73684211,13.0209254 Z" id="Shape"></path>
                                        </g>
                                    </g>
                                </g>
                            </g>
                        </g>
                    </g>
                </g>
            </g>
        </g>
    </g>
</svg>