<?xml version="1.0" encoding="UTF-8"?>
<svg width="15px" height="11px" viewBox="0 0 15 11" version="1.1" xmlns="http://www.w3.org/2000/svg" xmlns:xlink="http://www.w3.org/1999/xlink">
    <!-- Generator: sketchtool 52.6 (67491) - http://www.bohemiancoding.com/sketch -->
    <title>D5EC9D4A-3EC9-42D6-AAEF-DFC6B7054B53</title>
    <desc>Created with sketchtool.</desc>
    <g id="Authentication" stroke="none" stroke-width="1" fill="none" fill-rule="evenodd">
        <g id="Sign-Up-Error-1440px" transform="translate(-568.000000, -420.000000)" fill="#9B9AA9" fill-rule="nonzero">
            <g id="form" transform="translate(553.000000, 274.000000)">
                <g id="email" transform="translate(0.000000, 103.000000)">
                    <g id="email-icon" transform="translate(15.000000, 43.000000)">
                        <g id="Shape">
                            <path d="M13.6816406,0 L1.31835938,0 C0.592910156,0 0,0.590302734 0,1.31835938 L0,9.22851562 C0,9.95683594 0.593291016,10.546875 1.31835938,10.546875 L13.6816406,10.546875 C14.4070898,10.546875 15,9.95657227 15,9.22851562 L15,1.31835938 C15,0.590126953 14.4067969,0 13.6816406,0 Z M13.4791992,0.87890625 C13.052959,1.30655273 8.04624023,6.32958984 7.84054688,6.53595703 C7.66875,6.70828125 7.33133789,6.70839844 7.15945312,6.53595703 L1.52080078,0.87890625 L13.4791992,0.87890625 Z M0.87890625,9.06694336 L0.87890625,1.47993164 L4.66010742,5.2734375 L0.87890625,9.06694336 Z M1.52080078,9.66796875 L5.28058594,5.8959375 L6.53698242,7.15643555 C7.0518457,7.67296875 7.94835938,7.67276367 8.46304687,7.15643555 L9.71944336,5.8959668 L13.4791992,9.66796875 L1.52080078,9.66796875 Z M14.1210938,9.06694336 L10.3398926,5.2734375 L14.1210938,1.47993164 L14.1210938,9.06694336 Z"></path>
                        </g>
                    </g>
                </g>
            </g>
        </g>
    </g>
</svg>