<?xml version="1.0" encoding="UTF-8"?>
<svg width="12px" height="12px" viewBox="0 0 12 12" version="1.1" xmlns="http://www.w3.org/2000/svg" xmlns:xlink="http://www.w3.org/1999/xlink">
    <!-- Generator: sketchtool 52.6 (67491) - http://www.bohemiancoding.com/sketch -->
    <title>0494C70F-392D-415B-9617-84C18626B4C5</title>
    <desc>Created with sketchtool.</desc>
    <g id="Scrum" stroke="none" stroke-width="1" fill="none" fill-rule="evenodd">
        <g transform="translate(-362.000000, -195.000000)" fill="#FFFFFF" id="Group">
            <g transform="translate(0.000000, -44.000000)">
                <g id="scrum-page" transform="translate(150.000000, 139.000000)">
                    <g id="teams-sidebar">
                        <g id="Group-6">
                            <g transform="translate(35.000000, 92.000000)">
                                <g id="add-btn-dark" transform="translate(169.000000, 0.000000)">
                                    <g id="add-icon-white">
                                        <path d="M18.9285714,12.9285714 L15.2857143,12.9285714 C15.1673758,12.9285714 15.0714286,12.8326242 15.0714286,12.7142857 L15.0714286,9.07142857 C15.0714286,8.47973632 14.5916923,8 14,8 C13.4083078,8 12.9285714,8.47973632 12.9285714,9.07142857 L12.9285714,12.7142857 C12.9285714,12.8326242 12.8326242,12.9285714 12.7142857,12.9285714 L9.07142857,12.9285714 C8.47973632,12.9285714 8,13.4083078 8,14 C8,14.5916923 8.47973632,15.0714286 9.07142857,15.0714286 L12.7142857,15.0714286 C12.8326242,15.0714286 12.9285714,15.1673758 12.9285714,15.2857143 L12.9285714,18.9285714 C12.9285714,19.5202637 13.4083078,20 14,20 C14.5916923,20 15.0714286,19.5202637 15.0714286,18.9285714 L15.0714286,15.2857143 C15.0714286,15.1673758 15.1673758,15.0714286 15.2857143,15.0714286 L18.9285714,15.0714286 C19.5202637,15.0714286 20,14.5916923 20,14 C20,13.4083078 19.5202637,12.9285714 18.9285714,12.9285714 Z"></path>
                                    </g>
                                </g>
                            </g>
                        </g>
                    </g>
                </g>
            </g>
        </g>
    </g>
</svg>