<?xml version="1.0" encoding="UTF-8"?>
<svg width="15px" height="12px" viewBox="0 0 15 12" version="1.1" xmlns="http://www.w3.org/2000/svg" xmlns:xlink="http://www.w3.org/1999/xlink">
    <!-- Generator: sketchtool 52.6 (67491) - http://www.bohemiancoding.com/sketch -->
    <title>64C1981D-2AE9-42E6-B865-567CDB320C4C</title>
    <desc>Created with sketchtool.</desc>
    <g id="Scrum" stroke="none" stroke-width="1" fill="none" fill-rule="evenodd">
        <g id="Scrum-Click-More" transform="translate(-1070.000000, -256.000000)" fill="#9B9AA9" fill-rule="nonzero">
            <g id="Group-3-Copy" transform="translate(1050.000000, 153.000000)">
                <g id="Group-4-Copy" transform="translate(0.000000, 87.000000)">
                    <path d="M33.75,16 L24.375,16 C23.9375,16 23.625,16.1875 23.375,16.5625 L20,21.625 L23.375,26.6875 C23.625,27 23.9375,27.25 24.375,27.25 L33.75,27.25 C34.4375,27.25 35,26.6875 35,26 L35,17.25 C35,16.5625 34.4375,16 33.75,16 Z M31.875,23.875 L31,24.75 L28.75,22.5 L26.5,24.75 L25.625,23.875 L27.875,21.625 L25.625,19.375 L26.5,18.5 L28.75,20.75 L31,18.5 L31.875,19.375 L29.625,21.625 L31.875,23.875 Z" id="clear-icon"></path>
                </g>
            </g>
        </g>
    </g>
</svg>