<?xml version="1.0" encoding="UTF-8"?>
<svg width="36px" height="35px" viewBox="0 0 36 35" version="1.1" xmlns="http://www.w3.org/2000/svg" xmlns:xlink="http://www.w3.org/1999/xlink">
    <!-- Generator: Sketch 52.6 (67491) - http://www.bohemiancoding.com/sketch -->
    <title>error-icon</title>
    <desc>Created with Sketch.</desc>
    <g id="Scrum" stroke="none" stroke-width="1" fill="none" fill-rule="evenodd">
        <g id="Scrum---Delete-Member" transform="translate(-703.000000, -154.000000)">
            <g id="Group-4" transform="translate(390.000000, 94.000000)">
                <g id="error-icon" transform="translate(313.000000, 60.000000)">
                    <path d="M18.2273931,0.0349564986 L18.2273931,35 C28.0212373,35 35.9601306,27.1730069 35.9601306,17.5175559 C35.9601306,7.86210494 28.0212373,0.0349564986 18.2273931,0.0349564986 Z" id="Path" fill="#FE5F1A"></path>
                    <path d="M18.2273931,0.0349564986 C25.0828791,0.0349564986 30.6403251,7.86194957 30.6403251,17.5174006 C30.6403251,27.1728516 25.0828791,35 18.2273931,35 C8.43354889,35 0.494655546,27.1730069 0.494655546,17.5175559 C0.494655546,7.86210494 8.43354889,0.0349564986 18.2273931,0.0349564986 Z" id="Path" fill="#FE6D4D"></path>
                    <path d="M22.7267722,19.8782993 L20.3040497,17.5175559 L22.7267722,15.1568126 C23.3002429,14.5980126 23.3002429,13.6920819 22.7267722,13.1333667 C22.1533014,12.5745667 21.2235863,12.5745667 20.6502026,13.1333667 L18.2274801,15.49411 L15.8047576,13.1333667 C15.2312868,12.5745667 14.3015717,12.5745667 13.728188,13.1333667 C13.1548042,13.6921666 13.1547172,14.5980974 13.728188,15.1568126 L16.1509105,17.5175559 L13.728014,19.8782993 C13.1545432,20.4370993 13.1545432,21.34303 13.728014,21.9017452 C14.3014847,22.4605452 15.2311998,22.4605452 15.8045836,21.9017452 L18.2273061,19.5410018 L20.6500286,21.9017452 C21.2234994,22.4605452 22.1532144,22.4605452 22.7265982,21.9017452 C23.3002429,21.34303 23.3002429,20.4370145 22.7267722,19.8782993 Z" id="Path" fill="#FFFFFF"></path>
                </g>
            </g>
        </g>
    </g>
</svg>