<?xml version="1.0" encoding="UTF-8"?>
<svg width="15px" height="15px" viewBox="0 0 15 15" version="1.1" xmlns="http://www.w3.org/2000/svg" xmlns:xlink="http://www.w3.org/1999/xlink">
    <!-- Generator: Sketch 52.6 (67491) - http://www.bohemiancoding.com/sketch -->
    <title>logout-icon</title>
    <desc>Created with Sketch.</desc>
    <g id="Scrum" stroke="none" stroke-width="1" fill="none" fill-rule="evenodd">
        <g id="Scrumbs-User-Dropdown" transform="translate(-1200.000000, -313.000000)" fill="#9B9AA9">
            <g id="Group-3-Copy" transform="translate(1159.000000, 62.000000)">
                <g id="Group-12" transform="translate(20.000000, 193.000000)">
                    <g id="Group-6" transform="translate(0.000000, 43.000000)">
                        <g id="logout" transform="translate(21.000000, 15.000000)">
                            <g id="logout-icon">
                                <path d="M14.9522754,6.62318713 C15.0153809,6.77538012 15.0153809,6.94754386 14.9522754,7.09967836 C14.9204004,7.17640351 14.8747852,7.24564327 14.8166602,7.30304094 L12.9422754,9.17377193 C12.8204004,9.29605263 12.6604102,9.35654971 12.5003906,9.35654971 C12.3403711,9.35654971 12.1803809,9.29602339 12.0585059,9.17377193 C11.8141406,8.93049708 11.8141406,8.53564327 12.0585059,8.29175439 L12.8666309,7.48520468 L9.37538086,7.48520468 C9.02976563,7.48520468 8.75039063,7.20576023 8.75039063,6.86143275 C8.75039063,6.51710526 9.02976563,6.23766082 9.37538086,6.23766082 L12.8666602,6.23766082 L12.0585352,5.43111111 C11.8141699,5.18783626 11.8141699,4.79298246 12.0585352,4.54909357 C12.3029004,4.30581871 12.6979102,4.30581871 12.9422754,4.54909357 L14.8166602,6.41982456 C14.8747852,6.47783626 14.9204004,6.54707602 14.9522754,6.62318713 Z M10.6253906,8.73295322 C10.9710059,8.73295322 11.2503809,9.01239766 11.2503809,9.35672515 L11.2503809,13.0994444 C11.2503809,13.4437719 10.9710059,13.7232164 10.6253906,13.7232164 L7.50038086,13.7232164 L7.50038086,14.3469883 C7.50038086,14.5341228 7.41600586,14.7106725 7.27163086,14.8291813 C7.15913086,14.9215205 7.01850586,14.9707895 6.87539062,14.9707895 C6.83478516,14.9707895 6.79353516,14.9670468 6.75290039,14.9583041 L0.502910156,13.710731 C0.211025391,13.6527193 0.00041015625,13.3969591 0.00041015625,13.0994152 L0.00041015625,0.62377193 C0.00041015625,0.611315789 0.0085546875,0.600087719 0.00916992187,0.587602339 C0.00978515625,0.569502924 0.00416015625,0.552046784 0.00729492187,0.533333333 C0.0147949219,0.480935673 0.0366503906,0.434766082 0.0566601562,0.387368421 C0.063515625,0.369912281 0.065390625,0.351812865 0.0741503906,0.33497076 C0.115400391,0.256988304 0.172265625,0.191491228 0.240380859,0.137865497 C0.245390625,0.134122807 0.247265625,0.127251462 0.252304687,0.123479532 C0.265429687,0.113508772 0.282304687,0.112894737 0.296044922,0.104152047 C0.351650391,0.0692397661 0.411035156,0.0436549708 0.476660156,0.0268128655 C0.504785156,0.0199415205 0.531650391,0.0149707602 0.561035156,0.0118421053 C0.582890625,0.00935672515 0.602900391,-7.46069873e-14 0.625400391,-7.46069873e-14 L10.6253906,-7.46069873e-14 C10.9710059,-7.46069873e-14 11.2503809,0.279444444 11.2503809,0.62380117 L11.2503809,4.36649123 C11.2503809,4.71081871 10.9710059,4.99026316 10.6253906,4.99026316 C10.2797754,4.99026316 10.0004004,4.71081871 10.0004004,4.36649123 L10.0004004,1.2475731 L4.88414062,1.2475731 L7.05477539,1.89754386 C7.31915039,1.97675439 7.50041016,2.22002924 7.50041016,2.49511696 L7.50041016,12.4756433 L10.0004004,12.4756433 L10.0004004,9.35672515 C10.0004004,9.01239766 10.2797754,8.73295322 10.6253906,8.73295322 Z"></path>
                            </g>
                        </g>
                    </g>
                </g>
            </g>
        </g>
    </g>
</svg>