<?xml version="1.0" encoding="UTF-8"?>
<svg width="108px" height="25px" viewBox="0 0 108 25" version="1.1" xmlns="http://www.w3.org/2000/svg" xmlns:xlink="http://www.w3.org/1999/xlink">
    <!-- Generator: sketchtool 52.6 (67491) - http://www.bohemiancoding.com/sketch -->
    <title>6620BB9F-97FF-4067-A41F-F31DD6B07B5C</title>
    <desc>Created with sketchtool.</desc>
    <g id="Authentication" stroke="none" stroke-width="1" fill="none" fill-rule="evenodd">
        <g id="Sign-Up-Filled---Show-Password" transform="translate(-25.000000, -16.000000)">
            <g id="Navbar">
                <g id="scrumbs-logo-colored" transform="translate(25.000000, 16.000000)">
                    <g>
                        <path d="M26.2041342,23.5973837 L26.9507114,21.7165698 C28.0890362,22.5676179 29.47542,23.0187044 30.8952483,23 C31.536,23 32.0288859,22.8924419 32.378255,22.6787791 C32.7057251,22.5004219 32.9069287,22.1541112 32.9001342,21.7805233 C32.9119387,21.4769734 32.7769954,21.1863506 32.5377181,21 C32.2956242,20.8081395 31.8839195,20.6395349 31.3011544,20.497093 L29.5093691,20.0915698 C27.54749,19.6642442 26.5665503,18.6589147 26.5665503,17.0755814 C26.5566899,16.4492224 26.7511397,15.8367741 27.1203221,15.3313953 C27.521702,14.801073 28.060108,14.3909257 28.6772617,14.1453488 C29.4138897,13.847972 30.2027768,13.7026317 30.9967248,13.7180233 C31.750026,13.7159994 32.4988051,13.8347462 33.2147114,14.0697674 C33.9000184,14.289688 34.5389216,14.6346203 35.0992752,15.0872093 L34.3092081,16.9055233 C33.2296912,16.1070737 32.1206979,15.7078488 30.9822282,15.7078488 C30.3704698,15.7078488 29.8944967,15.8217054 29.5543087,16.0494186 C29.2278618,16.249049 29.032285,16.6079983 29.0411275,16.9912791 C29.0289808,17.2741039 29.1426137,17.5477551 29.3513557,17.7383721 C29.5572081,17.9244186 29.9089933,18.0813953 30.4067114,18.2093023 L32.2405369,18.6162791 C33.3036241,18.8575581 34.0820939,19.2315891 34.5759463,19.7383721 C35.0697987,20.2451551 35.3152752,20.9045542 35.3123758,21.7165698 C35.3398046,22.6593028 34.8904683,23.5521449 34.1178523,24.0901163 C33.3205369,24.6715116 32.2328054,24.9622093 30.8546577,24.9622093 C28.9053422,24.9651163 27.3551678,24.5101744 26.2041342,23.5973837 Z" id="Path" fill="#0F145B"></path>
                        <path d="M39.0988993,24.2819767 C38.2882702,23.8410494 37.6274853,23.1673866 37.2012886,22.3473837 C36.7605906,21.5130814 36.5402416,20.5329458 36.5402416,19.4069767 C36.5180261,18.3734987 36.756369,17.3511203 37.2331812,16.434593 C37.6815668,15.5930653 38.362604,14.8991285 39.1945772,14.4360465 C40.093142,13.9450101 41.1041114,13.6979895 42.1272483,13.7194767 C42.886248,13.7170384 43.6404785,13.8398014 44.3597315,14.0828488 C45.0020281,14.2801208 45.5900152,14.6238936 46.0775839,15.0872093 L45.3310067,16.9767442 C44.8968197,16.618059 44.4071635,16.3328183 43.8813423,16.1322674 C43.3986123,15.9441603 42.8857826,15.8456578 42.3678926,15.8415698 C41.4014496,15.8415698 40.6476241,16.1443798 40.1064161,16.75 C39.5652081,17.3556202 39.2950872,18.2277132 39.2960537,19.3662791 C39.2960537,20.505814 39.5627919,21.375 40.0962685,21.9738372 C40.629745,22.5726744 41.386953,22.872093 42.3678926,22.872093 C42.8866434,22.8683702 43.4000618,22.7667964 43.8813423,22.5726744 C44.4061765,22.3655738 44.8953478,22.0771824 45.3310067,21.7180233 L46.0775839,23.5988372 C45.567319,24.0588669 44.9633366,24.4020759 44.3075436,24.6046512 C43.5714306,24.8481776 42.8009156,24.9708821 42.0257718,24.9680233 C40.8998657,24.9670542 39.9242416,24.7383721 39.0988993,24.2819767 Z" id="Path" fill="#0F145B"></path>
                        <path d="M54.4914362,13.9113372 L54.4696913,16.3488372 C54.0228619,16.1657063 53.5447855,16.0714185 53.0620671,16.0712209 C52.1536107,16.0712209 51.4606711,16.3347868 50.9832483,16.8619186 C50.5058256,17.3890504 50.2675973,18.0876937 50.2685638,18.9578488 L50.2685638,24.7950581 L47.6243758,24.7950581 L47.6243758,17.0552326 C47.6312333,16.0352012 47.5741005,15.0157471 47.4533154,14.002907 L49.9481879,14.002907 L50.1583893,15.8997093 C50.3987715,15.2409294 50.8479013,14.6793126 51.4369933,14.3008721 C52.0304427,13.9269397 52.7193056,13.7335695 53.4201342,13.744186 C53.7843805,13.7344504 54.1473648,13.7910854 54.4914362,13.9113372 Z" id="Path" fill="#0F145B"></path>
                        <path d="M65.5567248,13.997093 L65.5567248,24.7950581 L62.9473289,24.7950581 L62.9473289,23.127907 C62.6302948,23.7036291 62.1574021,24.1777692 61.5831946,24.4956395 C60.979776,24.8181494 60.3040106,24.9802805 59.620349,24.9665698 C56.9906577,24.9665698 55.6758121,23.4840116 55.6758121,20.5188953 L55.6758121,13.997093 L58.32,13.997093 L58.32,20.5377907 C58.32,21.3217054 58.4799463,21.8987403 58.7998389,22.2688953 C59.1202148,22.6409884 59.6131007,22.8255814 60.2828456,22.8255814 C61.0637316,22.8255814 61.6890201,22.5687984 62.1587114,22.0552326 C62.6284027,21.5416667 62.8632483,20.8575581 62.8632483,20.002907 L62.8632483,13.997093 L65.5567248,13.997093 Z" id="Path" fill="#0F145B"></path>
                        <path d="M83.4832752,14.8255814 C84.0805369,15.5610465 84.3791678,16.6753876 84.3791678,18.1686047 L84.3791678,24.7965116 L81.7132349,24.7965116 L81.7132349,18.255814 C81.7132349,17.4001938 81.5745503,16.7834302 81.2971812,16.4055233 C81.0198121,16.0276163 80.5612349,15.8386628 79.9214497,15.8386628 C79.1821208,15.8386628 78.602255,16.0988372 78.1818523,16.619186 C77.7614497,17.1395349 77.5531812,17.8551356 77.557047,18.7659884 L77.557047,24.7950581 L74.8882148,24.7950581 L74.8882148,18.2543605 C74.8882148,17.4132751 74.7432483,16.7999031 74.4533154,16.4142442 C74.1633826,16.0285853 73.7052886,15.8347868 73.0790336,15.8328488 C72.3397047,15.8328488 71.7564564,16.0930233 71.3292886,16.6133721 C70.9021208,17.1337209 70.6890201,17.8502907 70.6899866,18.7630814 L70.6899866,24.7921512 L68.0428993,24.7921512 L68.0428993,17.0552326 C68.0497568,16.0352012 67.992624,15.0157471 67.8718389,14.002907 L70.3667114,14.002907 L70.5595168,15.7136628 C70.8505394,15.0951712 71.3229141,14.5804763 71.9135034,14.2383721 C72.5344377,13.8877666 73.2378056,13.7105824 73.9502819,13.7252907 C75.5980672,13.7252907 76.671302,14.4093992 77.1699866,15.7776163 C77.5024697,15.1448249 78.0098034,14.6215185 78.6312483,14.2703488 C79.2779439,13.9031387 80.0104253,13.7150205 80.753557,13.7252907 C81.9761073,13.7214147 82.8860134,14.0881783 83.4832752,14.8255814 Z" id="Path" fill="#0F145B"></path>
                        <path d="M95.4357584,14.4142442 C96.1675822,14.8936265 96.7479061,15.572289 97.1086711,16.3706395 C97.5240268,17.2897722 97.7286126,18.2905661 97.7073826,19.2994186 C97.7272405,20.3198343 97.5197275,21.3318321 97.0999732,22.2616279 C96.7380382,23.0739804 96.1539872,23.7669137 95.4154631,24.2601744 C94.6820792,24.735573 93.8242159,24.9814679 92.9510336,24.9665698 C92.2114812,24.9802834 91.480775,24.8036307 90.8287248,24.4534884 C90.2281812,24.1296459 89.7406076,23.6296295 89.4312483,23.0203488 L89.4312483,24.7950581 L86.8088054,24.7950581 L86.8088054,9.05813953 L89.4529933,9.05813953 L89.4529933,15.622093 C89.7760525,15.0275294 90.2652961,14.5405314 90.8606174,14.2209302 C91.5036861,13.878613 92.2230754,13.7060444 92.9510336,13.7194767 C93.8291947,13.7026358 94.6930288,13.9441772 95.4357584,14.4142442 Z M94.2934228,21.9302326 C94.7766442,21.3023256 95.018255,20.4253876 95.018255,19.2994186 C95.018255,18.1734496 94.7766442,17.3149225 94.2934228,16.7238372 C93.8102014,16.118217 93.1211275,15.815407 92.2262013,15.815407 C91.3312752,15.815407 90.6417181,16.1216086 90.1575302,16.7340116 C89.6743088,17.3473837 89.432698,18.2194767 89.432698,19.3502907 C89.432698,20.4917635 89.6743088,21.3638565 90.1575302,21.9665698 C90.6407516,22.569283 91.3370739,22.872093 92.2464966,22.875 C93.1278926,22.872093 93.8102014,22.5571705 94.2934228,21.9302326 Z" id="Shape" fill="#0F145B" fill-rule="nonzero"></path>
                        <path d="M98.8163758,23.5973837 L99.562953,21.7165698 C100.701033,22.5670214 102.086756,23.0180584 103.50604,23 C104.145825,23 104.639678,22.8929263 104.987597,22.6787791 C105.315391,22.5005669 105.517106,22.1543378 105.510926,21.7805233 C105.522248,21.4770709 105.387402,21.1866583 105.14851,21 C104.906416,20.8081395 104.493262,20.6395349 103.910497,20.497093 L102.118711,20.0915698 C100.156832,19.6642442 99.1758926,18.6589147 99.1758926,17.0755814 C99.1665581,16.4490722 99.3615114,15.8366413 99.7311141,15.3313953 C100.132494,14.801073 100.6709,14.3909257 101.288054,14.1453488 C102.024626,13.8477795 102.813553,13.7024318 103.607517,13.7180233 C104.360828,13.7158746 105.109626,13.8346245 105.825503,14.0697674 C106.510941,14.289379 107.149899,14.6343407 107.710067,15.0872093 L106.92145,16.9055233 C105.84,16.1070737 104.731007,15.7078488 103.59447,15.7078488 C102.982711,15.7078488 102.506255,15.8217054 102.165101,16.0494186 C101.838986,16.2491971 101.643922,16.6082198 101.653369,16.9912791 C101.640652,17.2739081 101.753773,17.5476047 101.962148,17.7383721 C102.168,17.9244186 102.519785,18.0813953 103.017503,18.2093023 L104.852779,18.6162791 C105.915866,18.8575581 106.693852,19.2315891 107.186738,19.7383721 C107.679624,20.2451551 107.925101,20.9045542 107.923168,21.7165698 C107.950597,22.6593028 107.50126,23.5521449 106.728644,24.0901163 C105.932295,24.6715116 104.844564,24.9622093 103.46545,24.9622093 C101.519034,24.9651163 99.9693422,24.5101744 98.8163758,23.5973837 Z" id="Path" fill="#0F145B"></path>
                        <polygon id="Path" fill="#0085C7" points="4.66791946 10.6104651 4.66791946 24.4767442 15.8462819 24.4767442 17.9758389 12.0944767 9.56778523 14.9883721"></polygon>
                        <polygon id="Path" fill="#0F145B" points="4.78389262 24.4767442 4.66791946 18.3866279 0 20.0116279"></polygon>
                        <polygon id="Path" fill="#6ACFEE" points="4.66791946 10.6104651 9.56778523 15.0436047 24.5471678 9.75726744 21.0433289 0"></polygon>
                    </g>
                </g>
            </g>
        </g>
    </g>
</svg>