<?xml version="1.0" encoding="UTF-8"?>
<svg width="18px" height="18px" viewBox="0 0 18 18" version="1.1" xmlns="http://www.w3.org/2000/svg" xmlns:xlink="http://www.w3.org/1999/xlink">
    <!-- Generator: Sketch 52.6 (67491) - http://www.bohemiancoding.com/sketch -->
    <title>search-icon</title>
    <desc>Created with Sketch.</desc>
    <g id="Scrum" stroke="none" stroke-width="1" fill="none" fill-rule="evenodd">
        <g id="search-icon" fill="#D7D9E0" fill-rule="nonzero">
            <path d="M17.4092143,16.3853684 L13.0512857,11.9324211 C14.1717857,10.6237895 14.7857143,8.97726316 14.7857143,7.26315789 C14.7857143,3.25831579 11.4692143,0 7.39285714,0 C3.3165,0 0,3.25831579 0,7.26315789 C0,11.268 3.3165,14.5263158 7.39285714,14.5263158 C8.92317857,14.5263158 10.3815,14.0728421 11.6283214,13.212 L16.0193571,17.6987368 C16.2028929,17.886 16.44975,17.9892632 16.7142857,17.9892632 C16.9646786,17.9892632 17.2022143,17.8954737 17.3825357,17.7249474 C17.7656786,17.3627368 17.7778929,16.7621053 17.4092143,16.3853684 Z M7.39285714,1.89473684 C10.4059286,1.89473684 12.8571429,4.30294737 12.8571429,7.26315789 C12.8571429,10.2233684 10.4059286,12.6315789 7.39285714,12.6315789 C4.37978571,12.6315789 1.92857143,10.2233684 1.92857143,7.26315789 C1.92857143,4.30294737 4.37978571,1.89473684 7.39285714,1.89473684 Z" id="icons/search-white"></path>
        </g>
    </g>
</svg>