<?xml version="1.0" encoding="UTF-8"?>
<svg width="15px" height="15px" viewBox="0 0 15 15" version="1.1" xmlns="http://www.w3.org/2000/svg" xmlns:xlink="http://www.w3.org/1999/xlink">
    <!-- Generator: Sketch 52.6 (67491) - http://www.bohemiancoding.com/sketch -->
    <title>settings-icon</title>
    <desc>Created with Sketch.</desc>
    <g id="Scrum" stroke="none" stroke-width="1" fill="none" fill-rule="evenodd">
        <g id="Scrumbs-User-Dropdown" transform="translate(-1199.000000, -270.000000)" fill="#9B9AA9" fill-rule="nonzero">
            <g id="Group-3-Copy" transform="translate(1159.000000, 62.000000)">
                <g id="Group-12" transform="translate(20.000000, 193.000000)">
                    <g id="Group-8">
                        <g id="settings-icon" transform="translate(20.000000, 15.000000)">
                            <path d="M14.6669824,6.19494141 L12.9464062,5.77180664 C12.8429883,5.44564453 12.7099512,5.12935547 12.5494336,4.82680664 C12.8077734,4.39678711 13.3506738,3.49171875 13.3506738,3.49171875 C13.4545313,3.3187793 13.4270508,3.09732422 13.2845801,2.95485352 L12.041748,1.71202148 C11.8992773,1.56911133 11.6782617,1.54166016 11.5048828,1.64592773 L10.167627,2.44716797 C9.86677734,2.28793945 9.5522168,2.15619141 9.22822266,2.05362305 L8.80508789,0.333046875 C8.75613281,0.13734375 8.58061523,0 8.37890625,0 L6.62109375,0 C6.41938477,0 6.24342773,0.13734375 6.19494141,0.333017578 C6.19494141,0.333017578 5.90182617,1.53389648 5.7722168,2.05318359 C5.42674805,2.16260742 5.09288086,2.30466797 4.77486328,2.47804687 L3.38827148,1.64592773 C3.21489258,1.54291992 2.99431641,1.56955078 2.85140625,1.71202148 L1.60857422,2.95485352 C1.46610352,3.09732422 1.43862305,3.3187793 1.54248047,3.49171875 L2.39994141,4.92380859 C2.26174805,5.19632812 2.14587891,5.47998047 2.05362305,5.77051758 L0.333046875,6.19494141 C0.13734375,6.24386719 0,6.41938477 0,6.62109375 L0,8.37890625 C0,8.58061523 0.13734375,8.75657227 0.333017578,8.80505859 L2.0540332,9.22819336 C2.15833008,9.55907227 2.29391602,9.88051758 2.45830078,10.1890723 L1.69098633,11.4679395 C1.58712891,11.6408789 1.61460937,11.862334 1.75708008,12.0048047 L2.99991211,13.2476367 C3.14197266,13.3896973 3.36339844,13.416709 3.53677734,13.3137305 C3.53677734,13.3137305 4.39722656,12.7979004 4.81866211,12.5455371 C5.12378906,12.7081934 5.44306641,12.8425195 5.77224609,12.9467871 L6.1949707,14.6669531 C6.24342773,14.8626855 6.41938477,15 6.62109375,15 L8.37890625,15 C8.58061523,15 8.75613281,14.8626563 8.80505859,14.6669824 L9.2277832,12.9468164 C9.56639648,12.8395313 9.8925293,12.7008984 10.2028125,12.5326758 C10.6358203,12.7923047 11.5048535,13.3137305 11.5048535,13.3137305 C11.677793,13.4171484 11.899248,13.3905469 12.0417187,13.2476367 L13.2845508,12.0048047 C13.4270215,11.862334 13.454502,11.6408789 13.3506445,11.4679395 L12.5605664,10.1517188 C12.7163379,9.85602539 12.8455371,9.54662109 12.946377,9.22819336 L14.6669531,8.80505859 C14.8626855,8.75613281 15,8.58061523 15,8.37890625 L15,6.62109375 C15,6.41938477 14.8626855,6.24386719 14.6669824,6.19494141 Z M7.5,10.5761719 C5.80397461,10.5761719 4.42382812,9.19602539 4.42382812,7.5 C4.42382812,5.80397461 5.80397461,4.42382812 7.5,4.42382812 C9.19602539,4.42382812 10.5761719,5.80397461 10.5761719,7.5 C10.5761719,9.19602539 9.19602539,10.5761719 7.5,10.5761719 Z"></path>
                        </g>
                    </g>
                </g>
            </g>
        </g>
    </g>
</svg>