<?xml version="1.0" encoding="UTF-8"?>
<svg width="907px" height="608px" viewBox="0 0 907 608" preserveAspectRatio="none" version="1.1" xmlns="http://www.w3.org/2000/svg" xmlns:xlink="http://www.w3.org/1999/xlink">
    <!-- Generator: sketchtool 52.6 (67491) - http://www.bohemiancoding.com/sketch -->
    <title>0EEFD9D8-2F99-4FED-B381-37D1E169EC6F</title>
    <desc>Created with sketchtool.</desc>
    <g id="Authentication" stroke="none" stroke-width="1" fill="none" fill-rule="evenodd" fill-opacity="0.5">
        <g id="Forgot-Password" transform="translate(-271.000000, -83.000000)" fill="#E9E9F3" fill-rule="nonzero">
            <g id="bg">
                <g id="bg-shape" transform="translate(220.000000, -10.000000)">
                    <g transform="translate(499.477157, 367.269579) rotate(-8.000000) translate(-499.477157, -367.269579) translate(38.034300, 61.324913)" id="Path-8">
                        <path d="M99.5999649,42.2098299 C134.130524,11.1215626 233.903518,-12.0725883 290.402875,7.69921543 C346.902231,27.4710192 494.568195,112.616432 580.454362,133.991031 C666.340529,155.36563 899.421273,273.715079 901.648192,320.286708 C903.875112,366.858338 853.830994,495.009604 810.903242,525.770394 C767.975491,556.531185 671.203397,569.742823 631.576143,580.386421 C591.948889,591.030019 195.929323,596.774898 92.484305,541.240525 C23.5209597,504.21761 -6.84977437,459.298395 1.37210278,406.482879 C66.7780465,164.010003 65.0694056,73.2980972 99.5999649,42.2098299 Z"></path>
                        <path d="M53.1094651,121.338726 C69.0351292,72.2317121 166.108514,39.8337025 226.851101,46.7134716 C287.593688,53.5932407 456.72335,103.913084 546.369179,105.983535 C636.015008,108.053987 898.00123,171.975929 914.588173,216.491871 C931.175116,261.007812 922.519389,395.655445 890.557629,434.664255 C858.595869,473.673066 769.14685,507.375222 734.140404,526.232625 C699.133958,545.090028 318.106039,636.321076 200.899708,605.044202 C122.762154,584.192952 79.4824111,547.362602 71.0604787,494.55315 C59.132966,246.123813 37.1838011,170.445739 53.1094651,121.338726 Z"></path>
                        <path d="M46.6198538,77.0487338 C73.1374795,20.0503224 167.64766,4.23610604 227.418827,15.487816 C287.189995,26.7395259 450.364448,89.0476276 539.419679,97.618266 C628.474909,106.188904 882.699149,188.764149 894.573742,234.221057 C906.448335,279.677965 883.784983,412.89821 847.888164,449.35375 C811.991346,485.80929 719.401006,512.813394 682.574025,529.015856 C645.747044,545.218319 256.796092,608.227894 143.341782,568.621875 C67.705576,542.217863 28.4481282,502.461821 25.569439,449.35375 C21.9246317,239.149347 28.9414366,115.047675 46.6198538,77.0487338 Z"></path>
                    </g>
                </g>
            </g>
        </g>
    </g>
</svg>