<?xml version="1.0" encoding="UTF-8"?>
<svg width="19px" height="18px" viewBox="0 0 19 18" version="1.1" xmlns="http://www.w3.org/2000/svg" xmlns:xlink="http://www.w3.org/1999/xlink">
    <!-- Generator: sketchtool 52.6 (67491) - http://www.bohemiancoding.com/sketch -->
    <title>21305255-D60F-47DF-B46F-0C6F3F52B486</title>
    <desc>Created with sketchtool.</desc>
    <g id="Authentication" stroke="none" stroke-width="1" fill="none" fill-rule="evenodd">
        <g id="Log-In-400px" transform="translate(-73.000000, -634.000000)">
            <g id="Group" transform="translate(30.500000, 242.000000)">
                <g id="social-media" transform="translate(0.005935, 333.000000)">
                    <g id="btn-copy-2" transform="translate(0.000000, 43.000000)">
                        <g id="google-icon" transform="translate(43.000000, 16.000000)">
                            <g id="Path">
                                <path d="M4.04081633,10.8242798 L3.40615141,13.1757858 L1.08646572,13.2244898 C0.39322018,11.9483245 0,10.4882292 0,8.93662824 C0,7.43624073 0.367651254,6.02135033 1.01933838,4.7755102 L1.01983694,4.7755102 L3.08500853,5.15128745 L3.98967847,7.18865612 C3.80033309,7.73652323 3.69713149,8.32464714 3.69713149,8.93662824 C3.69720271,9.6008124 3.81842364,10.2371808 4.04081633,10.8242798 Z" fill="#FBBB00"></path>
                                <path d="M17.8424927,7.34693878 C17.9460186,7.88716421 18,8.44507621 18,9.01526765 C18,9.65463557 17.9321447,10.2783054 17.8028781,10.8798931 C17.3640549,12.9270356 16.2174169,14.7146006 14.6289978,15.9795918 L14.6285048,15.9791035 L12.056413,15.8490879 L11.692382,13.5977998 C12.7463748,12.9854327 13.5700752,12.0271134 14.0039686,10.8798931 L9.18367347,10.8798931 L9.18367347,7.34693878 L14.0742888,7.34693878 L17.8424927,7.34693878 Z" fill="#518EF8"></path>
                                <path d="M14.6933843,16.0066427 L14.6938776,16.0071377 C13.1481223,17.2539761 11.1845258,18 9.04701372,18 C5.61200588,18 2.62552815,16.073293 1.10204082,13.2379141 L4.02509716,10.8367347 C4.78682321,12.8768356 6.74791809,14.3291054 9.04701372,14.3291054 C10.0352246,14.3291054 10.9610358,14.0610191 11.7554591,13.5930172 L14.6933843,16.0066427 Z" fill="#28B446"></path>
                                <path d="M14.6938776,2.09640166 L11.77038,4.51151783 C10.9477904,3.9926819 9.97541808,3.6929622 8.93367112,3.6929622 C6.58138589,3.6929622 4.58263614,5.22097777 3.85871507,7.34693878 L0.918860865,4.91830569 L0.918367347,4.91830569 C2.42028502,1.99634095 5.44590568,0 8.93367112,0 C11.1233068,0 13.1309751,0.787039891 14.6938776,2.09640166 Z" fill="#F14336"></path>
                            </g>
                        </g>
                    </g>
                </g>
            </g>
        </g>
    </g>
</svg>