<?xml version="1.0" encoding="UTF-8"?>
<svg width="14px" height="15px" viewBox="0 0 14 15" version="1.1" xmlns="http://www.w3.org/2000/svg" xmlns:xlink="http://www.w3.org/1999/xlink">
    <!-- Generator: sketchtool 52.6 (67491) - http://www.bohemiancoding.com/sketch -->
    <title>238D4195-277B-4B17-BB89-E9393AE7DE6C</title>
    <desc>Created with sketchtool.</desc>
    <g id="Authentication" stroke="none" stroke-width="1" fill="none" fill-rule="evenodd">
        <g id="Sign-Up-Error-1440px" transform="translate(-568.000000, -315.000000)" fill="#9B9AA9">
            <g id="form" transform="translate(553.000000, 274.000000)">
                <g id="name">
                    <g id="user-icon" transform="translate(15.000000, 41.000000)">
                        <g>
                            <path d="M10.0730589,7.10526316 C9.85689857,7.36542842 9.61405095,7.60560929 9.3351299,7.82239135 C10.9272283,8.69527726 12.002076,10.3363403 12.002076,12.2128642 C12.002076,13.2268124 9.67772227,14.0210998 6.71049129,14.0210998 C3.74326031,14.0210998 1.41890661,13.2268124 1.41890661,12.2128642 C1.41890661,10.3363403 2.49375428,8.69527726 4.08585268,7.82239135 C3.80696666,7.60560929 3.56411904,7.36546189 3.34792371,7.10526316 C1.57493289,8.17541539 0.394736842,10.0647601 0.394736842,12.2128642 C0.394736842,12.8635786 0.767518809,13.7704413 2.54355661,14.3954472 C3.65139569,14.7853268 5.13124623,15 6.71052632,15 C8.2898064,15 9.76965695,14.7853268 10.877496,14.3954472 C12.6534988,13.7704413 13.0263158,12.8635786 13.0263158,12.2128642 C13.0262457,10.0647601 11.8460497,8.17541539 10.0730589,7.10526316 Z" id="Path"></path>
                            <path d="M6.71052632,7.89473684 C8.4946017,7.89473684 9.86842105,6.08608669 9.86842105,3.94738488 C9.86842105,1.80769539 8.49391109,0 6.71052632,0 C4.92645093,0 3.55263158,1.80865015 3.55263158,3.94735196 C3.55263158,6.08704145 4.92717294,7.89473684 6.71052632,7.89473684 Z M6.71052632,0.96276315 C7.94559506,0.96276315 8.95043825,2.30163703 8.95043825,3.94735196 C8.95043825,5.59306688 7.94559506,6.93194077 6.71052632,6.93194077 C5.47545757,6.93194077 4.47061438,5.59306688 4.47061438,3.94735196 C4.47061438,2.30163703 5.47545757,0.96276315 6.71052632,0.96276315 Z" id="Shape" fill-rule="nonzero"></path>
                        </g>
                    </g>
                </g>
            </g>
        </g>
    </g>
</svg>