<?xml version="1.0" encoding="UTF-8"?>
<svg width="11px" height="15px" viewBox="0 0 11 15" version="1.1" xmlns="http://www.w3.org/2000/svg" xmlns:xlink="http://www.w3.org/1999/xlink">
    <!-- Generator: sketchtool 52.6 (67491) - http://www.bohemiancoding.com/sketch -->
    <title>01C965F7-F01A-4EE0-A812-D9974D1040F0</title>
    <desc>Created with sketchtool.</desc>
    <g id="Authentication" stroke="none" stroke-width="1" fill="none" fill-rule="evenodd">
        <g id="Sign-Up-Error-1440px" transform="translate(-570.000000, -521.000000)" fill="#9B9AA9">
            <g id="form" transform="translate(553.000000, 274.000000)">
                <g id="password" transform="translate(0.000000, 206.000000)">
                    <g id="password-icon" transform="translate(17.000000, 41.000000)">
                        <g id="password">
                            <path d="M9.9609375,6.9140625 L9.31640625,6.9140625 L9.31640625,4.04296875 C9.31640625,1.81365967 7.50274658,0 5.2734375,0 C3.04412842,0 1.23046875,1.81365967 1.23046875,4.04296875 L1.23046875,6.9140625 L0.5859375,6.9140625 C0.262298584,6.9140625 0,7.17636108 0,7.5 L0,14.4140625 C0,14.7377014 0.262298584,15 0.5859375,15 L9.9609375,15 C10.2845764,15 10.546875,14.7377014 10.546875,14.4140625 L10.546875,7.5 C10.546875,7.17636108 10.2845764,6.9140625 9.9609375,6.9140625 Z M2.40234375,4.04296875 C2.40234375,2.45979311 3.69026186,1.171875 5.2734375,1.171875 C6.85661314,1.171875 8.14453125,2.45979311 8.14453125,4.04296875 L8.14453125,6.9140625 L2.40234375,6.9140625 L2.40234375,4.04296875 Z M9.375,13.828125 L1.171875,13.828125 L1.171875,8.0859375 L9.375,8.0859375 L9.375,13.828125 Z M5.859375,10.078125 L5.859375,11.8359375 C5.859375,12.1595764 5.59707642,12.421875 5.2734375,12.421875 C4.94979858,12.421875 4.6875,12.1595764 4.6875,11.8359375 L4.6875,10.078125 C4.6875,9.75448608 4.94979858,9.4921875 5.2734375,9.4921875 C5.59707642,9.4921875 5.859375,9.75448608 5.859375,10.078125 Z" id="Shape" fill-rule="nonzero"></path>
                        </g>
                    </g>
                </g>
            </g>
        </g>
    </g>
</svg>