<?xml version="1.0" encoding="UTF-8"?>
<svg width="23px" height="36px" viewBox="0 0 23 36" version="1.1" xmlns="http://www.w3.org/2000/svg" xmlns:xlink="http://www.w3.org/1999/xlink">
    <!-- Generator: sketchtool 52.6 (67491) - http://www.bohemiancoding.com/sketch -->
    <title>DCB38297-692C-42FC-938C-E217CA92E68C</title>
    <desc>Created with sketchtool.</desc>
    <g id="Scrum" stroke="none" stroke-width="1" fill="none" fill-rule="evenodd" opacity="0.5">
        <g id="Scrum---Delete-Member" transform="translate(-1002.000000, -116.000000)" fill="#9B9AA9">
            <g id="Group-4" transform="translate(390.000000, 94.000000)">
                <g id="icon/close" transform="translate(612.000000, 22.000000)">
                    <g id="close-icon">
                        <path d="M13.768777,10.0002085 L21.6335286,2.13512894 C22.1221571,1.64689695 22.1221571,0.854718672 21.6335286,0.366486689 C21.1449,-0.12216223 20.3535886,-0.12216223 19.8649601,0.366486689 L12.0002085,8.23156622 L4.13503992,0.366486689 C3.64641137,-0.12216223 2.85509996,-0.12216223 2.36647141,0.366486689 C1.87784286,0.854718672 1.87784286,1.64689695 2.36647141,2.13512894 L10.2316399,10.0002085 L2.36647141,17.865288 C1.87784286,18.35352 1.87784286,19.1456983 2.36647141,19.6339302 C2.61078568,19.8778378 2.93097913,20 3.25075566,20 C3.5705322,20 3.89072565,19.8778378 4.13503992,19.6335133 L12.0002085,11.7684338 L19.8649601,19.6335133 C20.1092744,19.8778378 20.4294678,20 20.7492443,20 C21.0690209,20 21.3892143,19.8778378 21.6335286,19.6335133 C22.1221571,19.1452813 22.1221571,18.353103 21.6335286,17.8648711 L13.768777,10.0002085 Z" id="Path"></path>
                        <path d="M0.924,35 L0.924,26.456 L6.636,26.456 L6.636,27.68 L2.436,27.68 L2.436,30.044 L6.384,30.044 L6.384,31.268 L2.436,31.268 L2.436,33.776 L6.636,33.776 L6.636,35 L0.924,35 Z M10.836,35.108 C10.1799967,35.108 9.56600286,35.0200009 8.994,34.844 C8.42199714,34.6679991 7.936002,34.4160016 7.536,34.088 L8.064,32.96 C8.48000208,33.2720016 8.91399774,33.5019993 9.366,33.65 C9.81800226,33.7980007 10.3119973,33.872 10.848,33.872 C11.440003,33.872 11.8979984,33.768001 12.222,33.56 C12.5460016,33.351999 12.708,33.0600019 12.708,32.684 C12.708,32.3639984 12.5580015,32.1180009 12.258,31.946 C11.9579985,31.7739991 11.4640034,31.6120008 10.776,31.46 C9.70399464,31.2279988 8.92400244,30.9280018 8.436,30.56 C7.94799756,30.1919982 7.704,29.6560035 7.704,28.952 C7.704,28.4479975 7.83999864,28.000002 8.112,27.608 C8.38400136,27.215998 8.7699975,26.9080011 9.27,26.684 C9.7700025,26.4599989 10.3479967,26.348 11.004,26.348 C11.604003,26.348 12.1739973,26.4379991 12.714,26.618 C13.2540027,26.7980009 13.6959983,27.0479984 14.04,27.368 L13.524,28.496 C12.7639962,27.887997 11.9240046,27.584 11.004,27.584 C10.4519972,27.584 10.0160016,27.6979989 9.696,27.926 C9.3759984,28.1540011 9.216,28.463998 9.216,28.856 C9.216,29.1920017 9.35799858,29.4479991 9.642,29.624 C9.92600142,29.8000009 10.4119966,29.9639992 11.1,30.116 C11.8120036,30.2840008 12.3919978,30.465999 12.84,30.662 C13.2880022,30.858001 13.6319988,31.1099985 13.872,31.418 C14.1120012,31.7260015 14.232,32.1119977 14.232,32.576 C14.232,33.0880026 14.0960014,33.5339981 13.824,33.914 C13.5519986,34.2940019 13.1600026,34.587999 12.648,34.796 C12.1359974,35.004001 11.5320035,35.108 10.836,35.108 Z M19.548,35.108 C18.7079958,35.108 17.9740031,34.9280018 17.346,34.568 C16.7179969,34.2079982 16.2360017,33.6980033 15.9,33.038 C15.5639983,32.3779967 15.396,31.6040044 15.396,30.716 C15.396,29.8359956 15.5639983,29.0660033 15.9,28.406 C16.2360017,27.7459967 16.7179969,27.2380018 17.346,26.882 C17.9740031,26.5259982 18.7079958,26.348 19.548,26.348 C20.1240029,26.348 20.6659975,26.4379991 21.174,26.618 C21.6820025,26.7980009 22.1039983,27.0479984 22.44,27.368 L21.936,28.496 C21.5519981,28.1839984 21.1700019,27.9580007 20.79,27.818 C20.4099981,27.6779993 20.0040022,27.608 19.572,27.608 C18.7479959,27.608 18.1100023,27.8759973 17.658,28.412 C17.2059977,28.9480027 16.98,29.715995 16.98,30.716 C16.98,31.724005 17.2039978,32.4979973 17.652,33.038 C18.1000022,33.5780027 18.7399958,33.848 19.572,33.848 C20.0040022,33.848 20.4099981,33.7780007 20.79,33.638 C21.1700019,33.4979993 21.5519981,33.2720016 21.936,32.96 L22.44,34.088 C22.1039983,34.4080016 21.6820025,34.6579991 21.174,34.838 C20.6659975,35.0180009 20.1240029,35.108 19.548,35.108 Z" id="ESC"></path>
                    </g>
                </g>
            </g>
        </g>
    </g>
</svg>