<?xml version="1.0" encoding="UTF-8"?>
<svg width="24px" height="24px" viewBox="0 0 24 24" version="1.1" xmlns="http://www.w3.org/2000/svg" xmlns:xlink="http://www.w3.org/1999/xlink">
    <!-- Generator: Sketch 52.6 (67491) - http://www.bohemiancoding.com/sketch -->
    <title>info-icon</title>
    <desc>Created with Sketch.</desc>
    <g id="Scrum" stroke="none" stroke-width="1" fill="none" fill-rule="evenodd">
        <g id="Info-snackbar" transform="translate(-528.000000, -23.000000)">
            <g id="Group-8" transform="translate(518.000000, 16.000000)">
                <g id="tooltip/info" transform="translate(10.000000, 7.000000)">
                    <g id="tooltip/success">
                        <circle id="Oval" fill="#F5F5F8" fill-rule="nonzero" opacity="0.2" cx="12" cy="12" r="12"></circle>
                        <g id="information-symbol" transform="translate(10.000000, 6.000000)" fill="#FFFFFF">
                            <path d="M1.50690217,2.72725373 C1.37247283,2.72725373 1.25608696,2.67331343 1.15777174,2.56534328 C1.05953804,2.45746269 1.01038043,2.32958209 1.01038043,2.18185075 L1.01038043,0.545492537 C1.01038043,0.397791045 1.05953804,0.269880597 1.15777174,0.161910448 C1.25608696,0.0540895522 1.37247283,-2.19824159e-14 1.506875,-2.19824159e-14 L3.49304348,-2.19824159e-14 C3.62744565,-2.19824159e-14 3.74394022,0.0540895522 3.84217391,0.161910448 C3.94046196,0.27 3.98967391,0.397791045 3.98967391,0.545492537 L3.98967391,2.18185075 C3.98967391,2.32958209 3.94046196,2.45746269 3.84236413,2.56534328 C3.74396739,2.67331343 3.62763587,2.72725373 3.49326087,2.72725373 L1.50690217,2.72725373 Z M4.83521739,9.98002985 C4.93369565,10.0879104 4.98252717,10.215791 4.98252717,10.3635522 L4.98252717,11.4544776 C4.98252717,11.602209 4.93342391,11.7300896 4.83521739,11.8381791 C4.73701087,11.9459403 4.62059783,12 4.48611413,12 L0.513913043,12 C0.379429348,12 0.263043478,11.9459403 0.164809783,11.8381791 C0.0665217391,11.7300597 0.0174184783,11.6021791 0.0174184783,11.4544776 L0.0174184783,10.3635522 C0.0174184783,10.2158209 0.0664945652,10.0879403 0.164809783,9.9800597 C0.263070652,9.87208955 0.379429348,9.8180597 0.513913043,9.8180597 L1.01048913,9.8180597 L1.01048913,6.54543284 L0.513913043,6.54543284 C0.379429348,6.54543284 0.263043478,6.49149254 0.164809783,6.38340299 C0.0665217391,6.27552239 0.0174184783,6.14761194 0.0174184783,5.99997015 L0.0174184783,4.90901493 C0.0174184783,4.76134328 0.0664945652,4.63352239 0.164809783,4.52558209 C0.263070652,4.41761194 0.379429348,4.36361194 0.513913043,4.36361194 L3.493125,4.36361194 C3.62744565,4.36361194 3.7438587,4.41761194 3.84222826,4.52558209 C3.94043478,4.63352239 3.98953804,4.76134328 3.98953804,4.90901493 L3.98953804,9.81802985 L4.48611413,9.81802985 C4.620625,9.81802985 4.73703804,9.8720597 4.83521739,9.98002985 Z" id="Combined-Shape"></path>
                        </g>
                    </g>
                </g>
            </g>
        </g>
    </g>
</svg>