<?xml version="1.0" encoding="UTF-8"?>
<svg width="20px" height="19px" viewBox="0 0 20 19" version="1.1" xmlns="http://www.w3.org/2000/svg" xmlns:xlink="http://www.w3.org/1999/xlink">
    <!-- Generator: sketchtool 52.6 (67491) - http://www.bohemiancoding.com/sketch -->
    <title>82693236-32CE-4EC2-8F5B-6F032468179D</title>
    <desc>Created with sketchtool.</desc>
    <g id="Authentication" stroke="none" stroke-width="1" fill="none" fill-rule="evenodd">
        <g id="Log-In-400px" transform="translate(-303.000000, -634.000000)" fill="#3073AB" fill-rule="nonzero">
            <g id="Group" transform="translate(30.500000, 242.000000)">
                <g id="social-media" transform="translate(0.005935, 333.000000)">
                    <g id="btn" transform="translate(230.000000, 43.370558)">
                        <g id="linked-in-icon" transform="translate(43.000000, 16.081218)">
                            <path d="M19,11.0918049 L19,18.0913706 L14.9276848,18.0913706 L14.9276848,11.5605936 C14.9276848,9.92000923 14.3386683,8.80037453 12.8646252,8.80037453 C11.7393802,8.80037453 11.0697461,9.55492627 10.7751496,10.2848281 C10.6677183,10.5457651 10.6400654,10.9089553 10.6400654,11.2742144 L10.6400654,18.0913706 L6.56638078,18.0913706 C6.56638078,18.0913706 6.62124492,7.03037803 6.56638078,5.88437672 L10.6396678,5.88437672 L10.6396678,7.61466923 C10.6314073,7.62761044 10.620673,7.64156406 10.6128984,7.65410911 L10.6396678,7.65410911 L10.6396678,7.61466923 C11.1808438,6.78409889 12.1473274,5.59760128 14.3106178,5.59760128 C16.9907886,5.59755726 19,7.34228759 19,11.0918049 Z M2.30513325,0 C0.911531049,0 0,0.91085866 0,2.10866883 C0,3.28037649 0.885159154,4.21887828 2.25106425,4.21887828 L2.27827545,4.21887828 C3.69886798,4.21887828 4.58234852,3.28055256 4.58234852,2.10866883 C4.55557906,0.91085866 3.69886798,0 2.30513325,0 Z M0.241941146,18.0913706 L4.31407966,18.0913706 L4.31407966,5.88437672 L0.241941146,5.88437672 L0.241941146,18.0913706 Z" id="LinkedIn"></path>
                        </g>
                    </g>
                </g>
            </g>
        </g>
    </g>
</svg>