<?xml version="1.0" encoding="UTF-8"?>
<svg width="66px" height="66px" viewBox="0 0 66 66" version="1.1" xmlns="http://www.w3.org/2000/svg" xmlns:xlink="http://www.w3.org/1999/xlink">
    <!-- Generator: Sketch 52.6 (67491) - http://www.bohemiancoding.com/sketch -->
    <title>member-options</title>
    <desc>Created with Sketch.</desc>
    <g id="Onboarding" stroke="none" stroke-width="1" fill="none" fill-rule="evenodd">
        <g id="Scrum-Member-Options" transform="translate(-904.000000, -72.000000)">
            <g id="Group-3-Copy-2" transform="translate(880.000000, 43.000000)">
                <g id="member-options" transform="translate(25.000000, 30.000000)">
                    <circle id="Oval" stroke="#354577" stroke-width="2" fill="#2D3A5F" fill-rule="nonzero" cx="32" cy="32" r="32"></circle>
                    <g id="abstract" transform="translate(15.000000, 15.000000)">
                        <path d="M5.82755335,11.6554401 C2.61032774,11.6554401 0,9.0461128 0,5.82755335 C0,2.6089939 2.61032774,0 5.82755335,0 C9.04577937,0 11.6551067,2.60932734 11.6551067,5.82755335 C11.6551067,9.04577937 14.2647675,11.6554401 17.4829935,11.6554401 C20.7012195,11.6554401 23.3105469,9.0461128 23.3105469,5.82788679 C23.3105469,2.60966078 25.9202077,0 29.1384337,0 C32.3566597,0 34.965987,2.60932734 34.965987,5.82755335 C34.965987,9.04577937 32.3566597,11.6551067 29.1384337,11.6551067 C19.481755,11.6551067 11.6554401,19.4847561 11.6554401,29.1377668 C11.6554401,32.3543254 9.0461128,34.9653201 5.82788679,34.9653201 C2.60966078,34.9653201 4.85248698e-15,32.3566597 4.85248698e-15,29.1384337 C4.85248698e-15,25.9202077 2.60932734,23.3105469 5.82755335,23.3105469 C9.04577937,23.3105469 11.6544398,20.7012195 11.6544398,17.4829935 C11.6544398,14.2647675 9.0461128,11.6554401 5.82755335,11.6554401 Z" id="Path" fill="#87C549"></path>
                        <path d="M17.0261052,25.4957302 C17.0261052,20.8153169 20.817432,17.0257717 25.4963444,17.0257717 C30.1752568,17.02607 33.965987,20.8153169 33.965987,25.4957302 C33.965987,30.1740559 30.1752568,33.965987 25.4957478,33.965987 C20.8168354,33.965987 17.0261052,30.1740559 17.0261052,25.4957302 Z" id="Path" fill="#FFFFFF"></path>
                    </g>
                </g>
            </g>
        </g>
    </g>
</svg>