<?xml version="1.0" encoding="UTF-8"?>
<svg width="18px" height="11px" viewBox="0 0 18 11" version="1.1" xmlns="http://www.w3.org/2000/svg" xmlns:xlink="http://www.w3.org/1999/xlink">
    <!-- Generator: Sketch 52.6 (67491) - http://www.bohemiancoding.com/sketch -->
    <title>icon/multiple-members</title>
    <desc>Created with Sketch.</desc>
    <g id="Symbols" stroke="none" stroke-width="1" fill="none" fill-rule="evenodd">
        <g id="card/all-impediments" transform="translate(-10.000000, -16.000000)" fill="#242E4C">
            <g id="icon/multiple-members">
                <g transform="translate(10.000000, 16.000000)">
                    <g id="Group">
                        <path d="M15.2470588,3.88235294 C15.2470588,5.41013072 14.1,6.57843137 12.6,6.57843137 C11.1,6.57843137 9.95294118,5.41013072 9.95294118,3.88235294 C9.95294118,2.35457516 11.1,1.18627451 12.6,1.18627451 C14.1,1.18627451 15.2470588,2.35457516 15.2470588,3.88235294 Z" id="Path"></path>
                        <path d="M7.83529412,2.80392157 C7.83529412,4.33169935 6.68823529,5.5 5.18823529,5.5 C3.68823529,5.5 2.54117647,4.33169935 2.54117647,2.80392157 C2.54117647,1.27614379 3.68823529,0.107843137 5.18823529,0.107843137 C6.68823529,0.107843137 7.83529412,1.27614379 7.83529412,2.80392157 Z" id="Path"></path>
                        <path d="M10.8909017,8.43249995 C11.5575036,8.27626983 12.2032687,8.19607843 12.7058824,8.19607843 C14.4255769,8.19607843 17.8211028,9.13485432 17.9931994,10.8460732 L11.4352941,10.7843137 C11.7529412,9.38235294 11.1176471,8.62745098 10.8909017,8.43249995 Z" id="Path"></path>
                        <path d="M0,9.90359477 C0,8.10620915 3.52941176,7.11764706 5.29411765,7.11764706 C7.05882353,7.11764706 10.5882353,8.10620915 10.5882353,9.90359477 L10.5882353,10.8022876 L0,10.8022876 L0,9.90359477 Z" id="Path"></path>
                    </g>
                </g>
            </g>
        </g>
    </g>
</svg>