<?xml version="1.0" encoding="UTF-8"?>
<svg width="226px" height="226px" viewBox="0 0 226 226" version="1.1" xmlns="http://www.w3.org/2000/svg" xmlns:xlink="http://www.w3.org/1999/xlink">
    <!-- Generator: Sketch 52.6 (67491) - http://www.bohemiancoding.com/sketch -->
    <title>no-members-empty-state-icon</title>
    <desc>Created with Sketch.</desc>
    <defs>
        <linearGradient x1="13.6549991%" y1="80.0330783%" x2="81.8419444%" y2="16.1616172%" id="linearGradient-1">
            <stop stop-color="#F4F4F9" offset="0%"></stop>
            <stop stop-color="#FBFBFD" offset="100%"></stop>
        </linearGradient>
        <linearGradient x1="84.7341601%" y1="11.1779588%" x2="12.3408779%" y2="82.9891561%" id="linearGradient-2">
            <stop stop-color="#FFFFFF" offset="0%"></stop>
            <stop stop-color="#DEDEE5" offset="100%"></stop>
        </linearGradient>
        <circle id="path-3" cx="70" cy="70" r="70"></circle>
        <filter x="-9.6%" y="-5.4%" width="115.0%" height="115.0%" filterUnits="objectBoundingBox" id="filter-4">
            <feMorphology radius="1.5" operator="dilate" in="SourceAlpha" result="shadowSpreadOuter1"></feMorphology>
            <feOffset dx="-3" dy="3" in="shadowSpreadOuter1" result="shadowOffsetOuter1"></feOffset>
            <feGaussianBlur stdDeviation="2.5" in="shadowOffsetOuter1" result="shadowBlurOuter1"></feGaussianBlur>
            <feComposite in="shadowBlurOuter1" in2="SourceAlpha" operator="out" result="shadowBlurOuter1"></feComposite>
            <feColorMatrix values="0 0 0 0 0.376470588   0 0 0 0 0.368627451   0 0 0 0 0.466666667  0 0 0 0.0520550272 0" type="matrix" in="shadowBlurOuter1"></feColorMatrix>
        </filter>
    </defs>
    <g id="Scrum" stroke="none" stroke-width="1" fill="none" fill-rule="evenodd">
        <g id="Scrum---Members-Settings-empty-states" transform="translate(-607.000000, -230.000000)">
            <g id="Group-4" transform="translate(0.000000, -44.000000)">
                <g id="Group-3" transform="translate(593.000000, 274.000000)">
                    <g id="no-members-empty-state-icon" transform="translate(14.000000, 0.000000)">
                        <circle id="Oval" fill-opacity="0.5" fill="#E9E9F3" fill-rule="nonzero" cx="113" cy="113" r="113"></circle>
                        <g id="team-(2)" transform="translate(43.000000, 43.000000)">
                            <g id="Oval">
                                <use fill="black" fill-opacity="1" filter="url(#filter-4)" xlink:href="#path-3"></use>
                                <use stroke="url(#linearGradient-2)" stroke-width="3" fill="url(#linearGradient-1)" fill-rule="evenodd" xlink:href="#path-3"></use>
                            </g>
                            <g id="Group-6" transform="translate(24.000000, 27.000000)" fill-rule="nonzero">
                                <path d="M47.651826,79 C67.6794151,79 88.5,61.8753761 88.5,41.8953544 C88.5,21.9153328 67.6794151,2.10859375 47.651826,2.10859375 C27.6242369,2.10859375 9,20.9877166 9,40.9677383 C9,60.9477599 27.6242369,79 47.651826,79 Z" id="Oval" stroke="#D7D9E0" opacity="0"></path>
                                <path d="M21.4725121,17.0407162 C17.5408624,13.9727827 16.843769,8.30245041 19.9155104,4.37567458 C22.9872517,0.448898751 29.7074743,-1.58046612 33.6391239,1.48746739 C37.5707735,4.55540091 38.5598047,12.6004285 35.4880634,16.5272043 C32.4163221,20.4539801 25.4041617,20.1086497 21.4725121,17.0407162 Z" id="Oval" fill="#EDEDF3"></path>
                                <path d="M24.0328711,14.0162801 C21.7312126,12.2129943 21.3231216,8.88005715 23.1213743,6.57195659 C24.919627,4.26385602 28.8537663,3.07102547 31.1554248,4.87431126 C33.4570833,6.67759706 34.03608,11.4063449 32.2378273,13.7144455 C30.4395746,16.022546 26.3345296,15.8195659 24.0328711,14.0162801 Z" id="Oval" fill="#FFD110"></path>
                                <path d="M40.9458034,87.601325 C45.8864342,87.601325 51.5689449,81.9094116 51.5689449,76.9606057 C51.5689449,72.0117998 45.8864342,68 40.9458034,68 C36.0051726,68 32,72.0117998 32,76.9606057 C32,81.9094116 36.0051726,87.601325 40.9458034,87.601325 Z" id="Oval-Copy" fill="#EBEBF0"></path>
                                <path d="M41.2886605,83.601325 C44.2095071,83.601325 47.5689449,80.2324845 47.5689449,77.3034629 C47.5689449,74.3744412 44.2095071,72 41.2886605,72 C38.367814,72 36,74.3744412 36,77.3034629 C36,80.2324845 38.367814,83.601325 41.2886605,83.601325 Z" id="Oval-Copy" fill="#FF797A"></path>
                                <path d="M4.15721183,55.9737628 C-0.167770795,53.5859329 -1.10805609,45.3152879 1.28932092,41.0075287 C3.68669794,36.6997696 10.6045735,35.9540247 14.9295561,38.3418546 C19.2545387,40.7296845 20.8171718,46.1575319 18.4197948,50.465291 C16.0224178,54.7730502 8.48219446,58.3615927 4.15721183,55.9737628 Z" id="Oval-Copy-2" fill="#ECEBEE"></path>
                                <path d="M6.45553308,52.2835016 C3.90090312,50.8634837 3.34550644,45.9450162 4.76156095,43.3832361 C6.17761546,40.821456 10.263785,40.3779693 12.8184149,41.7979871 C15.3730449,43.218005 16.2960427,46.44589 14.8799882,49.0076701 C13.4639336,51.5694501 9.01016304,53.7035195 6.45553308,52.2835016 Z" id="Oval-Copy-2" fill="#C879FF"></path>
                                <path d="M68.0155112,62.7829243 C67.6122672,56.8367621 75.154678,50.4347479 80.9213356,50.0189517 C86.6879932,49.6031556 91.8265875,56.1051179 92.2298315,62.0512801 C92.6330754,67.9974424 88.2851696,73.1548286 82.5185121,73.5706248 C76.7518545,73.986421 68.4187552,68.7290866 68.0155112,62.7829243 Z" id="Oval-Copy-4" fill="#F2F1F4"></path>
                                <path d="M74.0078374,62.2814056 C73.8040894,59.3595189 77.6150596,56.2136309 80.5287911,56.0093127 C83.4425226,55.8049945 86.0389113,58.999996 86.2426592,61.9218827 C86.4464072,64.8437694 84.2495314,67.3780592 81.3357999,67.5823775 C78.4220684,67.7866957 74.2115853,65.2032923 74.0078374,62.2814056 Z" id="Oval-Copy-4" fill="#6390F6"></path>
                                <path d="M71.2489975,24.5858079 C67.3999749,21.5740877 65.4653025,12.2177564 68.4724885,8.36293031 C71.4796746,4.50810423 79.651207,5.86958257 83.5002296,8.88130278 C87.3492522,11.893023 88.0316956,17.4594586 85.0245096,21.3142847 C82.0173235,25.1691108 75.0980201,27.5975281 71.2489975,24.5858079 Z" id="Oval-Copy-3" fill="#F2F1F4"></path>
                                <path d="M73.5408375,21.1283655 C71.239179,19.3250797 70.0822736,13.7229195 71.8805263,11.4148189 C73.678779,9.10671833 78.5652343,9.92191177 80.8668928,11.7251976 C83.1685513,13.5284834 83.5766423,16.8614205 81.7783896,19.1695211 C79.9801369,21.4776217 75.842496,22.9316513 73.5408375,21.1283655 Z" id="Oval-Copy-3" fill="#99E44D"></path>
                            </g>
                        </g>
                    </g>
                </g>
            </g>
        </g>
    </g>
</svg>