<?xml version="1.0" encoding="UTF-8"?>
<svg width="100px" height="100px" viewBox="0 0 100 100" version="1.1" xmlns="http://www.w3.org/2000/svg" xmlns:xlink="http://www.w3.org/1999/xlink">
    <!-- Generator: Sketch 52.6 (67491) - http://www.bohemiancoding.com/sketch -->
    <title>notifications-empty-state</title>
    <desc>Created with Sketch.</desc>
    <defs>
        <path d="M29.0035874,35.1302795 L4.07997624,35.1302795 C1.84973781,35.1302795 0.0419501134,33.3236313 0.0419501134,31.0950928 C0.0419501134,29.8612442 0.600738712,28.6936646 1.5616585,27.9191056 L2.36231576,27.2734757 C4.21434774,25.7807846 5.29128576,23.5305939 5.29128576,21.1527863 L5.29128576,16.9119034 C5.29128576,10.6547394 10.3665941,5.5825424 16.6276485,5.5825424 C22.8883752,5.5825424 27.9640111,10.6547394 27.9640111,16.9119034 L27.9640111,21.2311935 C27.9640111,23.5640564 29.0006378,25.7768478 30.7936774,27.2708512 L31.5733595,27.9204178 C32.5037999,28.695633 33.0416135,29.8438568 33.0416135,31.0544128 L33.0416135,31.0950928 C33.0416135,33.3236313 31.2338259,35.1302795 29.0035874,35.1302795 Z" id="path-1"></path>
        <filter x="-45.5%" y="-23.7%" width="160.6%" height="167.7%" filterUnits="objectBoundingBox" id="filter-2">
            <feOffset dx="-5" dy="3" in="SourceAlpha" result="shadowOffsetOuter1"></feOffset>
            <feGaussianBlur stdDeviation="2.5" in="shadowOffsetOuter1" result="shadowBlurOuter1"></feGaussianBlur>
            <feColorMatrix values="0 0 0 0 0.376470588   0 0 0 0 0.368627451   0 0 0 0 0.466666667  0 0 0 0.069604846 0" type="matrix" in="shadowBlurOuter1"></feColorMatrix>
        </filter>
    </defs>
    <g id="Scrum" stroke="none" stroke-width="1" fill="none" fill-rule="evenodd">
        <g id="Scrumbs-Notifications-EMpty-State" transform="translate(-1144.000000, -102.000000)">
            <g id="Group-3-Copy" transform="translate(1056.000000, 62.000000)">
                <g id="notifications-empty-state" transform="translate(88.000000, 40.000000)">
                    <circle id="Oval" fill-opacity="0.5" fill="#E9E9F3" fill-rule="nonzero" cx="50" cy="50" r="50"></circle>
                    <g id="notification" transform="translate(33.000000, 30.000000)">
                        <path d="M21.5731735,35.9717636 C21.5731735,33.1947021 19.3206491,30.9435272 16.5417818,30.9435272 C13.7629145,30.9435272 11.5103901,33.1947021 11.5103901,35.9717636 C11.5103901,38.748825 13.7629145,41 16.5417818,41 C19.3206491,41 21.5731735,38.748825 21.5731735,35.9717636 Z" id="Path" fill="#AAAEB8"></path>
                        <path d="M16.5417818,30.9435272 C16.0331367,30.9435272 15.5421893,31.019638 15.0794271,31.1600495 C17.1448147,31.7859954 18.6484641,33.7028732 18.6484641,35.9717636 C18.6484641,38.2403259 17.1448147,40.1575317 15.0794271,40.7834778 C15.5421893,40.9238892 16.0331367,41 16.5417818,41 C19.3206491,41 21.5731735,38.748825 21.5731735,35.9717636 C21.5731735,33.1947021 19.3206491,30.9435272 16.5417818,30.9435272 Z" id="Path" fill="#AAAEB8"></path>
                        <path d="M17.1297389,6.62512972 C15.5136763,6.94958496 13.9408748,5.90371704 13.6160891,4.28865812 C13.2913035,2.67392733 14.3380899,1.10184481 15.9538248,0.777389484 C17.5695596,0.452934244 19.1426888,1.49880216 19.4674745,3.11386108 C19.7919324,4.72859196 18.7454737,6.30067448 17.1297389,6.62512972 Z" id="Path" fill="#AAAEB8"></path>
                        <path d="M19.4674745,3.11386108 C19.1426888,1.49880216 17.5695596,0.452934244 15.9538248,0.777389484 C15.8033943,0.807571453 15.6582075,0.848907471 15.5182646,0.899429363 C16.4614867,1.24455257 17.2083954,2.05749512 17.4207678,3.11386108 C17.7154018,4.57833862 16.8816433,6.0077133 15.5185924,6.50308993 C16.0174054,6.68549349 16.5709502,6.73732755 17.1297389,6.62512972 C18.7454737,6.30067448 19.7919324,4.72859196 19.4674745,3.11386108 Z" id="Path" fill="#AAAEB8"></path>
                        <g id="Path">
                            <use fill="black" fill-opacity="1" filter="url(#filter-2)" xlink:href="#path-1"></use>
                            <use fill="#FFFFFF" fill-rule="evenodd" xlink:href="#path-1"></use>
                        </g>
                    </g>
                </g>
            </g>
        </g>
    </g>
</svg>