<?xml version="1.0" encoding="UTF-8"?>
<svg width="23px" height="19px" viewBox="0 0 23 19" version="1.1" xmlns="http://www.w3.org/2000/svg" xmlns:xlink="http://www.w3.org/1999/xlink">
    <!-- Generator: sketchtool 52.6 (67491) - http://www.bohemiancoding.com/sketch -->
    <title>9CD7D1F8-AF55-48EB-B4BC-0A4ED099655F</title>
    <desc>Created with sketchtool.</desc>
    <g id="Authentication" stroke="none" stroke-width="1" fill="none" fill-rule="evenodd">
        <g id="Log-In-400px" transform="translate(-186.000000, -634.000000)" fill="#48A5E1">
            <g id="Group" transform="translate(30.500000, 242.000000)">
                <g id="social-media" transform="translate(0.005935, 333.000000)">
                    <g id="twitter-icon" transform="translate(115.500000, 43.370558)">
                        <g transform="translate(40.000000, 16.000000)">
                            <path d="M22.2084507,2.22171208 C21.391055,2.58494497 20.5140012,2.83128536 19.5924942,2.9412633 C20.5334155,2.37619797 21.2536672,1.47992509 21.595032,0.415228036 C20.7124261,0.938514849 19.738192,1.31848826 18.7001267,1.52446943 C17.8688688,0.635147517 16.6864846,0.0812182741 15.3750226,0.0812182741 C12.8590043,0.0812182741 10.8189806,2.12709175 10.8189806,4.64894188 C10.8189806,5.00660673 10.8592244,5.3559377 10.9369541,5.68998386 C7.15113281,5.4992875 3.7941313,3.68028446 1.54733641,0.91624268 C1.1545873,1.58986664 0.931159765,2.37477866 0.931159765,3.21264168 C0.931159765,4.79785972 1.73607227,6.19656655 2.95732132,7.01488682 C2.21068795,6.98984883 1.50847156,6.78386765 0.89371016,6.44148763 L0.89371016,6.49855097 C0.89371016,8.71142933 2.46467031,10.5582726 4.54769575,10.9786052 C4.16605088,11.0815958 3.76361278,11.1386591 3.34727622,11.1386591 C3.05308635,11.1386591 2.76858547,11.109436 2.48963671,11.0537556 C3.06970642,12.8699928 4.75170901,14.190747 6.74455783,14.2269575 C5.18608088,15.4517085 3.22099267,16.1795936 1.08661917,16.1795936 C0.718872757,16.1795936 0.356642173,16.1573214 5.5067062e-14,16.1169622 C2.01643627,17.4154806 4.41034424,18.1725888 6.98326278,18.1725888 C15.363991,18.1725888 19.9450357,11.2110437 19.9450357,5.173648 L19.9297583,4.58216177 C20.8248474,3.94190967 21.5992051,3.1374913 22.2084507,2.22171208 Z"></path>
                        </g>
                    </g>
                </g>
            </g>
        </g>
    </g>
</svg>