<?xml version="1.0" encoding="UTF-8"?>
<svg width="66px" height="66px" viewBox="0 0 66 66" version="1.1" xmlns="http://www.w3.org/2000/svg" xmlns:xlink="http://www.w3.org/1999/xlink">
    <!-- Generator: Sketch 52.6 (67491) - http://www.bohemiancoding.com/sketch -->
    <title>add-members-icon</title>
    <desc>Created with Sketch.</desc>
    <g id="Onboarding" stroke="none" stroke-width="1" fill="none" fill-rule="evenodd">
        <g id="Scrum---Manage-teams-Add-members" transform="translate(-678.000000, -351.000000)" fill-rule="nonzero">
            <g id="Group-3-Copy" transform="translate(654.000000, 314.000000)">
                <g id="add-members-icon" transform="translate(25.000000, 38.000000)">
                    <circle id="Oval" stroke="#354577" stroke-width="2" fill="#2D3A5F" cx="32" cy="32" r="32"></circle>
                    <g id="multiple-users-silhouette" transform="translate(14.000000, 16.000000)">
                        <path d="M22.8941358,6.08438235 C24.4950617,7.07507353 25.6176543,8.75152941 25.822037,10.6975147 C26.4749383,10.9986029 27.1995679,11.17175 27.9678395,11.17175 C30.7725926,11.17175 33.0458642,8.92808824 33.0458642,6.16029412 C33.0458642,3.39207353 30.7725926,1.14841176 27.9678395,1.14841176 C25.1898765,1.14926471 22.9364815,3.35283824 22.8941358,6.08438235 Z" id="Path" fill="#FFC61B" transform="translate(27.970000, 6.160081) rotate(-3.000000) translate(-27.970000, -6.160081) "></path>
                        <path d="M18.5674074,17.3461176 C21.3721605,17.3461176 23.6454321,15.1020294 23.6454321,12.3342353 C23.6454321,9.56644118 21.3717284,7.32277941 18.5674074,7.32277941 C15.7630864,7.32277941 13.4885185,9.56686765 13.4885185,12.3346618 C13.4885185,15.1024559 15.7630864,17.3461176 18.5674074,17.3461176 Z" id="Path" fill="#91D250" opacity="0.900000036"></path>
                        <path d="M20.7214198,18.6877206 L16.4125309,18.6877206 C12.8274074,18.6877206 9.91074074,21.5668235 9.91074074,25.10525 L9.91074074,30.3060588 L9.9241358,30.3875147 L10.2870988,30.4996765 C13.7084568,31.5547647 16.6808642,31.9066029 19.1274074,31.9066029 C23.9059877,31.9066029 26.6757407,30.5619412 26.8464198,30.4762206 L27.1856173,30.3069118 L27.2219136,30.3069118 L27.2219136,25.10525 C27.2232099,21.5668235 24.3065432,18.6877206 20.7214198,18.6877206 Z" id="Path" fill="#91D250"></path>
                        <path d="M30.122716,13.5137794 L25.8470988,13.5137794 C25.8008642,15.2021765 25.0706173,16.7225441 23.9156173,17.8160147 C27.1023457,18.7512647 29.4339506,21.6678971 29.4339506,25.1129265 L29.4339506,26.7156029 C33.6555556,26.5629265 36.0882716,25.3820294 36.2485802,25.3027059 L36.5877778,25.1329706 L36.6240741,25.1329706 L36.6240741,19.9304559 C36.6240741,16.3924559 33.7074074,13.5137794 30.122716,13.5137794 Z" id="Path" fill="#FFC61B"></path>
                        <path d="M8.65709877,11.1726029 C9.65049383,11.1726029 10.5747531,10.8864412 11.357716,10.3989853 C11.6066049,8.79673529 12.4768519,7.39663235 13.72,6.44304412 C13.7251852,6.34922059 13.7342593,6.25625 13.7342593,6.16157353 C13.7342593,3.39335294 11.4605556,1.14969118 8.65709877,1.14969118 C5.85191358,1.14969118 3.57907407,3.39335294 3.57907407,6.16157353 C3.57907407,8.92851471 5.85191358,11.1726029 8.65709877,11.1726029 Z" id="Path" fill="#CD85FF" transform="translate(8.656667, 6.161147) rotate(2.000000) translate(-8.656667, -6.161147) "></path>
                        <path d="M13.2174691,17.8160147 C12.0680864,16.7280882 11.3404321,15.2158235 11.287284,13.5376618 C11.1287037,13.5261471 10.9718519,13.5137794 10.8102469,13.5137794 L6.50179012,13.5137794 C2.91666667,13.5137794 0,16.3924559 0,19.9304559 L0,25.1321176 L0.0133950617,25.2122941 L0.376358025,25.3253088 C3.12104938,26.171 5.57061728,26.5607941 7.6982716,26.6836176 L7.6982716,25.1129265 C7.6991358,21.6678971 10.0298765,18.7521176 13.2174691,17.8160147 Z" id="Path" fill="#CD85FF"></path>
                    </g>
                </g>
            </g>
        </g>
    </g>
</svg>