<?xml version="1.0" encoding="UTF-8"?>
<svg width="66px" height="66px" viewBox="0 0 66 66" version="1.1" xmlns="http://www.w3.org/2000/svg" xmlns:xlink="http://www.w3.org/1999/xlink">
    <!-- Generator: Sketch 52.6 (67491) - http://www.bohemiancoding.com/sketch -->
    <title>edit-member</title>
    <desc>Created with Sketch.</desc>
    <g id="Onboarding" stroke="none" stroke-width="1" fill="none" fill-rule="evenodd">
        <g id="Scrum-Edit-team-Member" transform="translate(-555.000000, -74.000000)">
            <g id="Group-3-Copy" transform="translate(524.000000, 45.000000)">
                <g id="edit-member" transform="translate(32.000000, 30.000000)">
                    <circle id="Oval" stroke="#354577" stroke-width="2" fill="#2D3A5F" fill-rule="nonzero" cx="32" cy="32" r="32"></circle>
                    <g id="edit-draw-pencil" transform="translate(15.000000, 21.000000)" fill="#F5A623" fill-rule="nonzero">
                        <path d="M20.9946654,1.33009294 C20.0785502,0.412936803 18.5930669,0.412936803 17.6770818,1.33009294 L16.8477509,2.16033457 L5.23620818,13.7841078 L5.23920074,13.7871004 L4.87332714,14.1540149 C4.87332714,14.1540149 3.70648699,15.3291822 1.07198885,23.8341822 C1.05351301,23.8936431 1.03516729,23.9527138 1.01656134,24.0129554 C0.969591078,24.165316 0.922100372,24.3201487 0.874219331,24.4770632 C0.831802974,24.6157621 0.788866171,24.7573234 0.745799257,24.8997955 C0.709498141,25.0198885 0.673457249,25.1386803 0.636635688,25.2613755 C0.553104089,25.5398141 0.468531599,25.823197 0.382267658,26.1158178 C0.19295539,26.7581784 -0.269460967,28.20671 0.253457249,28.7310595 C0.756988848,29.2361524 2.22074349,28.7918216 2.86128253,28.6018587 C3.15169145,28.5157249 3.43312268,28.4312825 3.70947955,28.347881 C3.83711896,28.309368 3.96085502,28.2716357 4.08563197,28.2336431 C4.21977695,28.1927881 4.35327138,28.1521933 4.48403346,28.1119888 C4.64914498,28.0612454 4.8119145,28.0111524 4.97195167,27.9614498 C5.0197026,27.9466171 5.06654275,27.9319145 5.11390335,27.9172119 C13.2057993,25.3976022 14.6584944,24.2151487 14.7792379,24.107026 C14.7801487,24.1063755 14.7801487,24.1063755 14.7807993,24.1057249 C14.7858736,24.1010409 14.7893866,24.0979182 14.7893866,24.0979182 L15.1639777,23.7224164 L15.1890892,23.7475279 L26.8008922,12.1237546 L26.8007621,12.1236245 L27.6300929,11.2933829 C28.5462082,10.3763569 28.5462082,8.88944238 27.6300929,7.97228625 L20.9946654,1.33009294 Z M13.4534015,22.596171 C13.4432528,22.6030669 13.429461,22.6120446 13.4148885,22.6212825 C13.4068216,22.626487 13.3970632,22.6326022 13.3874349,22.6385874 C13.3776766,22.6447026 13.3670074,22.6513383 13.3556877,22.6582342 C13.3456691,22.6643494 13.3352602,22.6705948 13.3240706,22.6773606 C12.9377695,22.9085688 11.8041078,23.5051301 9.05276952,24.5011338 C8.73126394,24.6174535 8.38113383,24.7407993 8.01434944,24.8679182 L4.10319703,20.9527323 C4.23070632,20.5832156 4.35418216,20.2304833 4.47089219,19.9065056 C5.46468401,17.1435874 6.06072491,16.0065428 6.29063197,15.6207621 C6.29622677,15.6115242 6.30130112,15.6030669 6.30637546,15.5947398 C6.31444238,15.5814684 6.32198885,15.5691078 6.32901487,15.5577881 C6.33460967,15.5488104 6.34046468,15.5394424 6.34540892,15.5317658 C6.35464684,15.5173234 6.36362454,15.5035316 6.37052045,15.4932528 L6.6567658,15.2062268 L13.7458922,22.3027695 L13.4534015,22.596171 Z" id="Shape"></path>
                    </g>
                    <path d="M49.265,22.3300929 L42.6297026,15.6878996 C41.7135874,14.7708736 40.2283643,14.7708736 39.312119,15.6878996 L37.6534572,17.348513 C36.737342,18.265539 36.737342,19.7524535 37.6534572,20.6694796 L44.2886245,27.3116729 C45.2046097,28.2286989 46.6900929,28.2286989 47.6062082,27.3116729 L49.265,25.6511896 C50.1811152,24.7340335 50.1811152,23.247119 49.265,22.3300929 Z" id="Path" fill="#FF93CE"></path>
                </g>
            </g>
        </g>
    </g>
</svg>